<?xml version="1.0" encoding="UTF-8" standalone="no"?>
<!-- Created with Inkscape (http://www.inkscape.org/) -->
<svg
   xmlns:dc="http://purl.org/dc/elements/1.1/"
   xmlns:cc="http://creativecommons.org/ns#"
   xmlns:rdf="http://www.w3.org/1999/02/22-rdf-syntax-ns#"
   xmlns:svg="http://www.w3.org/2000/svg"
   xmlns="http://www.w3.org/2000/svg"
   xmlns:xlink="http://www.w3.org/1999/xlink"
   xmlns:sodipodi="http://sodipodi.sourceforge.net/DTD/sodipodi-0.dtd"
   xmlns:inkscape="http://www.inkscape.org/namespaces/inkscape"
   style="display:inline;enable-background:new"
   sodipodi:docname="1310231105.svg"
   inkscape:version="0.48.3.1 r9886"
   version="1.1"
   id="svg2902"
   height="1509.4487"
   width="1073.6221"
   enable-background="new">
  <sodipodi:namedview
     id="base"
     pagecolor="#ffffff"
     bordercolor="#666666"
     borderopacity="1.0"
     inkscape:pageopacity="0.0"
     inkscape:pageshadow="2"
     inkscape:zoom="0.17259692"
     inkscape:cx="-108.23603"
     inkscape:cy="581.59022"
     inkscape:document-units="px"
     inkscape:current-layer="g3776"
     showgrid="false"
     inkscape:window-width="1018"
     inkscape:window-height="709"
     inkscape:window-x="0"
     inkscape:window-y="1"
     inkscape:window-maximized="0"
     showguides="false"
     inkscape:guide-bbox="true"
     inkscape:snap-bbox="false"
     inkscape:snap-global="true"
     units="px">
    <sodipodi:guide
       position="10.62995,1498.8189"
       orientation="0,1052.3621"
       id="guide5547" />
    <sodipodi:guide
       position="1062.9921,1498.8189"
       orientation="1488.1889,0"
       id="guide5549" />
    <sodipodi:guide
       position="1062.9921,10.629918"
       orientation="0,-1052.3621"
       id="guide5551" />
    <sodipodi:guide
       position="10.62995,10.629918"
       orientation="-1488.1889,-8.8817842e-15"
       id="guide5553" />
    <sodipodi:guide
       position="21.259835,1488.1889"
       orientation="0,1031.1024"
       id="guide5591" />
    <sodipodi:guide
       position="1052.3622,1488.1889"
       orientation="1466.9291,0"
       id="guide5593" />
    <sodipodi:guide
       position="1052.3622,21.259818"
       orientation="0,-1031.1024"
       id="guide5595" />
    <sodipodi:guide
       position="21.259835,21.259818"
       orientation="-1466.9291,-6.750156e-14"
       id="guide5597" />
    <sodipodi:guide
       position="0,1509.4488"
       orientation="0,1073.622"
       id="guide5656" />
    <sodipodi:guide
       position="1073.622,1509.4488"
       orientation="1509.4488,0"
       id="guide5658" />
    <sodipodi:guide
       position="1073.622,1.846875e-05"
       orientation="0,-1073.622"
       id="guide5660" />
    <sodipodi:guide
       position="0,1.846875e-05"
       orientation="-1509.4488,0"
       id="guide5662" />
  </sodipodi:namedview>
  <defs
     id="defs2904">
    <clipPath
       clipPathUnits="userSpaceOnUse"
       id="clipPath18">
      <path
         inkscape:connector-curvature="0"
         d="m 0,0 2097.64,0 0,935 L 0,935 0,0 z"
         id="path20" />
    </clipPath>
    <clipPath
       clipPathUnits="userSpaceOnUse"
       id="clipPath3800">
      <path
         inkscape:connector-curvature="0"
         id="path3802"
         d="m 1363.8782,896.32002 c 0,168.31768 -137.1071,304.76608 -306.2375,304.76608 -68.45924,0 -127.46229,-19.2206 -177.34253,-54.2809 -81.4883,-57.2775 -129.38288,-147.56379 -128.89485,-250.48518 0.35652,-75.18714 28.36532,-147.3688 75.73776,-202.82147 53.24275,-62.32428 139.43365,-106.08073 230.49962,-106.79377 169.1252,-1.32424 306.2375,141.29761 306.2375,309.61524 z"
         style="color:#000000;fill:#ff0000;fill-opacity:1;fill-rule:nonzero;stroke:none;stroke-width:1;marker:none;visibility:visible;display:inline;overflow:visible;enable-background:accumulate"
         sodipodi:nodetypes="sssssss" />
    </clipPath>
    <filter
       inkscape:collect="always"
       id="filter4741">
      <feBlend
         inkscape:collect="always"
         mode="screen"
         in2="BackgroundImage"
         id="feBlend4743" />
    </filter>
    <filter
       inkscape:collect="always"
       id="filter4771">
      <feBlend
         inkscape:collect="always"
         mode="multiply"
         in2="BackgroundImage"
         id="feBlend4773" />
    </filter>
    <clipPath
       clipPathUnits="userSpaceOnUse"
       id="clipPath4701-5">
      <path
         inkscape:connector-curvature="0"
         id="path4703-0"
         d="m 2065.8837,199.74768 c -2.8915,0.0171 -4.4947,0.15235 -4.4947,0.15235 0,0 -138.941,32.26933 -161.1255,174.25032 -22.1845,141.98097 -105.0497,256.09423 -105.0497,256.09423 l -31.0817,41.44227 -76.8663,41.3661 -109.4716,20.72113 -110.919,41.44229 -147.9429,75.41886 -131.564,75.41885 -137.5822,53.25028 -53.25029,29.55804 -69.47676,38.4713 -131.64017,22.1685 -96.14001,32.5292 -113.89007,2.971 -196.69846,11.808 c 0,0 -223.30108,-25.1265 -244.00665,-22.1686 19.22658,82.8222 433.32337,134.6243 443.67615,137.5823 10.35279,2.9579 -341.67026,104.9769 -341.67026,104.9769 0,0 -75.39263,16.2995 -69.47676,84.332 l 712.82243,-124.2505 351.57375,79.0754 4.1137,17.7501 c 0,0 2.2316,34.7515 2.9711,37.7094 0.7394,2.9581 -14.0173,5.9421 -14.0173,5.9421 l -18.5119,40.6805 -1.4474,62.0872 26.587,27.4251 0,15.4646 13.3317,34.8146 -9.5988,12.5698 15.5409,19.9594 16.9882,-2.9711 5.4089,9.6749 c -14.6963,11.9064 -17.0367,24.2644 -17.293,35.7288 -0.2796,12.4994 1.3713,23.7204 -8.1514,35.5001 -0.7982,0.9972 -0.6165,2.6304 0.3809,3.4282 0.9974,0.798 2.6305,0.6167 3.4282,-0.3808 10.6698,-13.1991 8.95,-26.4214 9.2178,-38.3952 0.2418,-10.8108 1.7069,-20.7699 14.8552,-31.5388 l 4.8756,8.7608 c -1.1995,2.1299 -2.1393,4.3085 -2.8187,6.4755 -2.3086,7.3638 -1.82,14.6832 -0.4571,21.4828 1.363,6.7997 3.5525,13.1619 4.8756,18.5119 1.3231,5.35 1.6322,9.4804 0.1524,12.1889 -0.6187,1.1169 -0.2028,2.7336 0.9141,3.352 1.1171,0.6184 2.7339,0.1267 3.352,-0.9904 2.5157,-4.6044 1.7903,-9.9942 0.3809,-15.6932 -1.4094,-5.699 -3.6005,-11.9221 -4.8756,-18.2834 -1.2751,-6.3613 -1.6656,-12.8364 0.3047,-19.1213 0.2943,-0.9386 0.6617,-1.8837 1.0666,-2.8187 l 30.2437,54.1645 16.9883,11.1223 16.3026,1.4475 25.1397,30.3199 2.2092,17.0644 -31.8435,-8.1512 -33.9766,11.0461 -9.5988,21.483 25.1397,-6.6278 82.8083,2.8949 0.6857,14.8552 83.5701,42.8897 17.0645,-9.6749 7.3895,8.9131 3.6567,18.512 14.0934,-20.7212 -0.7618,-14.0934 -19.9593,-10.3606 -35.5002,-9.5988 -24.3778,-19.1975 116.0993,19.1975 29.5581,15.5409 8.837,-8.837 -0.6857,-13.3316 -18.5119,-17.75 -42.1279,-10e-5 -36.262,-7.3895 42.128,-10.3605 29.6342,6.6276 5.1803,-2.2092 -20.7211,-19.9593 -23.6922,3.7328 -56.2213,-1.5236 -48.7557,-2.2092 -19.9593,-11.1224 -2.2092,-10.2844 -17.7501,-13.3316 -6.7039,-14.7791 14.0934,-8.1513 -3.7329,-16.3026 -43.6515,-65.0583 -0.6856,-16.2265 -11.1224,-10.3606 -27.3488,-56.2213 -28.8725,-4.4185 -5.1803,-7.3895 -2.8948,-47.3844 6.6277,-15.4646 31.0817,-10.3606 25.1396,-23.6922 16.2265,-17.7501 25.9014,-31.7673 28.8725,-9.675 63.6108,-1.9807 c -14.2367,16.5566 -25.2158,29.4058 -25.2158,29.4058 l 8.9132,33.2147 -2.9711,11.8842 -10.3606,11.808 -2.2092,43.6515 -1.4474,21.4068 55.4595,39.9187 82.8084,89.5122 43.5753,46.6226 11.1224,12.5698 4.4185,16.2265 -8.0752,6.6277 -34.0527,-5.8659 -14.0173,2.2092 -6.7039,-7.3895 -12.5698,2.2092 -8.1513,12.5699 0,5.1802 9.6749,8.1515 5.1803,-3.7329 14.0172,1.5235 0.7619,5.1803 42.1279,9.5989 34.7383,-2.9711 51.8029,18.5118 55.4595,2.895 11.0462,-5.8659 6.7039,-2.9711 9.5988,1.4475 9.5987,17.75 2.9711,-16.2265 -9.5988,-14.7791 17.7501,7.3897 18.4357,-7.3897 41.4423,8.837 -28.8725,-25.1396 -19.1975,-5.9421 -7.3895,-8.837 -52.4885,-1.4474 -49.5936,-1.5236 -25.1396,-12.5698 -50.2793,-45.8608 -57.6687,-72.4478 -43.6515,-58.4305 -8.0752,-39.1569 1.4475,-9.675 14.0172,-9.5987 3.7328,-22.1685 21.483,-37.7095 26.053,-65.8582 c 0,0 12.5489,-7.1443 27.3848,-11.1136 692.2135,-313.4506 340.6458,-759.65703 451.1891,-951.10887 17.1901,-28.45212 38.8366,-31.39672 50.6539,-30.83046 l 72.5239,11.80803 47.3082,16.22651 19.1976,8.91307 -20.6451,-69.47671 -23.692,-22.24478 1.192,-9.71362 -25.9342,-32.98585 -17.0049,-3.16126 c -0.3526,-0.95711 -0.733,-1.92116 -1.143,-2.89473 -27.1761,-64.7049 -109.876,-68.30306 -130.1165,-68.18172 z"
         style="fill:#ff0000;stroke:none;display:inline;enable-background:new"
         sodipodi:nodetypes="ccscccccccccccccccsccccccccccccccccccscsccccscccsscccccccccccccccccccccccccccccccccccccccccccccccccccccccccccccccccccccccccccccccccccccccccccccccccccccccccccccccccccccccc" />
    </clipPath>
    <clipPath
       clipPathUnits="userSpaceOnUse"
       id="clipPath4840">
      <path
         style="color:#000000;fill:#ff0000;fill-opacity:1;fill-rule:nonzero;stroke:none;stroke-width:1;marker:none;visibility:visible;display:inline;overflow:visible;enable-background:accumulate"
         d="m 432.61234,691.04907 c 349.48556,-58.95859 680.59846,176.58071 739.56136,526.09173 58.9629,349.511 -176.55231,680.6411 -526.03787,739.5997 C 296.65028,2015.699 -34.462614,1780.1598 -93.425493,1430.6487 -152.38838,1081.1377 83.126801,750.00765 432.61234,691.04907 z"
         id="path4842"
         inkscape:connector-curvature="0" />
    </clipPath>
    <filter
       inkscape:collect="always"
       id="filter3763">
      <feBlend
         inkscape:collect="always"
         mode="multiply"
         in2="BackgroundImage"
         id="feBlend3765" />
    </filter>
    <clipPath
       clipPathUnits="userSpaceOnUse"
       id="clipPath3769">
      <path
         sodipodi:nodetypes="ccscccccccccccccccsccccccccccccccccccscsccccscccsscccccccccccccccccccccccccccccccccccccccccccccccccccccccccccccccccccccccccccccccccccccccccccccccccccccccccccccccccccccccc"
         style="fill:#ff0000;stroke:none;display:inline;enable-background:new"
         d="m 2062.4328,204.54359 c -2.8835,0.0212 -4.4821,0.15835 -4.4821,0.15835 0,0 -138.5121,32.37723 -160.4343,173.99811 -21.9222,141.62088 -104.3971,255.5369 -104.3971,255.5369 l -30.9374,41.37208 -76.5956,41.36083 -109.1403,20.81917 -110.5543,41.48523 -147.4281,75.42057 -131.0944,75.39707 -137.127,53.29847 -53.06151,29.55203 -69.23089,38.4637 -131.24567,22.2938 -95.82882,32.5759 -113.57172,3.1239 -196.13933,12.0542 c 0,0 -222.7209,-24.7405 -243.36518,-21.7616 19.29093,82.5664 432.31902,133.6389 442.64756,136.5744 10.32849,2.9349 -340.57926,105.1712 -340.57926,105.1712 0,0 -75.16162,16.3615 -69.16565,84.1981 l 710.68058,-124.9182 350.71639,78.3591 4.1274,17.6955 c 0,0 2.2745,34.6526 3.0163,37.6012 0.7416,2.9491 -13.9702,5.9457 -13.9702,5.9457 l -18.4032,40.5945 -1.3556,61.918 26.5526,27.3117 0.022,15.422 13.3442,34.6997 -9.5544,12.5486 15.5264,19.8825 16.9371,-2.9869 5.4078,9.6404 c -14.6391,11.8946 -16.9554,24.2217 -17.1948,35.6551 -0.261,12.4651 1.4012,23.6529 -8.0785,35.4135 -0.7948,0.9958 -0.6113,2.6241 0.3852,3.4183 0.9957,0.7943 2.6242,0.6113 3.418,-0.3853 10.6219,-13.1778 8.888,-26.3613 9.138,-38.3024 0.2258,-10.7813 1.6727,-20.7152 14.7697,-31.473 l 4.8744,8.73 c -1.1929,2.1255 -2.1272,4.2995 -2.8016,6.4615 -2.2919,7.3467 -1.7943,14.6453 -0.4254,21.424 1.3686,6.7792 3.5612,13.1207 4.8884,18.4539 1.327,5.3334 1.641,9.4522 0.1701,12.1551 -0.6154,1.1148 -0.1984,2.7265 0.9163,3.3415 1.1149,0.6152 2.7264,0.1225 3.3413,-0.9924 2.5023,-4.5953 1.7713,-9.9689 0.3576,-15.6503 -1.4135,-5.6814 -3.6073,-11.8842 -4.8879,-18.2263 -1.2807,-6.3417 -1.6793,-12.7985 0.2767,-19.0688 0.2922,-0.9366 0.6571,-1.8796 1.0597,-2.8125 l 30.2371,53.9723 16.9572,11.0677 16.2596,1.4203 25.1134,30.2005 2.2272,17.0142 -31.7673,-8.0836 -33.8669,11.0639 -9.5421,21.4373 25.061,-6.6451 82.5839,2.7695 0.705,14.8131 83.4005,42.6532 17.0037,-9.6724 7.3816,8.8779 3.6729,18.456 14.0251,-20.6842 -0.7795,-14.0533 -19.9191,-10.3037 -35.4159,-9.5222 -24.3377,-19.1098 115.8064,18.98 29.4985,15.4559 8.8001,-8.825 -0.7025,-13.2937 -18.4862,-17.6751 -42.0118,0.059 -36.1724,-7.3179 41.9972,-10.3915 29.5617,6.5673 5.163,-2.2105 -20.6923,-19.8749 -23.6214,3.7562 -56.0684,-1.4398 -48.6245,-2.1339 -19.9199,-11.0637 -2.2178,-10.2528 -17.7201,-13.2696 -6.7062,-14.729 14.0428,-8.1489 -3.7456,-16.2521 -43.6234,-64.8171 -0.7068,-16.1808 -11.1064,-10.3163 -27.3531,-56.0273 -28.799,-4.3655 -5.1765,-7.3619 -2.954,-47.2494 6.5875,-15.4314 30.9815,-10.3762 25.0364,-23.6624 16.1568,-17.724 25.785,-31.7167 28.7792,-9.6892 63.4324,-2.0652 c -14.1738,16.5311 -25.1044,29.3604 -25.1044,29.3604 l 8.9356,33.1105 -2.946,11.8556 -10.3153,11.7901 -2.1413,43.5341 -1.413,21.3499 55.3631,39.73 82.7066,89.1482 43.5215,46.4323 11.1094,12.5192 4.4293,16.1754 -8.0435,6.6212 -33.9669,-5.8017 -13.9759,2.223 -6.6957,-7.3597 -12.5321,2.221 -8.1108,12.5468 0.01,5.1659 9.6598,8.1154 5.1608,-3.7302 13.9808,1.4997 0.767,5.1648 42.0253,9.5127 34.6384,-3.0128 51.686,18.3874 55.3107,2.8082 11.0074,-5.8655 6.6812,-2.9722 9.5746,1.4297 9.5974,17.6879 2.9399,-16.1862 -9.5934,-14.7247 17.7117,7.3439 18.3743,-7.3952 41.3406,8.7539 -28.8285,-25.0293 -19.1528,-5.8987 -7.3818,-8.8021 -52.3458,-1.3689 -49.4591,-1.4491 -25.0881,-12.4997 -50.2054,-45.6629 -57.6125,-72.1665 -43.6139,-58.2074 -8.1084,-39.0376 1.4297,-9.65 13.9651,-9.5923 3.691,-22.1127 21.3704,-37.636 25.8878,-65.7134 c 0,0 12.5042,-7.1423 27.2935,-11.1219 689.8603,-313.5671 338.63,-758.0447 448.5971,-949.12512 17.1024,-28.39808 38.6851,-31.36531 50.4706,-30.81727 l 72.3406,11.67274 47.2008,16.11458 19.1572,8.86144 -20.6867,-69.25604 -23.6583,-22.14975 1.1752,-9.68854 -25.9097,-32.85811 -16.9624,-3.12845 c -0.3528,-0.954 -0.7337,-1.91483 -1.1439,-2.88514 -27.1929,-64.48795 -109.6699,-67.95899 -129.8542,-67.8093 z"
         id="path3771"
         inkscape:connector-curvature="0" />
    </clipPath>
    <clipPath
       clipPathUnits="userSpaceOnUse"
       id="clipPath3875">
      <path
         style="fill:#ff0000;stroke:none;display:inline;enable-background:new"
         d="m 2051.9808,206.37295 c -26.8118,8.13343 -135.2997,48.38601 -154.4817,172.30428 -21.9222,141.62087 -104.399,255.53294 -104.399,255.53294 l -30.9359,41.43785 -76.6033,41.33971 -109.1295,20.8397 -110.5607,41.42321 -147.3895,75.4445 -131.1222,75.37203 -137.0906,53.30399 -53.05387,29.58744 -69.27076,38.4212 -131.21967,22.3212 -95.83104,32.5475 -78.96371,2.1727 c 5.03564,40.6046 13.55746,81.3209 25.79717,121.8138 11.16801,36.9473 25.01306,72.3307 41.25289,106.0484 l 202.41611,-35.5566 350.73378,78.3611 4.0924,17.7202 c 0,0 2.259,34.6206 3.0008,37.5692 0.7416,2.9491 -13.9247,5.9643 -13.9247,5.9643 l -18.4104,40.6007 -1.3647,61.9182 26.5727,27.2846 0.032,15.4369 13.2882,34.6703 -9.5399,12.5729 15.5556,19.8722 16.9242,-3.0093 5.3825,9.6772 c -14.6391,11.8946 -16.9259,24.2271 -17.1653,35.6605 -0.261,12.4651 1.3584,23.6237 -8.1213,35.3843 -0.7948,0.9958 -0.5837,2.6618 0.4128,3.456 0.9957,0.7943 2.5979,0.6033 3.3917,-0.3933 10.6219,-13.1778 8.8888,-26.3485 9.1388,-38.2896 0.2258,-10.7813 1.6758,-20.7392 14.7728,-31.497 l 4.8784,8.7061 c -1.1929,2.1255 -2.1447,4.3071 -2.8191,6.4691 -2.2919,7.3467 -1.762,14.6846 -0.3931,21.4633 1.3686,6.7792 3.5328,13.0678 4.86,18.401 1.327,5.3334 1.6378,9.4635 0.1669,12.1664 -0.6154,1.1149 -0.1679,2.7499 0.9469,3.3649 1.1149,0.6152 2.7303,0.1033 3.3453,-1.0112 2.5023,-4.5953 1.7482,-9.9366 0.3345,-15.618 -1.4135,-5.6814 -3.6054,-11.9106 -4.8854,-18.2529 -1.2807,-6.3417 -1.6737,-12.7723 0.2823,-19.0426 0.2922,-0.9366 0.6344,-1.9081 1.0369,-2.841 l 30.2846,53.9665 16.9729,11.0886 16.2253,1.4147 2.9622,3.528 c 17.5189,-0.3909 35.0912,-1.3983 52.7098,-3.0837 l -5.5384,-4.1535 -6.7063,-14.7536 14.049,-8.1082 -3.729,-16.2855 -43.6069,-64.8245 -0.7547,-16.2015 -11.1067,-10.264 -27.3341,-56.052 -28.7716,-4.3627 -5.1717,-7.3536 -2.9823,-47.2641 6.5792,-15.3991 30.9747,-10.4159 25.0762,-23.6583 16.1276,-17.7236 25.7932,-31.7388 28.7424,-9.6709 63.4819,-2.0569 c -14.1738,16.5311 -25.1094,29.3555 -25.1094,29.3555 l 8.8882,33.1216 -2.9495,11.8446 -10.2624,11.8083 -2.1433,43.5474 -1.4104,21.3495 55.3288,39.7263 82.7007,89.167 27.349,29.1563 c 11.7094,-4.7836 23.1532,-9.937 34.4923,-15.2706 l -55.2614,-69.2358 -43.6447,-58.2132 -8.083,-39.0521 1.4413,-9.6334 13.9428,-9.6208 3.707,-22.1139 21.3456,-37.6263 25.9222,-65.6901 c 0,0 12.4631,-7.1367 27.2524,-11.1163 689.8602,-313.5671 338.6096,-758.0571 448.5767,-949.13751 17.1024,-28.39809 38.7101,-31.39834 50.4956,-30.8503 l 72.3427,11.69445 47.2136,16.13062 19.1828,8.87597 -20.7311,-69.28181 -23.6779,-22.12134 1.2094,-9.70375 -25.947,-32.88004 -16.9433,-3.09336 c -0.3529,-0.95399 -0.7416,-1.91129 -1.1519,-2.88159 -27.1929,-64.48795 -109.6392,-67.98148 -129.8236,-67.83179 -2.8834,0.0212 -4.5123,0.17032 -4.5123,0.17032 0,0 -2.1273,0.49846 -5.9576,1.66038 z"
         id="path3877"
         inkscape:connector-curvature="0" />
    </clipPath>
  </defs>
  <metadata
     id="metadata2907">
    <rdf:RDF>
      <cc:Work
         rdf:about="">
        <dc:format>image/svg+xml</dc:format>
        <dc:type
           rdf:resource="http://purl.org/dc/dcmitype/StillImage" />
        <dc:title />
      </cc:Work>
    </rdf:RDF>
  </metadata>
  <g
     style="display:none"
     inkscape:label="XX_SHOOT-000"
     layerid="element"
     id="g4587"
     inkscape:groupmode="layer"
     sodipodi:insensitive="true">
    <image
       xlink:href="../../../i/free/jpg/IMG_6054.JPG"
       y="-15.144903"
       x="-11.546"
       id="image4589"
       height="1636.6936"
       width="1091.1293" />
  </g>
  <g
     style="display:none"
     inkscape:label="XX_TELLER-000"
     layerid="element"
     id="g4643"
     inkscape:groupmode="layer">
    <image
       xlink:href="../../../i/free/png/Pigeon_Messengers_Harpers_Engraving_MOD.png"
       clip-path="url(#clipPath3769)"
       y="0"
       x="0"
       id="image4645"
       height="1904"
       width="2417" />
  </g>
  <g
     inkscape:groupmode="layer"
     id="g4499"
     layerid="element"
     inkscape:label="TELLER-001"
     style="display:none;filter:url(#filter3763)">
    <image
       xlink:href="../../../i/free/png/Pigeon_Messengers_Harpers_Engraving_MOD.png"
       width="2417"
       height="1904"
       id="image4645-5"
       x="0"
       y="0"
       clip-path="url(#clipPath3875)"
       style="display:inline;enable-background:new"
       transform="matrix(0.44508035,0.13453376,-0.13453376,0.44508035,7.4052877,-191.06949)" />
  </g>
  <g
     inkscape:groupmode="layer"
     id="g4733"
     layerid="element"
     inkscape:label="TELLER-002"
     style="display:none;filter:url(#filter4741)">
    <image
       xlink:href="../../../i/free/png/Pigeon_Messengers_Harpers_Engraving_MOD.png"
       transform="matrix(-0.08772401,0.51999678,-0.51999678,-0.08772401,1204.3818,279.29461)"
       width="2417"
       height="1904"
       id="image4758-0"
       x="0"
       y="0"
       clip-path="url(#clipPath4701-5)"
       style="display:inline;filter:url(#filter4771);enable-background:new" />
  </g>
  <g
     style="display:none;filter:url(#filter4771)"
     inkscape:label="TELLER-002"
     layerid="element"
     id="g4756"
     inkscape:groupmode="layer">
    <image
       xlink:href="../../../i/free/png/Pigeon_Messengers_Harpers_Engraving_MOD.png"
       clip-path="url(#clipPath4840)"
       y="0"
       x="0"
       id="image4758"
       height="1904"
       width="2417"
       transform="matrix(-0.08772401,0.51999678,-0.51999678,-0.08772401,1204.3818,279.29463)" />
  </g>
  <g
     style="display:inline"
     inkscape:label="SCHALE-001"
     layerid="element"
     id="g3776"
     inkscape:groupmode="layer">
    <image
       xlink:href="../../../i/free/jpg/IMG_6015.JPG"
       clip-path="url(#clipPath3800)"
       y="-16.55913"
       x="-6.8699117"
       id="image3778"
       height="1636.6936"
       width="1091.1293" />
  </g>
  <g
     style="display:none"
     inkscape:label="XX_INFO-000"
     layerid="element"
     id="g8895"
     inkscape:groupmode="layer"
     sodipodi:insensitive="true">
    <g
       id="g8943"
       style="font-size:66.6787796px;font-style:normal;font-variant:normal;font-weight:normal;font-stretch:normal;line-height:125%;letter-spacing:0px;word-spacing:0px;fill:#ffffff;fill-opacity:1;stroke:none;font-family:TeX Gyre Heros;-inkscape-font-specification:TeX Gyre Heros" />
    <g
       id="g8945"
       style="font-size:66.6787796px;font-style:normal;font-variant:normal;font-weight:normal;font-stretch:normal;line-height:125%;letter-spacing:0px;word-spacing:0px;fill:#ffffff;fill-opacity:1;stroke:none;display:inline;font-family:TeX Gyre Heros;-inkscape-font-specification:TeX Gyre Heros" />
    <text
       transform="matrix(0,-1,1,0,0,0)"
       xml:space="preserve"
       style="font-size:8px;font-style:normal;font-variant:normal;font-weight:normal;font-stretch:normal;text-align:center;line-height:125%;letter-spacing:0px;word-spacing:0px;text-anchor:middle;fill:#ffffff;fill-opacity:1;stroke:none;display:inline;font-family:TeX Gyre Heros;-inkscape-font-specification:TeX Gyre Heros"
       x="-202.40178"
       y="1042.5942"
       id="text9189"
       sodipodi:linespacing="125%"><tspan
         sodipodi:role="line"
         x="-202.40178"
         y="1042.5942"
         id="tspan9191"
         style="font-size:8px;font-style:normal;font-variant:normal;font-weight:normal;font-stretch:normal;font-family:TeX Gyre Heros;-inkscape-font-specification:TeX Gyre Heros">Verantwoordelijke uitgever: Peter Westenberg, Constant vzw, Fortstraat 5, 1060 Saint-Gilles</tspan></text>
    <flowRoot
       transform="translate(-548.86497,450.56233)"
       style="font-size:40px;font-style:normal;font-variant:normal;font-weight:normal;font-stretch:normal;text-align:center;line-height:125%;letter-spacing:0px;word-spacing:0px;text-anchor:middle;fill:#ff0000;fill-opacity:1;stroke:none;display:inline;font-family:TeX Gyre Heros;-inkscape-font-specification:TeX Gyre Heros"
       id="flowRoot9193"
       xml:space="preserve"><flowRegion
         id="flowRegion9195"><rect
           style="font-style:normal;font-variant:normal;font-weight:normal;font-stretch:normal;text-align:center;text-anchor:middle;fill:#ff0000;font-family:TeX Gyre Heros;-inkscape-font-specification:TeX Gyre Heros"
           y="594.6825"
           x="35.102039"
           height="99.16626"
           width="248.98135"
           id="rect9197" /></flowRegion><flowPara
         style="font-size:24px;font-style:normal;font-variant:normal;font-weight:normal;font-stretch:normal;text-align:center;text-anchor:middle;fill:#ff0000;font-family:TeX Gyre Heros;-inkscape-font-specification:TeX Gyre Heros"
         id="flowPara9199" /></flowRoot>    <g
       style="fill:#ff0000;display:inline"
       id="g9487"
       transform="translate(0,200)" />
    <g
       style="fill:#00ff00;display:inline"
       id="g9489"
       transform="translate(0,200)" />
    <g
       style="fill:#0000ff;display:inline"
       id="g9491"
       transform="translate(0,200)" />
    <flowRoot
       transform="translate(-434.33647,-41.85675)"
       style="font-size:20px;font-style:normal;font-variant:normal;font-weight:normal;font-stretch:normal;text-align:justify;line-height:125%;letter-spacing:0px;word-spacing:0px;text-anchor:start;fill:#000000;fill-opacity:1;stroke:none;display:inline;font-family:TeX Gyre Heros;-inkscape-font-specification:TeX Gyre Heros"
       id="flowRoot9513"
       xml:space="preserve"><flowRegion
         id="flowRegion9515"><rect
           style="font-size:20px;font-style:normal;font-variant:normal;font-weight:normal;font-stretch:normal;text-align:justify;text-anchor:start;fill:#000000;font-family:TeX Gyre Heros;-inkscape-font-specification:TeX Gyre Heros"
           y="594.6825"
           x="35.102039"
           height="99.16626"
           width="248.98135"
           id="rect9517" /></flowRegion><flowPara
         style="font-size:20px;font-style:normal;font-variant:normal;font-weight:normal;font-stretch:normal;text-align:justify;text-anchor:start;fill:#000000;font-family:TeX Gyre Heros;-inkscape-font-specification:TeX Gyre Heros"
         id="flowPara9519" /></flowRoot>    <text
       xml:space="preserve"
       style="font-size:20px;font-style:normal;font-variant:normal;font-weight:normal;font-stretch:normal;text-align:center;line-height:125%;letter-spacing:0px;word-spacing:0px;text-anchor:middle;fill:#ffffff;fill-opacity:1;stroke:none;display:inline;font-family:TeX Gyre Heros;-inkscape-font-specification:TeX Gyre Heros"
       x="461.96927"
       y="1289.3655"
       id="text8911"
       sodipodi:linespacing="125%"><tspan
         style="font-style:normal;font-variant:normal;font-weight:normal;font-stretch:normal;fill:#ffffff;stroke:none;font-family:TeX Gyre Heros;-inkscape-font-specification:TeX Gyre Heros"
         id="tspan8913"
         sodipodi:role="line"
         x="461.96927"
         y="1289.3655">Recyclart, Constant Variable, La Poissonerie, et al.</tspan></text>
    <flowRoot
       transform="translate(-114.68103,485.45836)"
       style="font-size:40px;font-style:normal;font-variant:normal;font-weight:bold;font-stretch:normal;text-align:center;line-height:125%;letter-spacing:0px;word-spacing:0px;text-anchor:middle;fill:#ffffff;fill-opacity:1;stroke:none;display:inline;font-family:TeX Gyre Heros;-inkscape-font-specification:TeX Gyre Termes Bold"
       id="flowRoot8915"
       xml:space="preserve"><flowRegion
         id="flowRegion8917"><rect
           style="font-weight:bold;text-align:center;text-anchor:middle;fill:#ffffff;-inkscape-font-specification:TeX Gyre Termes Bold"
           y="594.6825"
           x="35.102039"
           height="803.41412"
           width="1082.6429"
           id="rect8919" /></flowRegion><flowPara
         id="flowPara8921"
         style="font-size:20px;font-style:normal;font-variant:normal;font-weight:bold;font-stretch:normal;text-align:center;text-anchor:middle;fill:#ffffff;font-family:TeX Gyre Heros;-inkscape-font-specification:TeX Gyre Heros Bold">A feminist review of experimental servertechnologies</flowPara><flowPara
         style="font-size:20px;font-style:normal;font-variant:normal;font-weight:bold;font-stretch:normal;text-align:center;text-anchor:middle;fill:#ffffff;font-family:TeX Gyre Heros;-inkscape-font-specification:TeX Gyre Heros Bold"
         id="flowPara8923">Een feministische kijk op experimentele servertechnologie </flowPara><flowPara
         style="font-size:20px;font-style:normal;font-variant:normal;font-weight:bold;font-stretch:normal;text-align:center;text-anchor:middle;fill:#ffffff;font-family:TeX Gyre Heros;-inkscape-font-specification:TeX Gyre Heros Bold"
         id="flowPara8925">Un regard feministe sur la technologie expérimentale du serveur</flowPara><flowPara
         style="font-size:20px;font-style:normal;font-variant:normal;font-weight:bold;font-stretch:normal;text-align:center;text-anchor:middle;fill:#ffffff;font-family:TeX Gyre Heros;-inkscape-font-specification:TeX Gyre Heros Bold"
         id="flowPara8927" /></flowRoot>    <flowRoot
       transform="translate(-114.06122,591.18453)"
       style="font-size:16px;font-style:normal;font-variant:normal;font-weight:normal;font-stretch:normal;text-align:center;line-height:125%;letter-spacing:0px;word-spacing:0px;text-anchor:middle;fill:#ffffff;fill-opacity:1;stroke:none;display:inline;font-family:TeX Gyre Heros;-inkscape-font-specification:TeX Gyre Heros"
       id="flowRoot8929"
       xml:space="preserve"><flowRegion
         id="flowRegion8931"><rect
           style="font-size:16px;text-align:center;text-anchor:middle;fill:#ffffff"
           y="594.6825"
           x="35.102039"
           height="803.41412"
           width="1082.6429"
           id="rect8933" /></flowRegion><flowPara
         id="flowPara8935"
         style="font-size:16px;font-style:normal;font-variant:normal;font-weight:normal;font-stretch:normal;text-align:center;text-anchor:middle;fill:#ffffff;font-family:TeX Gyre Heros;-inkscape-font-specification:TeX Gyre Heros">Lectures, screenings, portable exhibition, performances, discussions, workshops</flowPara><flowPara
         style="font-size:16px;font-style:normal;font-variant:normal;font-weight:normal;font-stretch:normal;text-align:center;text-anchor:middle;fill:#ffffff;font-family:TeX Gyre Heros;-inkscape-font-specification:TeX Gyre Heros"
         id="flowPara8937">Filmvertoningen, werksessies, draagbare expo, performances, discussies, lezingen</flowPara><flowPara
         style="font-size:16px;font-style:normal;font-variant:normal;font-weight:normal;font-stretch:normal;text-align:center;text-anchor:middle;fill:#ffffff;font-family:TeX Gyre Heros;-inkscape-font-specification:TeX Gyre Heros"
         id="flowPara8939">Sessions de travail, expo portable, films, ateliers, performances, conférences, débats.</flowPara><flowPara
         style="font-size:16px;font-style:normal;font-variant:normal;font-weight:normal;font-stretch:normal;text-align:center;text-anchor:middle;fill:#ffffff;font-family:TeX Gyre Heros;-inkscape-font-specification:TeX Gyre Heros"
         id="flowPara8941" /></flowRoot>    <flowRoot
       transform="translate(-2.20587,389.81369)"
       style="font-size:40px;font-style:normal;font-variant:normal;font-weight:normal;font-stretch:normal;line-height:125%;letter-spacing:0px;word-spacing:0px;fill:#ffffff;fill-opacity:1;stroke:none;font-family:TeX Gyre Heros;-inkscape-font-specification:TeX Gyre Heros"
       id="flowRoot8947"
       xml:space="preserve"><flowRegion
         id="flowRegion8949"><rect
           style="fill:#ffffff"
           y="594.6825"
           x="35.102039"
           height="110.32858"
           width="860.11237"
           id="rect8951" /></flowRegion><flowPara
         id="flowPara8953"
         style="font-size:36px;font-style:normal;font-variant:normal;font-weight:bold;font-stretch:normal;text-align:center;text-anchor:middle;fill:#ffffff;font-family:TeX Gyre Heros;-inkscape-font-specification:TeX Gyre Heros Bold">Verbindingen | Jonctions 14</flowPara><flowPara
         style="font-size:36px;text-align:center;text-anchor:middle;fill:#ffffff"
         id="flowPara8957">12.12.–15.12.2013</flowPara><flowPara
         style="font-size:36px;text-align:center;text-anchor:middle;fill:#ffffff"
         id="flowPara8959" /><flowPara
         style="font-size:36px;text-align:center;text-anchor:middle;fill:#ffffff"
         id="flowPara8961" /><flowPara
         style="font-size:36px;text-align:center;text-anchor:middle;fill:#ffffff"
         id="flowPara8963" /><flowPara
         style="font-size:36px;text-align:center;text-anchor:middle;fill:#ffffff"
         id="flowPara8965" /></flowRoot>    <text
       xml:space="preserve"
       style="font-size:34px;font-style:normal;font-variant:normal;font-weight:bold;font-stretch:normal;text-align:center;line-height:125%;letter-spacing:0px;word-spacing:0px;text-anchor:middle;fill:#ffffff;fill-opacity:1;stroke:none;display:inline;font-family:TeX Gyre Heros;-inkscape-font-specification:TeX Gyre Heros Bold"
       x="462.09241"
       y="1373.3655"
       id="text8967"
       sodipodi:linespacing="125%"><tspan
         dx="0 1.0559282 1.0559282 1.0559282 1.0559282 1.0559282 2.1118565 2.1118565 0 0 0 1.0559282 1.0559282 0 0 0 0 0 0 0 0 0 0 1.0559282 1.0559282"
         sodipodi:role="line"
         id="tspan8969"
         x="462.09241"
         y="1373.3655"
         style="font-size:34px;text-align:center;text-anchor:middle">http://vj14.constantvzw.org</tspan></text>
    <text
       xml:space="preserve"
       style="font-size:20px;font-style:normal;font-variant:normal;font-weight:bold;font-stretch:normal;text-align:center;line-height:125%;letter-spacing:0px;word-spacing:0px;text-anchor:middle;fill:#ffffff;fill-opacity:1;stroke:none;display:inline;font-family:TeX Gyre Heros;-inkscape-font-specification:TeX Gyre Heros Bold"
       x="461.58224"
       y="1315.3655"
       id="text9201"
       sodipodi:linespacing="125%"><tspan
         sodipodi:role="line"
         id="tspan9203"
         x="461.58224"
         y="1315.3655">Brussel | Bruxelles</tspan></text>
    <g
       id="g9933"
       transform="translate(61.285569,-30.742)">
      <text
         xml:space="preserve"
         style="font-size:28px;font-style:normal;font-variant:normal;font-weight:normal;font-stretch:normal;line-height:125%;letter-spacing:0px;word-spacing:0px;fill:#ffffff;fill-opacity:1;stroke:none;display:inline;font-family:TeX Gyre Heros;-inkscape-font-specification:TeX Gyre Heros"
         x="234.77628"
         y="910.45197"
         id="text9611-3-9"
         sodipodi:linespacing="125%"><tspan
           sodipodi:role="line"
           id="tspan9613-4-9"
           x="234.77628"
           y="910.45197"
           dx="0 0 0 0 0 0 0 0 0 0 0 0 0 0 0 0 0 0 0 0"
           style="font-size:28px;font-weight:normal;fill:#ffffff;-inkscape-font-specification:TeX Gyre Heros">Are you being served</tspan><tspan
           sodipodi:role="line"
           x="234.77628"
           y="945.45197"
           id="tspan9615-4-4"
           dx="0 0 0 0 0 3.1677847 2.1118565 4.2237129 -0.43737984 0 6.3355694 3.5555971e-08 0 0 0 0 0 0 0"
           dy="-4.2237129"
           style="font-size:28px;font-weight:normal;fill:#ffffff;-inkscape-font-specification:TeX Gyre Heros">Wordt u al geholpen</tspan><tspan
           sodipodi:role="line"
           x="234.77628"
           y="980.45197"
           id="tspan9617-6-5"
           dx="0 0 1.0559282 1.0559282 0 0 0 0 0 0 0 1.5838923 0.52796412 0 1.0559282 -1.0559282 0 0 0"
           dy="-10.687387"
           style="font-size:28px;font-weight:normal;fill:#ffffff;-inkscape-font-specification:TeX Gyre Heros">On s'occupe de vous</tspan></text>
      <path
         sodipodi:nodetypes="ccccc"
         inkscape:connector-curvature="0"
         id="rect9630-8-0"
         d="m 575.99051,985.05207 -353.03446,0 0,-104.53156 353.03446,0 z"
         style="color:#000000;fill:none;stroke:#ffffff;stroke-width:2;marker:none;visibility:visible;display:inline;overflow:visible;enable-background:accumulate" />
      <text
         sodipodi:linespacing="125%"
         id="text9893-3"
         y="968.6806"
         x="510.90381"
         style="font-size:96.42729187px;font-style:normal;font-variant:normal;font-weight:normal;font-stretch:normal;line-height:125%;letter-spacing:0px;word-spacing:0px;fill:#ffffff;fill-opacity:1;stroke:none;display:inline;font-family:TeX Gyre Heros;-inkscape-font-specification:TeX Gyre Heros"
         xml:space="preserve"><tspan
           y="968.6806"
           x="510.90381"
           id="tspan9895-5"
           sodipodi:role="line">?</tspan></text>
    </g>
  </g>
  <g
     inkscape:groupmode="layer"
     id="g4728"
     layerid="element"
     inkscape:label="XX_DECKELTELLER-000"
     style="display:none">
    <path
       style="color:#000000;fill:#ff0000;fill-opacity:1;fill-rule:nonzero;stroke:none;stroke-width:1;marker:none;visibility:visible;display:inline;overflow:visible;enable-background:accumulate"
       d="m 807.08802,443.63008 c 0,186.90345 -151.52623,338.41865 -338.4433,338.41865 -186.91706,0 -338.44328,-151.5152 -338.44328,-338.41865 0,-186.90344 151.52622,-338.41863 338.44328,-338.41863 186.91707,0 338.4433,151.51519 338.4433,338.41863 z"
       id="path3861-5"
       inkscape:connector-curvature="0" />
  </g>
  <g
     style="display:none"
     inkscape:label="XX_DECKELSCHALE-000"
     layerid="element"
     id="g3782"
     inkscape:groupmode="layer">
    <path
       inkscape:connector-curvature="0"
       id="path3784"
       d="m 1363.8782,896.32002 c 0,168.31768 -137.1071,304.76608 -306.2375,304.76608 -68.45924,0 -127.46229,-19.2206 -177.34253,-54.2809 -81.4883,-57.2775 -129.38288,-147.56379 -128.89485,-250.48518 0.35652,-75.18714 28.36532,-147.3688 75.73776,-202.82147 53.24275,-62.32428 139.43365,-106.08073 230.49962,-106.79377 169.1252,-1.32424 306.2375,141.29761 306.2375,309.61524 z"
       style="color:#000000;fill:#ff0000;fill-opacity:1;fill-rule:nonzero;stroke:none;stroke-width:1;marker:none;visibility:visible;display:inline;overflow:visible;enable-background:accumulate"
       sodipodi:nodetypes="sssssss" />
  </g>
  <g
     inkscape:groupmode="layer"
     id="g3697"
     layerid="element"
     inkscape:label="XX_RAHMEN-001"
     style="display:inline"
     sodipodi:insensitive="true">
    <path
       style="color:#000000;fill:#ffffff;stroke:none;stroke-width:1;marker:none;visibility:visible;display:inline;overflow:visible;enable-background:accumulate"
       d="m -325.78125,-365.93841 0,2241.31251 1725.18745,0 0,-2241.31251 z M 10.625,10.624088 l 1052.375,0 0,1488.187512 -1052.375,0 z"
       id="rect4724-9-1"
       inkscape:connector-curvature="0"
       sodipodi:nodetypes="cccccccccc" />
    <path
       style="color:#000000;fill:none;stroke:#ff0000;stroke-width:1;stroke-miterlimit:4;stroke-dasharray:none;marker:none;visibility:visible;display:inline;overflow:visible;enable-background:accumulate"
       d="m 11.12991,11.128965 1051.36229,0 0,1487.188935 -1051.36229,0 z"
       id="rect4724-9"
       inkscape:connector-curvature="0" />
  </g>
</svg>
