<?xml version="1.0" encoding="UTF-8" standalone="no"?>
<!-- Created with Inkscape (http://www.inkscape.org/) -->
<svg
   xmlns:dc="http://purl.org/dc/elements/1.1/"
   xmlns:cc="http://creativecommons.org/ns#"
   xmlns:rdf="http://www.w3.org/1999/02/22-rdf-syntax-ns#"
   xmlns:svg="http://www.w3.org/2000/svg"
   xmlns="http://www.w3.org/2000/svg"
   xmlns:xlink="http://www.w3.org/1999/xlink"
   xmlns:sodipodi="http://sodipodi.sourceforge.net/DTD/sodipodi-0.dtd"
   xmlns:inkscape="http://www.inkscape.org/namespaces/inkscape"
   style="display:inline;enable-background:new"
   sodipodi:docname="1310251200.svg"
   inkscape:version="0.48.3.1 r9886"
   version="1.1"
   id="svg2902"
   height="1509.4487"
   width="1073.62"
   enable-background="new">
  <sodipodi:namedview
     id="base"
     pagecolor="#ffffff"
     bordercolor="#666666"
     borderopacity="1.0"
     inkscape:pageopacity="0.0"
     inkscape:pageshadow="2"
     inkscape:zoom="0.25094955"
     inkscape:cx="606.14895"
     inkscape:cy="167.18123"
     inkscape:document-units="px"
     inkscape:current-layer="g4848"
     showgrid="false"
     inkscape:window-width="1018"
     inkscape:window-height="709"
     inkscape:window-x="0"
     inkscape:window-y="1"
     inkscape:window-maximized="0"
     showguides="false"
     inkscape:guide-bbox="true"
     inkscape:snap-bbox="false"
     inkscape:snap-global="true"
     units="px">
    <sodipodi:guide
       position="10.62995,1498.8189"
       orientation="0,1052.3621"
       id="guide5547" />
    <sodipodi:guide
       position="1062.9921,1498.8189"
       orientation="1488.1889,0"
       id="guide5549" />
    <sodipodi:guide
       position="1062.9921,10.629918"
       orientation="0,-1052.3621"
       id="guide5551" />
    <sodipodi:guide
       position="10.62995,10.629918"
       orientation="-1488.1889,-8.8817842e-15"
       id="guide5553" />
    <sodipodi:guide
       position="21.259835,1488.1889"
       orientation="0,1031.1024"
       id="guide5591" />
    <sodipodi:guide
       position="1052.3622,1488.1889"
       orientation="1466.9291,0"
       id="guide5593" />
    <sodipodi:guide
       position="1052.3622,21.259818"
       orientation="0,-1031.1024"
       id="guide5595" />
    <sodipodi:guide
       position="21.259835,21.259818"
       orientation="-1466.9291,-6.750156e-14"
       id="guide5597" />
    <sodipodi:guide
       position="0,1509.4488"
       orientation="0,1073.622"
       id="guide5656" />
    <sodipodi:guide
       position="1073.622,1509.4488"
       orientation="1509.4488,0"
       id="guide5658" />
    <sodipodi:guide
       position="1073.622,1.846875e-05"
       orientation="0,-1073.622"
       id="guide5660" />
    <sodipodi:guide
       position="0,1.846875e-05"
       orientation="-1509.4488,0"
       id="guide5662" />
  </sodipodi:namedview>
  <defs
     id="defs2904">
    <clipPath
       clipPathUnits="userSpaceOnUse"
       id="clipPath18">
      <path
         inkscape:connector-curvature="0"
         d="m 0,0 2097.64,0 0,935 L 0,935 0,0 z"
         id="path20" />
    </clipPath>
    <clipPath
       clipPathUnits="userSpaceOnUse"
       id="clipPath3832">
      <path
         style="color:#000000;fill:#ff0000;fill-opacity:1;fill-rule:nonzero;stroke:none;stroke-width:1;marker:none;visibility:visible;display:inline;overflow:visible;enable-background:accumulate"
         d="m 468.65625,105.21875 c -186.91706,0 -338.46875,151.50281 -338.46875,338.40625 0,186.90345 151.55169,338.4375 338.46875,338.4375 186.91707,0 338.4375,-151.53405 338.4375,-338.4375 0,-186.90344 -151.52043,-338.40625 -338.4375,-338.40625 z m -76.3125,354.1875 c 1.582,-0.0451 3.19075,0.54108 4.4375,1.71875 L 464,524.59375 c 2.49349,2.35534 2.60534,6.25651 0.25,8.75 l -48.78125,51.625 c -2.35534,2.49349 -6.25651,2.60534 -8.75,0.25 L 339.5,521.75 c -2.49349,-2.35535 -2.57409,-6.28776 -0.21875,-8.78125 l 48.75,-51.625 c 1.17767,-1.24674 2.7305,-1.89243 4.3125,-1.9375 z"
         id="path3834"
         inkscape:connector-curvature="0" />
    </clipPath>
    <clipPath
       clipPathUnits="userSpaceOnUse"
       id="clipPath3867">
      <path
         style="color:#000000;fill:#008000;fill-opacity:1;fill-rule:nonzero;stroke:none;stroke-width:0.5;marker:none;visibility:visible;display:inline;overflow:visible;enable-background:accumulate"
         d="m 596.8125,204.28125 c -1.58205,0.0431 -3.16455,0.69221 -4.34375,1.9375 l -337.53125,356.5 c -2.35841,2.49059 -2.27184,6.39159 0.21875,8.75 l 108.3125,102.5625 c 2.49059,2.35841 6.39159,2.24059 8.75,-0.25 L 709.78125,317.3125 c 2.35841,-2.49059 2.27184,-6.39159 -0.21875,-8.75 L 601.21875,206 c -1.24529,-1.1792 -2.8242,-1.76187 -4.40625,-1.71875 z m -204.46875,255.125 c 1.582,-0.0451 3.19075,0.54108 4.4375,1.71875 L 464,524.59375 c 2.49349,2.35534 2.60534,6.25651 0.25,8.75 l -48.78125,51.625 c -2.35534,2.49349 -6.25651,2.60534 -8.75,0.25 L 339.5,521.75 c -2.49349,-2.35535 -2.57409,-6.28776 -0.21875,-8.78125 l 48.75,-51.625 c 1.17767,-1.24674 2.7305,-1.89243 4.3125,-1.9375 z"
         id="path3869"
         inkscape:connector-curvature="0" />
    </clipPath>
    <clipPath
       clipPathUnits="userSpaceOnUse"
       id="clipPath3892">
      <path
         id="path3894"
         style="color:#000000;fill:#ffff00;fill-opacity:1;fill-rule:nonzero;stroke:none;stroke-width:1;marker:none;visibility:visible;display:inline;overflow:visible;enable-background:accumulate"
         d="m 392.34375,459.40625 c 1.582,-0.0451 3.19075,0.54108 4.4375,1.71875 L 464,524.59375 c 2.49349,2.35534 2.60534,6.25651 0.25,8.75 l -48.78125,51.625 c -2.35534,2.49349 -6.25651,2.60534 -8.75,0.25 L 339.5,521.75 c -2.49349,-2.35535 -2.57409,-6.28776 -0.21875,-8.78125 l 48.75,-51.625 c 1.17767,-1.24674 2.7305,-1.89243 4.3125,-1.9375 z m 76.3125,-354.1875 c -186.91706,0 -338.46875,151.50281 -338.46875,338.40625 0,186.90345 151.55169,338.4375 338.46875,338.4375 186.91707,0 338.4375,-151.53405 338.4375,-338.4375 0,-186.90344 -151.52043,-338.40625 -338.4375,-338.40625 z m 128.15625,99.0625 c 1.58205,-0.0431 3.16096,0.53955 4.40625,1.71875 L 709.5625,308.5625 c 2.49059,2.35841 2.57716,6.25941 0.21875,8.75 l -337.5625,356.46875 c -2.35841,2.49059 -6.25941,2.60841 -8.75,0.25 l -108.3125,-102.5625 c -2.49059,-2.35841 -2.57716,-6.25941 -0.21875,-8.75 l 337.53125,-356.5 c 1.1792,-1.24529 2.7617,-1.89438 4.34375,-1.9375 z"
         inkscape:connector-curvature="0" />
    </clipPath>
    <filter
       inkscape:collect="always"
       id="filter3896">
      <feBlend
         inkscape:collect="always"
         mode="multiply"
         in2="BackgroundImage"
         id="feBlend3898" />
    </filter>
    <clipPath
       clipPathUnits="userSpaceOnUse"
       id="clipPath4844">
      <path
         style="font-size:medium;font-style:normal;font-variant:normal;font-weight:normal;font-stretch:normal;text-indent:0;text-align:start;text-decoration:none;line-height:normal;letter-spacing:normal;word-spacing:normal;text-transform:none;direction:ltr;block-progression:tb;writing-mode:lr-tb;text-anchor:start;baseline-shift:baseline;opacity:0.5;color:#000000;fill:#00ff00;fill-opacity:1;stroke:none;stroke-width:20;marker:none;visibility:visible;display:inline;overflow:visible;enable-background:accumulate;font-family:Sans;-inkscape-font-specification:Sans"
         d="m 580.1875,67.21875 c -44.97517,0.377943 -84.1325,11.74189 -102.09375,17.875 l -0.6875,-1.125 -2.75,1 -0.8125,1.59375 c -0.54238,0.195714 -1.08825,0.387519 -1.5625,0.5625 l -0.875,-1.90625 -13.21875,10.46875 -3.75,0.5 -1.25,1.75 -17.03125,8.84375 C 264.48404,123.13516 130.1875,267.68408 130.1875,443.625 c 0,186.90345 151.55169,338.4375 338.46875,338.4375 58.83191,0 114.12044,-15.06223 162.3125,-41.46875 0.62325,-0.006 1.27311,-0.0104 1.96875,-0.0313 12.43728,1.89082 96.31485,11.97579 148.3125,-50.96875 l 0.15625,-0.1875 0.15625,-0.21875 c 1.56794,-2.10104 3.07129,-4.14014 4.5625,-6.15625 15.70616,-11.15649 27.92769,-21.68662 35.03125,-31.75 0.32838,-0.46521 0.71305,-1.02581 1.0625,-1.53125 C 860.34596,621.18312 885.89382,578.84609 910,525.8125 l 0.25,-0.59375 0.21875,-0.65625 c 16.3174,-53.6895 10.375,-115.65625 10.375,-115.65625 l -0.0625,-0.5625 -0.0937,-0.53125 c 0,0 -1.86018,-8.90838 -4.8125,-21.8125 l 8,-5.28125 0.96875,-1.875 0,-2.125 1.25,-1.625 0.5,-2.75 -1,-1.625 2.625,-1 0.625,-2.25 -0.125,-2.46875 c 0,0 1.75015,-1.25077 1.875,-1.875 0.12484,-0.62423 0.625,-3 0.625,-3 l -1.375,-0.875 2.875,-1.125 0.75,-3.625 -0.25,-1.375 1.875,-1.75 8.25,-21.46875 6.96875,-24.21875 -0.71875,-0.75 12.21875,-39.71875 -32.21875,-14.46875 -8.21875,2.75 -0.75,2.75 -2.25,0 -18.5,62.90625 -0.75,2.5 c -4.43001,-14.52798 -9.26792,-28.24018 -14.375,-38.78125 -0.10839,-0.28349 -0.23468,-0.56051 -0.34375,-0.84375 l -0.5,-22.03125 -2.5,-3.5 -4,-43.6875 -5.46875,0.0625 -1.40625,1.25 -0.8125,-0.53125 -1.84375,0.78125 -1.15625,-1.125 -1.75,0.78125 -1.6875,0.28125 -1.84375,-1.25 -13.34375,0.1875 c -8.71661,-12.68449 -18.97524,-26.02394 -31.375,-40.5 -0.0434,-0.0529 -0.0816,-0.10344 -0.125,-0.15625 C 772.4299,118.82783 723.82119,104.92998 700.1875,95.03125 700.1266,95.00437 700.06088,94.99558 700,94.96875 660.15091,77.407762 620.54968,71.305575 581.3125,67.28125 l -0.5625,-0.0625 -0.5625,0 z m -0.25,20.03125 c 38.35898,3.959024 75.38366,9.856503 112.15625,26.09375 l 0.0937,0.0313 0.0937,0.0313 c 26.33713,11.0616 68.12266,22.18384 109,72.03125 l 0.0625,0.0625 0.0625,0.0937 c 13.45244,15.69452 24.18527,29.76681 33.03125,43 l 4.90625,49.15625 c -10.91804,-18.21353 -26.4843,-35.59797 -42.625,-50.15625 -5.94232,-5.35974 -13.57353,-10.21536 -22.0625,-14.65625 -11.65942,-28.00524 -30.19805,-49.90886 -47.9375,-65.71875 -18.44972,-16.44291 -35.57402,-26.23869 -45.1875,-29.84375 -16.00433,-6.00162 -46.85757,-17.536402 -82.90625,-21.65625 -4.74764,-0.542587 -9.84887,-0.756002 -15.125,-0.75 -15.82838,0.01801 -33.33355,2.187665 -48.4375,4.5625 -20.1386,3.16645 -35.875,6.84375 -35.875,6.84375 l 0.0625,0.25 c -2.79323,-0.25081 -5.59766,-0.46805 -8.40625,-0.65625 L 488.8125,102.625 c 18.08631,-5.840394 52.41507,-14.981386 91.125,-15.375 z m 61.28125,32.40625 c 14.53071,4.13858 26.68469,8.63958 35.0625,11.78125 6.3668,2.38755 23.33738,11.70079 40.46875,26.96875 12.94943,11.5409 26.24024,26.52225 36.46875,44.71875 -3.87362,-1.57885 -7.79435,-3.10416 -11.6875,-4.5625 -10.37228,-13.01313 -21.40232,-25.91155 -31.25,-35.96875 -19.96213,-20.38685 -41.51793,-32.77636 -69.0625,-42.9375 z m -50.625,8.21875 c 8.18141,0.41361 16.31683,1.57383 23.71875,3.84375 33.65094,10.31962 55.5786,20.37746 76.03125,39.34375 -29.63498,-19.95802 -63.10037,-34.70317 -99.03125,-42.90625 -0.24035,-0.0935 -0.47814,-0.1883 -0.71875,-0.28125 z m 191.6875,113.6875 c 0.35418,0.29501 0.71062,0.5858 1.03125,0.875 5.48767,4.94966 10.84338,10.37922 15.9375,16.03125 -5.93356,-6.4419 -11.76762,-12.14562 -16.96875,-16.90625 z m 15.8125,46.78125 c 4.56645,6.00704 8.82415,12.3447 12.375,18.875 10.24011,18.83238 21.33464,48.32713 29,75.8125 0.57021,2.04457 1.10031,4.09305 1.625,6.125 -0.6812,6.87019 -1.84774,14.21784 -3.65625,22.1875 -4.14903,18.28373 -7.63675,35.76538 -11.78125,50.3125 l -2.5625,-8.4375 c 1.85237,-14.46487 2.80146,-27.14688 3.375,-35.75 1.65709,-24.85636 -4.66472,-56.50938 -10.21875,-81.25 -3.11891,-13.89334 -10.40836,-31.55531 -18.15625,-47.875 z m 87.21875,57.8125 c 1.23415,4.48141 2.4325,8.9683 3.5625,13.34375 l -2.96875,14.09375 7.375,3.59375 c 0.27511,1.14919 0.54774,2.35563 0.8125,3.46875 -4.3949,11.88104 -8.13277,22.89719 -11.6875,33.84375 0.2228,-17.38298 0.0525,-33.81724 -0.40625,-47.21875 -0.28778,-8.40677 -0.60332,-15.31238 -1.09375,-20.96875 l 4.40625,-0.15625 z m -24.59375,0.875 c 0.47434,5.13246 0.98788,12.36743 1.28125,20.9375 0.2417,7.06082 0.40189,15.04866 0.46875,23.59375 -0.37589,-1.48581 -0.76022,-2.9926 -1.15625,-4.5 1.1143,-15.16955 0.13354,-28.34358 -1.53125,-40 l 0.9375,-0.0313 z m 40.75,73.59375 c 0.73688,18.65037 0.91582,61.27073 -10.03125,97.65625 -10.96234,24.05294 -22.02677,45.28448 -34.15625,63.6875 6.49375,-17.00929 12.19072,-36.08406 15.625,-56.40625 0.0433,-0.25599 0.11371,-0.49361 0.15625,-0.75 2.10003,-8.7259 3.75304,-19.2481 5.0625,-30.78125 9.6493,-29.06175 16.14198,-51.21547 23.34375,-73.40625 z m -42.375,61.8125 c -0.24177,2.61185 -0.48127,5.1918 -0.75,7.6875 -3.26501,9.79197 -6.86587,20.27448 -11,31.875 -22.70788,63.71919 -37.0025,91.94412 -59.6875,124.75 -2.18974,1.84676 -4.52425,3.66746 -7,5.46875 l 10.625,-24.1875 3,-0.25 9.96875,-21.21875 0,-2 6.5,-14.71875 -0.5,-10.75 3.25,-5.75 -8,-4.96875 0.75,-3 3,1.25 6.75,0.5 1.75,-6 -1.75,-0.5 -1,-1.25 2,-3.5 2,0 2.25,-5.5 -7.75,-3.25 1.75,-3.96875 7.96875,0.46875 1,-7.21875 L 824,535.71875 c 12.10188,-8.78987 20.97909,-22.72757 28.21875,-37.5 2.54456,-5.19215 4.82929,-10.50523 6.875,-15.78125 z m -123.5625,169.28125 2.3125,1.03125 -2,3.25 0.75,2.75 13.46875,8.25 4.28125,1.03125 c -11.92602,6.03484 -24.97371,11.42706 -38.15625,15.84375 -4.48089,1.50128 -8.98678,2.87955 -13.46875,4.15625 11.79042,-11.29309 22.74973,-23.42822 32.8125,-36.3125 z m 22.03125,13.03125 1.8125,0.65625 c -0.81014,0.43437 -1.64652,0.85283 -2.46875,1.28125 l 0.65625,-1.9375 z"
         id="path4846"
         inkscape:connector-curvature="0" />
    </clipPath>
    <clipPath
       clipPathUnits="userSpaceOnUse"
       id="clipPath4872">
      <path
         style="color:#000000;fill:#ff0000;fill-opacity:1;fill-rule:nonzero;stroke:none;stroke-width:1;marker:none;visibility:visible;display:inline;overflow:visible;enable-background:accumulate"
         d="m 886.19214,443.63006 c 0,230.58826 -186.94236,417.517 -417.54742,417.517 -230.60506,0 -417.547395,-186.92874 -417.547395,-417.517 0,-230.58825 186.942335,-417.516984 417.547395,-417.516984 230.60506,0 417.54742,186.928734 417.54742,417.516984 z"
         id="path4874"
         inkscape:connector-curvature="0" />
    </clipPath>
    <filter
       inkscape:collect="always"
       id="filter4876">
      <feBlend
         inkscape:collect="always"
         mode="multiply"
         in2="BackgroundImage"
         id="feBlend4878" />
    </filter>
  </defs>
  <metadata
     id="metadata2907">
    <rdf:RDF>
      <cc:Work
         rdf:about="">
        <dc:format>image/svg+xml</dc:format>
        <dc:type
           rdf:resource="http://purl.org/dc/dcmitype/StillImage" />
        <dc:title />
      </cc:Work>
    </rdf:RDF>
  </metadata>
  <g
     style="display:none"
     inkscape:label="XX_SHOOT-000"
     layerid="element"
     id="g4587"
     inkscape:groupmode="layer"
     sodipodi:insensitive="true">
    <image
       xlink:href="../../../i/free/jpg/IMG_6054.JPG"
       width="1091.1293"
       height="1636.6936"
       id="image4589"
       x="-11.546"
       y="-15.144903"
       clip-path="none" />
  </g>
  <g
     inkscape:groupmode="layer"
     id="g4499"
     layerid="element"
     inkscape:label="TELLER-001"
     style="display:none">
    <image
       xlink:href="../../../i/free/jpg/IMG_6021.JPG"
       y="-15.144871"
       x="-7.5459995"
       id="image4589-2"
       height="1636.6936"
       width="1091.1293"
       style="display:inline;enable-background:new"
       clip-path="url(#clipPath3832)"
       transform="matrix(0.11128388,-0.99378867,0.99378867,0.11128388,-24.3867,859.9963)" />
    <path
       style="fill:#1d1e18;fill-opacity:1;stroke:none"
       d="m 602.8357,545.56472 -10.577,-13.24453 -46.6337,39.50094 9.47523,11.86489 z"
       id="path3823"
       inkscape:connector-curvature="0"
       sodipodi:nodetypes="ccccc" />
    <path
       style="fill:#21201c;fill-opacity:1;stroke:none"
       d="m 537.97014,462.92537 -51.93191,44.18394 -9.53082,-11.36862 50.71901,-44.571 z"
       id="path3825"
       inkscape:connector-curvature="0" />
  </g>
  <g
     style="display:none"
     inkscape:label="TELLER-002"
     layerid="element"
     id="g3836"
     inkscape:groupmode="layer">
    <image
       xlink:href="../../../i/free/png/IMG_6021.png"
       clip-path="url(#clipPath3867)"
       style="display:inline;enable-background:new"
       width="1091.1293"
       height="1636.6936"
       id="image3838"
       x="-7.5459995"
       y="-15.144871" />
    <path
       sodipodi:nodetypes="ccccc"
       inkscape:connector-curvature="0"
       id="path3840"
       d="m 383.33763,590.27751 13.1177,-14.62472 -46.28388,-43.01646 -12.85546,10.56019 z"
       style="fill:#000000;fill-opacity:1;stroke:none" />
    <path
       inkscape:connector-curvature="0"
       id="path3842"
       d="m 457.18584,514.67626 -49.68868,-46.69239 10.23737,-10.73675 49.93837,45.44393 z"
       style="fill:#000000;fill-opacity:1;stroke:none" />
  </g>
  <g
     inkscape:groupmode="layer"
     id="g3852"
     layerid="element"
     inkscape:label="TELLER-002"
     style="display:none;filter:url(#filter3896)">
    <image
       xlink:href="../../../i/free/png/IMG_6021.png"
       y="-15.144871"
       x="-7.5459995"
       id="image3854"
       height="1636.6936"
       width="1091.1293"
       style="display:inline;enable-background:new"
       clip-path="url(#clipPath3892)" />
  </g>
  <g
     style="display:none"
     inkscape:label="XX_TELLER-003"
     layerid="element"
     id="g3928"
     inkscape:groupmode="layer">
    <image
       xlink:href="../../../i/free/jpg/IMG_6022.JPG"
       clip-path="none"
       style="display:inline;enable-background:new"
       width="1091.1293"
       height="1636.6936"
       id="image3930"
       x="-7.5459995"
       y="-15.144871" />
    <path
       style="opacity:0.5;fill:none;stroke:#ff0000;stroke-width:20;stroke-linecap:butt;stroke-linejoin:miter;stroke-miterlimit:4;stroke-opacity:1;stroke-dasharray:none"
       d="m 471.41828,98.190193 c 0,0 49.439,-20.474734 108.86566,-20.974118 38.95194,3.99507 77.40448,9.987675 115.85704,26.966725 24.96918,10.48706 70.27669,22.97894 112.86073,74.90756 35.95563,41.94824 53.43406,73.40942 66.41804,107.36752 17.47843,35.45625 35.45625,123.34779 35.45625,123.34779 0,0 5.49322,60.92482 -9.98768,111.86196 -24.96919,54.93222 -50.93714,96.88045 -89.88908,123.84718"
       id="path3934"
       inkscape:connector-curvature="0"
       sodipodi:nodetypes="cccccccc" />
    <path
       style="opacity:0.5;color:#000000;fill:#ff0000;fill-opacity:1;fill-rule:nonzero;stroke:none;stroke-width:1;marker:none;visibility:visible;display:inline;overflow:visible;enable-background:accumulate"
       d="m 807.08802,443.63006 c 0,186.90345 -151.52623,338.41865 -338.4433,338.41865 -186.91706,0 -338.44328,-151.5152 -338.44328,-338.41865 0,-186.90344 151.52622,-338.41863 338.44328,-338.41863 186.91707,0 338.4433,151.51519 338.4433,338.41863 z"
       id="path3861-5-9"
       inkscape:connector-curvature="0" />
    <path
       style="opacity:0.5;fill:#ff0000;stroke:none"
       d="m 431.96696,108.92694 21.22381,-10.98644 1.24846,-1.747843 3.74538,-0.499384 13.23367,-10.487059 1.49815,3.245994 1.74784,-3.495686 2.74662,-0.998768 15.2312,24.969186 3.49569,9.48829 c 0,0 -24.7195,20.47474 -26.46734,20.47474 -1.74785,0 -37.70348,-29.96303 -37.70348,-29.96303 z"
       id="path4722"
       inkscape:connector-curvature="0" />
    <path
       style="opacity:0.5;fill:none;stroke:#ff0000;stroke-width:15;stroke-linecap:butt;stroke-linejoin:miter;stroke-miterlimit:4;stroke-opacity:1;stroke-dasharray:none"
       d="m 500.88192,113.67109 c 0,0 61.92359,-14.48213 96.88045,-10.48706 34.95687,3.99507 65.16959,15.23121 81.14987,21.22381 15.98028,5.99261 68.16588,38.20285 90.13876,94.63322"
       id="path4724"
       inkscape:connector-curvature="0"
       sodipodi:nodetypes="cssc" />
    <path
       style="opacity:0.5;fill:none;stroke:#ff0000;stroke-width:20;stroke-linecap:butt;stroke-linejoin:miter;stroke-miterlimit:4;stroke-opacity:1;stroke-dasharray:none"
       d="m 530.84495,124.15815 c 0,0 48.93961,-13.48336 86.39339,-1.99754 37.45378,11.48583 62.42297,23.47104 85.89401,47.44146 23.47104,23.97042 55.93098,67.41681 65.41927,83.89648 9.4883,16.47966 32.45995,60.42543 37.95317,84.89524 5.49323,24.4698 11.48583,55.93098 9.98768,78.40325 -1.49816,22.47227 -5.99261,73.40941 -21.47351,108.36628"
       id="path4726"
       inkscape:connector-curvature="0"
       sodipodi:nodetypes="csssssc" />
    <path
       style="opacity:0.5;fill:none;stroke:#00ff00;stroke-width:20;stroke-linecap:butt;stroke-linejoin:miter;stroke-miterlimit:4;stroke-opacity:1;stroke-dasharray:none"
       d="m 683.157,190.07681 c 0,0 81.39956,21.97288 106.86813,44.94454 25.46857,22.97165 49.14986,54.27177 53.68375,80.15109 4.36451,24.91243 13.76216,53.13687 3.49568,98.3786 -7.75955,34.19435 -12.23489,67.16712 -27.71579,85.14494 -15.4809,17.97781 -27.46611,26.46734 -27.46611,26.46734"
       id="path4728"
       inkscape:connector-curvature="0"
       sodipodi:nodetypes="cssssc" />
    <path
       style="opacity:0.5;fill:none;stroke:#00ff00;stroke-width:20;stroke-linecap:butt;stroke-linejoin:miter;stroke-miterlimit:4;stroke-opacity:1;stroke-dasharray:none"
       d="m 757.0658,233.52319 c 0,0 41.24564,30.42738 62.17327,68.91497 21.7232,39.9507 44.69485,119.35272 39.70102,145.32067 -4.99384,25.96796 -21.97289,69.41435 -44.69485,82.39833"
       id="path4730"
       inkscape:connector-curvature="0"
       sodipodi:nodetypes="cssc" />
    <path
       style="opacity:0.5;fill:none;stroke:#ff0000;stroke-width:20;stroke-linecap:butt;stroke-linejoin:miter;stroke-miterlimit:4;stroke-opacity:1;stroke-dasharray:none"
       d="m 626.22725,730.41005 c 4.99384,0.99877 52.93468,-0.99877 94.88292,-20.97412 41.94823,-19.97535 79.9014,-46.94208 91.88661,-63.92112 11.98521,-16.97905 40.69978,-65.16958 50.18807,-122.34903 11.73552,-47.69115 10.48706,-167.54325 6.49199,-185.27138"
       id="path4732"
       inkscape:connector-curvature="0"
       sodipodi:nodetypes="csscc" />
    <path
       style="opacity:0.5;fill:none;stroke:#ff0000;stroke-width:20;stroke-linecap:butt;stroke-linejoin:miter;stroke-miterlimit:4;stroke-opacity:1;stroke-dasharray:none"
       d="m 632.71924,730.41005 c 0,0 88.64062,15.98028 140.82622,-47.19177 37.45379,-50.18807 53.78702,-75.23907 83.23308,-157.86586 25.24441,-70.8368 31.59401,-103.03958 52.07483,-155.30099"
       id="path4734"
       inkscape:connector-curvature="0"
       sodipodi:nodetypes="ccsc" />
    <path
       style="opacity:0.5;fill:none;stroke:#ff0000;stroke-width:25;stroke-linecap:butt;stroke-linejoin:miter;stroke-miterlimit:4;stroke-opacity:1;stroke-dasharray:none"
       d="m 637.21369,710.43469 c 42.94701,1.99754 124.09687,-21.97288 162.54941,-57.67882"
       id="path4736"
       inkscape:connector-curvature="0"
       sodipodi:nodetypes="cc" />
    <path
       style="opacity:0.5;fill:#ff0000;stroke:none"
       d="m 858.4407,347.133 27.46611,-0.99877 -1.99753,-86.1437 -2.49692,-3.49568 -3.99507,-43.69608 -5.48153,0.0902 -1.41247,1.23591 -0.79451,-0.52967 -1.85387,0.79451 -1.14763,-1.14763 -1.76559,0.79452 -1.67731,0.26483 -1.85387,-1.23591 -14.03643,0.17656 -12.80051,0.61796 -0.88279,7.41547 6.003,60.20656 z"
       id="path4738"
       inkscape:connector-curvature="0" />
    <path
       style="opacity:0.5;fill:#ff0000;stroke:none"
       d="m 885.90681,373.60034 5.49322,-26.21765 8.48953,-28.21518 18.4772,-62.92235 2.24722,0 0.74908,-2.74662 8.23983,-2.74661 32.21025,14.48213 -12.2349,39.70101 0.74908,0.74908 -6.99138,24.22011 -8.23983,21.4735 -1.87269,1.74785 0.2497,1.3733 -0.74908,3.62053 -2.87146,1.12362 1.37331,0.87392 c 0,0 -0.49939,2.37207 -0.62423,2.9963 -0.12485,0.62423 -1.87269,1.87269 -1.87269,1.87269 l 0.12485,2.49692 -0.62423,2.24723 -2.62177,0.99876 0.99877,1.623 -0.49938,2.74661 -1.24846,1.623 0,2.12238 -0.99877,1.87269 -10.36222,6.86653 -11.61067,-36.20533 -1.87269,29.08911 z"
       id="path4740"
       inkscape:connector-curvature="0" />
    <path
       style="opacity:0.5;fill:#ff0000;stroke:none"
       d="m 731.09784,649.75957 6.74168,2.9963 -1.99753,3.24599 0.74907,2.74662 13.48337,8.23983 6.24229,1.49815 1.24846,-3.74538 16.22997,5.74291 6.74169,-17.97781 10.73675,-24.46981 2.9963,-0.24969 9.98767,-21.22381 0,-1.99753 6.49199,-14.73183 -0.49938,-10.73675 3.24599,-5.74291 -7.99014,-4.99384 0.74908,-2.9963 2.9963,1.24846 6.74168,0.49938 1.74785,-5.9926 -1.74785,-0.49939 -0.99876,-1.24846 1.99753,-3.49568 1.99754,0 2.24722,-5.49322 -7.74045,-3.246 1.74785,-3.99507 7.99014,0.49939 0.99877,-7.24107 -3.49569,-10.73675 -4.99384,-24.96919 -29.96303,19.97535 z"
       id="path4742"
       inkscape:connector-curvature="0" />
    <path
       style="opacity:0.5;fill:#ff0000;stroke:none"
       d="m 819.73846,442.26561 8.73922,28.71457 -9.98768,22.47227 c 0,0 -9.2386,0 -9.48829,-2.24723 -0.24969,-2.24723 0,-32.45995 0,-32.45995 z"
       id="path4744"
       inkscape:connector-curvature="0" />
  </g>
  <g
     inkscape:groupmode="layer"
     id="g4746"
     layerid="element"
     inkscape:label="TELLER-003"
     style="display:inline">
    <image
       xlink:href="../../../i/free/png/IMG_6022.png"
       y="-15.144871"
       x="-7.5459995"
       id="image4748"
       height="1636.6936"
       width="1091.1293"
       style="display:inline;enable-background:new"
       clip-path="url(#clipPath4844)" />
  </g>
  <g
     style="display:inline;filter:url(#filter4876)"
     inkscape:label="TELLER-003"
     layerid="element"
     id="g4848"
     inkscape:groupmode="layer">
    <image
       xlink:href="../../../i/free/png/IMG_6022.png"
       clip-path="url(#clipPath4872)"
       style="display:inline;enable-background:new"
       width="1091.1293"
       height="1636.6936"
       id="image4850"
       x="-7.5459995"
       y="-15.144871" />
  </g>
  <g
     style="display:none"
     inkscape:label="XX_INFO-000"
     layerid="element"
     id="g8895"
     inkscape:groupmode="layer"
     sodipodi:insensitive="true">
    <g
       id="g8943"
       style="font-size:66.6787796px;font-style:normal;font-variant:normal;font-weight:normal;font-stretch:normal;line-height:125%;letter-spacing:0px;word-spacing:0px;fill:#ffffff;fill-opacity:1;stroke:none;font-family:TeX Gyre Heros;-inkscape-font-specification:TeX Gyre Heros" />
    <g
       id="g8945"
       style="font-size:66.6787796px;font-style:normal;font-variant:normal;font-weight:normal;font-stretch:normal;line-height:125%;letter-spacing:0px;word-spacing:0px;fill:#ffffff;fill-opacity:1;stroke:none;display:inline;font-family:TeX Gyre Heros;-inkscape-font-specification:TeX Gyre Heros" />
    <text
       transform="matrix(0,-1,1,0,0,0)"
       xml:space="preserve"
       style="font-size:8px;font-style:normal;font-variant:normal;font-weight:normal;font-stretch:normal;text-align:center;line-height:125%;letter-spacing:0px;word-spacing:0px;text-anchor:middle;fill:#ffffff;fill-opacity:1;stroke:none;display:inline;font-family:TeX Gyre Heros;-inkscape-font-specification:TeX Gyre Heros"
       x="-202.40178"
       y="1042.5942"
       id="text9189"
       sodipodi:linespacing="125%"><tspan
         sodipodi:role="line"
         x="-202.40178"
         y="1042.5942"
         id="tspan9191"
         style="font-size:8px;font-style:normal;font-variant:normal;font-weight:normal;font-stretch:normal;font-family:TeX Gyre Heros;-inkscape-font-specification:TeX Gyre Heros">Verantwoordelijke uitgever: Peter Westenberg, Constant vzw, Fortstraat 5, 1060 Saint-Gilles</tspan></text>
    <flowRoot
       transform="translate(-548.86497,450.56233)"
       style="font-size:40px;font-style:normal;font-variant:normal;font-weight:normal;font-stretch:normal;text-align:center;line-height:125%;letter-spacing:0px;word-spacing:0px;text-anchor:middle;fill:#ff0000;fill-opacity:1;stroke:none;display:inline;font-family:TeX Gyre Heros;-inkscape-font-specification:TeX Gyre Heros"
       id="flowRoot9193"
       xml:space="preserve"><flowRegion
         id="flowRegion9195"><rect
           style="font-style:normal;font-variant:normal;font-weight:normal;font-stretch:normal;text-align:center;text-anchor:middle;fill:#ff0000;font-family:TeX Gyre Heros;-inkscape-font-specification:TeX Gyre Heros"
           y="594.6825"
           x="35.102039"
           height="99.16626"
           width="248.98135"
           id="rect9197" /></flowRegion><flowPara
         style="font-size:24px;font-style:normal;font-variant:normal;font-weight:normal;font-stretch:normal;text-align:center;text-anchor:middle;fill:#ff0000;font-family:TeX Gyre Heros;-inkscape-font-specification:TeX Gyre Heros"
         id="flowPara9199" /></flowRoot>    <g
       style="fill:#ff0000;display:inline"
       id="g9487"
       transform="translate(0,200)" />
    <g
       style="fill:#00ff00;display:inline"
       id="g9489"
       transform="translate(0,200)" />
    <g
       style="fill:#0000ff;display:inline"
       id="g9491"
       transform="translate(0,200)" />
    <flowRoot
       transform="translate(-434.33647,-41.85675)"
       style="font-size:20px;font-style:normal;font-variant:normal;font-weight:normal;font-stretch:normal;text-align:justify;line-height:125%;letter-spacing:0px;word-spacing:0px;text-anchor:start;fill:#000000;fill-opacity:1;stroke:none;display:inline;font-family:TeX Gyre Heros;-inkscape-font-specification:TeX Gyre Heros"
       id="flowRoot9513"
       xml:space="preserve"><flowRegion
         id="flowRegion9515"><rect
           style="font-size:20px;font-style:normal;font-variant:normal;font-weight:normal;font-stretch:normal;text-align:justify;text-anchor:start;fill:#000000;font-family:TeX Gyre Heros;-inkscape-font-specification:TeX Gyre Heros"
           y="594.6825"
           x="35.102039"
           height="99.16626"
           width="248.98135"
           id="rect9517" /></flowRegion><flowPara
         style="font-size:20px;font-style:normal;font-variant:normal;font-weight:normal;font-stretch:normal;text-align:justify;text-anchor:start;fill:#000000;font-family:TeX Gyre Heros;-inkscape-font-specification:TeX Gyre Heros"
         id="flowPara9519" /></flowRoot>    <text
       xml:space="preserve"
       style="font-size:20px;font-style:normal;font-variant:normal;font-weight:normal;font-stretch:normal;text-align:center;line-height:125%;letter-spacing:0px;word-spacing:0px;text-anchor:middle;fill:#ffffff;fill-opacity:1;stroke:none;display:inline;font-family:TeX Gyre Heros;-inkscape-font-specification:TeX Gyre Heros"
       x="461.96927"
       y="1289.3655"
       id="text8911"
       sodipodi:linespacing="125%"><tspan
         style="font-style:normal;font-variant:normal;font-weight:normal;font-stretch:normal;fill:#ffffff;stroke:none;font-family:TeX Gyre Heros;-inkscape-font-specification:TeX Gyre Heros"
         id="tspan8913"
         sodipodi:role="line"
         x="461.96927"
         y="1289.3655">Recyclart, Constant Variable, La Poissonerie, et al.</tspan></text>
    <flowRoot
       transform="translate(-114.68103,485.45836)"
       style="font-size:40px;font-style:normal;font-variant:normal;font-weight:bold;font-stretch:normal;text-align:center;line-height:125%;letter-spacing:0px;word-spacing:0px;text-anchor:middle;fill:#ffffff;fill-opacity:1;stroke:none;display:inline;font-family:TeX Gyre Heros;-inkscape-font-specification:TeX Gyre Termes Bold"
       id="flowRoot8915"
       xml:space="preserve"><flowRegion
         id="flowRegion8917"><rect
           style="font-weight:bold;text-align:center;text-anchor:middle;fill:#ffffff;-inkscape-font-specification:TeX Gyre Termes Bold"
           y="594.6825"
           x="35.102039"
           height="803.41412"
           width="1082.6429"
           id="rect8919" /></flowRegion><flowPara
         id="flowPara8921"
         style="font-size:20px;font-style:normal;font-variant:normal;font-weight:bold;font-stretch:normal;text-align:center;text-anchor:middle;fill:#ffffff;font-family:TeX Gyre Heros;-inkscape-font-specification:TeX Gyre Heros Bold">A feminist review of experimental servertechnologies</flowPara><flowPara
         style="font-size:20px;font-style:normal;font-variant:normal;font-weight:bold;font-stretch:normal;text-align:center;text-anchor:middle;fill:#ffffff;font-family:TeX Gyre Heros;-inkscape-font-specification:TeX Gyre Heros Bold"
         id="flowPara8923">Een feministische kijk op experimentele servertechnologie </flowPara><flowPara
         style="font-size:20px;font-style:normal;font-variant:normal;font-weight:bold;font-stretch:normal;text-align:center;text-anchor:middle;fill:#ffffff;font-family:TeX Gyre Heros;-inkscape-font-specification:TeX Gyre Heros Bold"
         id="flowPara8925">Un regard feministe sur la technologie expérimentale du serveur</flowPara><flowPara
         style="font-size:20px;font-style:normal;font-variant:normal;font-weight:bold;font-stretch:normal;text-align:center;text-anchor:middle;fill:#ffffff;font-family:TeX Gyre Heros;-inkscape-font-specification:TeX Gyre Heros Bold"
         id="flowPara8927" /></flowRoot>    <flowRoot
       transform="translate(-114.06122,591.18453)"
       style="font-size:16px;font-style:normal;font-variant:normal;font-weight:normal;font-stretch:normal;text-align:center;line-height:125%;letter-spacing:0px;word-spacing:0px;text-anchor:middle;fill:#ffffff;fill-opacity:1;stroke:none;display:inline;font-family:TeX Gyre Heros;-inkscape-font-specification:TeX Gyre Heros"
       id="flowRoot8929"
       xml:space="preserve"><flowRegion
         id="flowRegion8931"><rect
           style="font-size:16px;text-align:center;text-anchor:middle;fill:#ffffff"
           y="594.6825"
           x="35.102039"
           height="803.41412"
           width="1082.6429"
           id="rect8933" /></flowRegion><flowPara
         id="flowPara8935"
         style="font-size:16px;font-style:normal;font-variant:normal;font-weight:normal;font-stretch:normal;text-align:center;text-anchor:middle;fill:#ffffff;font-family:TeX Gyre Heros;-inkscape-font-specification:TeX Gyre Heros">Lectures, screenings, portable exhibition, performances, discussions, workshops</flowPara><flowPara
         style="font-size:16px;font-style:normal;font-variant:normal;font-weight:normal;font-stretch:normal;text-align:center;text-anchor:middle;fill:#ffffff;font-family:TeX Gyre Heros;-inkscape-font-specification:TeX Gyre Heros"
         id="flowPara8937">Filmvertoningen, werksessies, draagbare expo, performances, discussies, lezingen</flowPara><flowPara
         style="font-size:16px;font-style:normal;font-variant:normal;font-weight:normal;font-stretch:normal;text-align:center;text-anchor:middle;fill:#ffffff;font-family:TeX Gyre Heros;-inkscape-font-specification:TeX Gyre Heros"
         id="flowPara8939">Sessions de travail, expo portable, films, ateliers, performances, conférences, débats.</flowPara><flowPara
         style="font-size:16px;font-style:normal;font-variant:normal;font-weight:normal;font-stretch:normal;text-align:center;text-anchor:middle;fill:#ffffff;font-family:TeX Gyre Heros;-inkscape-font-specification:TeX Gyre Heros"
         id="flowPara8941" /></flowRoot>    <flowRoot
       transform="translate(-2.20587,389.81369)"
       style="font-size:40px;font-style:normal;font-variant:normal;font-weight:normal;font-stretch:normal;line-height:125%;letter-spacing:0px;word-spacing:0px;fill:#ffffff;fill-opacity:1;stroke:none;font-family:TeX Gyre Heros;-inkscape-font-specification:TeX Gyre Heros"
       id="flowRoot8947"
       xml:space="preserve"><flowRegion
         id="flowRegion8949"><rect
           style="fill:#ffffff"
           y="594.6825"
           x="35.102039"
           height="110.32858"
           width="860.11237"
           id="rect8951" /></flowRegion><flowPara
         id="flowPara8953"
         style="font-size:36px;font-style:normal;font-variant:normal;font-weight:bold;font-stretch:normal;text-align:center;text-anchor:middle;fill:#ffffff;font-family:TeX Gyre Heros;-inkscape-font-specification:TeX Gyre Heros Bold">Verbindingen | Jonctions 14</flowPara><flowPara
         style="font-size:36px;text-align:center;text-anchor:middle;fill:#ffffff"
         id="flowPara8957">12.12.–15.12.2013</flowPara><flowPara
         style="font-size:36px;text-align:center;text-anchor:middle;fill:#ffffff"
         id="flowPara8959" /><flowPara
         style="font-size:36px;text-align:center;text-anchor:middle;fill:#ffffff"
         id="flowPara8961" /><flowPara
         style="font-size:36px;text-align:center;text-anchor:middle;fill:#ffffff"
         id="flowPara8963" /><flowPara
         style="font-size:36px;text-align:center;text-anchor:middle;fill:#ffffff"
         id="flowPara8965" /></flowRoot>    <text
       xml:space="preserve"
       style="font-size:34px;font-style:normal;font-variant:normal;font-weight:bold;font-stretch:normal;text-align:center;line-height:125%;letter-spacing:0px;word-spacing:0px;text-anchor:middle;fill:#ffffff;fill-opacity:1;stroke:none;display:inline;font-family:TeX Gyre Heros;-inkscape-font-specification:TeX Gyre Heros Bold"
       x="462.09241"
       y="1373.3655"
       id="text8967"
       sodipodi:linespacing="125%"><tspan
         dx="0 1.0559282 1.0559282 1.0559282 1.0559282 1.0559282 2.1118565 2.1118565 0 0 0 1.0559282 1.0559282 0 0 0 0 0 0 0 0 0 0 1.0559282 1.0559282"
         sodipodi:role="line"
         id="tspan8969"
         x="462.09241"
         y="1373.3655"
         style="font-size:34px;text-align:center;text-anchor:middle">http://vj14.constantvzw.org</tspan></text>
    <text
       xml:space="preserve"
       style="font-size:20px;font-style:normal;font-variant:normal;font-weight:bold;font-stretch:normal;text-align:center;line-height:125%;letter-spacing:0px;word-spacing:0px;text-anchor:middle;fill:#ffffff;fill-opacity:1;stroke:none;display:inline;font-family:TeX Gyre Heros;-inkscape-font-specification:TeX Gyre Heros Bold"
       x="461.58224"
       y="1315.3655"
       id="text9201"
       sodipodi:linespacing="125%"><tspan
         sodipodi:role="line"
         id="tspan9203"
         x="461.58224"
         y="1315.3655">Brussel | Bruxelles</tspan></text>
    <g
       id="g9933"
       transform="translate(61.285569,-30.742)">
      <text
         xml:space="preserve"
         style="font-size:28px;font-style:normal;font-variant:normal;font-weight:normal;font-stretch:normal;line-height:125%;letter-spacing:0px;word-spacing:0px;fill:#ffffff;fill-opacity:1;stroke:none;display:inline;font-family:TeX Gyre Heros;-inkscape-font-specification:TeX Gyre Heros"
         x="234.77628"
         y="910.45197"
         id="text9611-3-9"
         sodipodi:linespacing="125%"><tspan
           sodipodi:role="line"
           id="tspan9613-4-9"
           x="234.77628"
           y="910.45197"
           dx="0 0 0 0 0 0 0 0 0 0 0 0 0 0 0 0 0 0 0 0"
           style="font-size:28px;font-weight:normal;fill:#ffffff;-inkscape-font-specification:TeX Gyre Heros">Are you being served</tspan><tspan
           sodipodi:role="line"
           x="234.77628"
           y="945.45197"
           id="tspan9615-4-4"
           dx="0 0 0 0 0 3.1677847 2.1118565 4.2237129 -0.43737984 0 6.3355694 3.5555971e-08 0 0 0 0 0 0 0"
           dy="-4.2237129"
           style="font-size:28px;font-weight:normal;fill:#ffffff;-inkscape-font-specification:TeX Gyre Heros">Wordt u al geholpen</tspan><tspan
           sodipodi:role="line"
           x="234.77628"
           y="980.45197"
           id="tspan9617-6-5"
           dx="0 0 1.0559282 1.0559282 0 0 0 0 0 0 0 1.5838923 0.52796412 0 1.0559282 -1.0559282 0 0 0"
           dy="-10.687387"
           style="font-size:28px;font-weight:normal;fill:#ffffff;-inkscape-font-specification:TeX Gyre Heros">On s'occupe de vous</tspan></text>
      <path
         sodipodi:nodetypes="ccccc"
         inkscape:connector-curvature="0"
         id="rect9630-8-0"
         d="m 575.99051,985.05207 -353.03446,0 0,-104.53156 353.03446,0 z"
         style="color:#000000;fill:none;stroke:#ffffff;stroke-width:2;marker:none;visibility:visible;display:inline;overflow:visible;enable-background:accumulate" />
      <text
         sodipodi:linespacing="125%"
         id="text9893-3"
         y="968.6806"
         x="510.90381"
         style="font-size:96.42729187px;font-style:normal;font-variant:normal;font-weight:normal;font-stretch:normal;line-height:125%;letter-spacing:0px;word-spacing:0px;fill:#ffffff;fill-opacity:1;stroke:none;display:inline;font-family:TeX Gyre Heros;-inkscape-font-specification:TeX Gyre Heros"
         xml:space="preserve"><tspan
           y="968.6806"
           x="510.90381"
           id="tspan9895-5"
           sodipodi:role="line">?</tspan></text>
    </g>
  </g>
  <g
     inkscape:groupmode="layer"
     id="g4728"
     layerid="element"
     inkscape:label="XX_DECKELTELLER-000"
     style="display:none">
    <path
       style="color:#000000;fill:#ff0000;fill-opacity:1;fill-rule:nonzero;stroke:none;stroke-width:1;marker:none;visibility:visible;display:inline;overflow:visible;enable-background:accumulate"
       d="m 807.08802,443.63008 c 0,186.90345 -151.52623,338.41865 -338.4433,338.41865 -186.91706,0 -338.44328,-151.5152 -338.44328,-338.41865 0,-186.90344 151.52622,-338.41863 338.44328,-338.41863 186.91707,0 338.4433,151.51519 338.4433,338.41863 z"
       id="path3861-5"
       inkscape:connector-curvature="0" />
  </g>
  <g
     style="display:none"
     inkscape:label="XX_DECKELSCHALE-000"
     layerid="element"
     id="g3782"
     inkscape:groupmode="layer">
    <path
       inkscape:connector-curvature="0"
       id="path3784"
       d="m 1363.8782,896.32002 c 0,168.31768 -137.1071,304.76608 -306.2375,304.76608 -68.45924,0 -127.46229,-19.2206 -177.34253,-54.2809 -81.4883,-57.2775 -129.38288,-147.56379 -128.89485,-250.48518 0.35652,-75.18714 28.36532,-147.3688 75.73776,-202.82147 53.24275,-62.32428 139.43365,-106.08073 230.49962,-106.79377 169.1252,-1.32424 306.2375,141.29761 306.2375,309.61524 z"
       style="color:#000000;fill:#ff0000;fill-opacity:1;fill-rule:nonzero;stroke:none;stroke-width:1;marker:none;visibility:visible;display:inline;overflow:visible;enable-background:accumulate"
       sodipodi:nodetypes="sssssss" />
  </g>
  <g
     inkscape:groupmode="layer"
     id="g3697"
     layerid="element"
     inkscape:label="XX_RAHMEN-001"
     style="display:inline"
     sodipodi:insensitive="true">
    <path
       style="color:#000000;fill:#ffffff;stroke:none;stroke-width:1;marker:none;visibility:visible;display:inline;overflow:visible;enable-background:accumulate"
       d="m -325.78125,-365.93841 0,2241.31251 1725.18745,0 0,-2241.31251 z M 10.625,10.624088 l 1052.375,0 0,1488.187512 -1052.375,0 z"
       id="rect4724-9-1"
       inkscape:connector-curvature="0"
       sodipodi:nodetypes="cccccccccc" />
    <path
       style="color:#000000;fill:none;stroke:#ff0000;stroke-width:1;stroke-miterlimit:4;stroke-dasharray:none;marker:none;visibility:visible;display:inline;overflow:visible;enable-background:accumulate"
       d="m 11.12991,11.128965 1051.36229,0 0,1487.188935 -1051.36229,0 z"
       id="rect4724-9"
       inkscape:connector-curvature="0" />
  </g>
</svg>
