<?xml version="1.0" encoding="UTF-8" standalone="no"?>
<!-- Created with Inkscape (http://www.inkscape.org/) -->

<svg
   xmlns:dc="http://purl.org/dc/elements/1.1/"
   xmlns:cc="http://creativecommons.org/ns#"
   xmlns:rdf="http://www.w3.org/1999/02/22-rdf-syntax-ns#"
   xmlns:svg="http://www.w3.org/2000/svg"
   xmlns="http://www.w3.org/2000/svg"
   xmlns:xlink="http://www.w3.org/1999/xlink"
   xmlns:sodipodi="http://sodipodi.sourceforge.net/DTD/sodipodi-0.dtd"
   xmlns:inkscape="http://www.inkscape.org/namespaces/inkscape"
   style="display:inline;enable-background:new"
   sodipodi:docname="1310231105.svg"
   inkscape:version="0.48.3.1 r9886"
   version="1.1"
   id="svg2902"
   height="1509.4487"
   width="1073.6221"
   enable-background="new">
  <sodipodi:namedview
     id="base"
     pagecolor="#ffffff"
     bordercolor="#666666"
     borderopacity="1.0"
     inkscape:pageopacity="0.0"
     inkscape:pageshadow="2"
     inkscape:zoom="0.087485278"
     inkscape:cx="-986.0037"
     inkscape:cy="593.02071"
     inkscape:document-units="px"
     inkscape:current-layer="g3776"
     showgrid="false"
     inkscape:window-width="1018"
     inkscape:window-height="709"
     inkscape:window-x="0"
     inkscape:window-y="1"
     inkscape:window-maximized="0"
     showguides="false"
     inkscape:guide-bbox="true"
     inkscape:snap-bbox="false"
     inkscape:snap-global="true"
     units="px">
    <sodipodi:guide
       position="10.62995,1498.8189"
       orientation="0,1052.3621"
       id="guide5547" />
    <sodipodi:guide
       position="1062.9921,1498.8189"
       orientation="1488.1889,0"
       id="guide5549" />
    <sodipodi:guide
       position="1062.9921,10.629918"
       orientation="0,-1052.3621"
       id="guide5551" />
    <sodipodi:guide
       position="10.62995,10.629918"
       orientation="-1488.1889,-8.8817842e-15"
       id="guide5553" />
    <sodipodi:guide
       position="21.259835,1488.1889"
       orientation="0,1031.1024"
       id="guide5591" />
    <sodipodi:guide
       position="1052.3622,1488.1889"
       orientation="1466.9291,0"
       id="guide5593" />
    <sodipodi:guide
       position="1052.3622,21.259818"
       orientation="0,-1031.1024"
       id="guide5595" />
    <sodipodi:guide
       position="21.259835,21.259818"
       orientation="-1466.9291,-6.750156e-14"
       id="guide5597" />
    <sodipodi:guide
       position="0,1509.4488"
       orientation="0,1073.622"
       id="guide5656" />
    <sodipodi:guide
       position="1073.622,1509.4488"
       orientation="1509.4488,0"
       id="guide5658" />
    <sodipodi:guide
       position="1073.622,1.846875e-05"
       orientation="0,-1073.622"
       id="guide5660" />
    <sodipodi:guide
       position="0,1.846875e-05"
       orientation="-1509.4488,0"
       id="guide5662" />
  </sodipodi:namedview>
  <defs
     id="defs2904">
    <clipPath
       clipPathUnits="userSpaceOnUse"
       id="clipPath18">
      <path
         inkscape:connector-curvature="0"
         d="m 0,0 2097.64,0 0,935 L 0,935 0,0 z"
         id="path20" />
    </clipPath>
    <clipPath
       clipPathUnits="userSpaceOnUse"
       id="clipPath3800">
      <path
         inkscape:connector-curvature="0"
         id="path3802"
         d="m 1363.8782,896.32002 c 0,168.31768 -137.1071,304.76608 -306.2375,304.76608 -68.45924,0 -127.46229,-19.2206 -177.34253,-54.2809 -81.4883,-57.2775 -129.38288,-147.56379 -128.89485,-250.48518 0.35652,-75.18714 28.36532,-147.3688 75.73776,-202.82147 53.24275,-62.32428 139.43365,-106.08073 230.49962,-106.79377 169.1252,-1.32424 306.2375,141.29761 306.2375,309.61524 z"
         style="color:#000000;fill:#ff0000;fill-opacity:1;fill-rule:nonzero;stroke:none;stroke-width:1;marker:none;visibility:visible;display:inline;overflow:visible;enable-background:accumulate"
         sodipodi:nodetypes="sssssss" />
    </clipPath>
    <filter
       inkscape:collect="always"
       id="filter4741">
      <feBlend
         inkscape:collect="always"
         mode="screen"
         in2="BackgroundImage"
         id="feBlend4743" />
    </filter>
    <filter
       inkscape:collect="always"
       id="filter4771">
      <feBlend
         inkscape:collect="always"
         mode="multiply"
         in2="BackgroundImage"
         id="feBlend4773" />
    </filter>
    <clipPath
       clipPathUnits="userSpaceOnUse"
       id="clipPath4701-5">
      <path
         inkscape:connector-curvature="0"
         id="path4703-0"
         d="m 2065.8837,199.74768 c -2.8915,0.0171 -4.4947,0.15235 -4.4947,0.15235 0,0 -138.941,32.26933 -161.1255,174.25032 -22.1845,141.98097 -105.0497,256.09423 -105.0497,256.09423 l -31.0817,41.44227 -76.8663,41.3661 -109.4716,20.72113 -110.919,41.44229 -147.9429,75.41886 -131.564,75.41885 -137.5822,53.25028 -53.25029,29.55804 -69.47676,38.4713 -131.64017,22.1685 -96.14001,32.5292 -113.89007,2.971 -196.69846,11.808 c 0,0 -223.30108,-25.1265 -244.00665,-22.1686 19.22658,82.8222 433.32337,134.6243 443.67615,137.5823 10.35279,2.9579 -341.67026,104.9769 -341.67026,104.9769 0,0 -75.39263,16.2995 -69.47676,84.332 l 712.82243,-124.2505 351.57375,79.0754 4.1137,17.7501 c 0,0 2.2316,34.7515 2.9711,37.7094 0.7394,2.9581 -14.0173,5.9421 -14.0173,5.9421 l -18.5119,40.6805 -1.4474,62.0872 26.587,27.4251 0,15.4646 13.3317,34.8146 -9.5988,12.5698 15.5409,19.9594 16.9882,-2.9711 5.4089,9.6749 c -14.6963,11.9064 -17.0367,24.2644 -17.293,35.7288 -0.2796,12.4994 1.3713,23.7204 -8.1514,35.5001 -0.7982,0.9972 -0.6165,2.6304 0.3809,3.4282 0.9974,0.798 2.6305,0.6167 3.4282,-0.3808 10.6698,-13.1991 8.95,-26.4214 9.2178,-38.3952 0.2418,-10.8108 1.7069,-20.7699 14.8552,-31.5388 l 4.8756,8.7608 c -1.1995,2.1299 -2.1393,4.3085 -2.8187,6.4755 -2.3086,7.3638 -1.82,14.6832 -0.4571,21.4828 1.363,6.7997 3.5525,13.1619 4.8756,18.5119 1.3231,5.35 1.6322,9.4804 0.1524,12.1889 -0.6187,1.1169 -0.2028,2.7336 0.9141,3.352 1.1171,0.6184 2.7339,0.1267 3.352,-0.9904 2.5157,-4.6044 1.7903,-9.9942 0.3809,-15.6932 -1.4094,-5.699 -3.6005,-11.9221 -4.8756,-18.2834 -1.2751,-6.3613 -1.6656,-12.8364 0.3047,-19.1213 0.2943,-0.9386 0.6617,-1.8837 1.0666,-2.8187 l 30.2437,54.1645 16.9883,11.1223 16.3026,1.4475 25.1397,30.3199 2.2092,17.0644 -31.8435,-8.1512 -33.9766,11.0461 -9.5988,21.483 25.1397,-6.6278 82.8083,2.8949 0.6857,14.8552 83.5701,42.8897 17.0645,-9.6749 7.3895,8.9131 3.6567,18.512 14.0934,-20.7212 -0.7618,-14.0934 -19.9593,-10.3606 -35.5002,-9.5988 -24.3778,-19.1975 116.0993,19.1975 29.5581,15.5409 8.837,-8.837 -0.6857,-13.3316 -18.5119,-17.75 -42.1279,-10e-5 -36.262,-7.3895 42.128,-10.3605 29.6342,6.6276 5.1803,-2.2092 -20.7211,-19.9593 -23.6922,3.7328 -56.2213,-1.5236 -48.7557,-2.2092 -19.9593,-11.1224 -2.2092,-10.2844 -17.7501,-13.3316 -6.7039,-14.7791 14.0934,-8.1513 -3.7329,-16.3026 -43.6515,-65.0583 -0.6856,-16.2265 -11.1224,-10.3606 -27.3488,-56.2213 -28.8725,-4.4185 -5.1803,-7.3895 -2.8948,-47.3844 6.6277,-15.4646 31.0817,-10.3606 25.1396,-23.6922 16.2265,-17.7501 25.9014,-31.7673 28.8725,-9.675 63.6108,-1.9807 c -14.2367,16.5566 -25.2158,29.4058 -25.2158,29.4058 l 8.9132,33.2147 -2.9711,11.8842 -10.3606,11.808 -2.2092,43.6515 -1.4474,21.4068 55.4595,39.9187 82.8084,89.5122 43.5753,46.6226 11.1224,12.5698 4.4185,16.2265 -8.0752,6.6277 -34.0527,-5.8659 -14.0173,2.2092 -6.7039,-7.3895 -12.5698,2.2092 -8.1513,12.5699 0,5.1802 9.6749,8.1515 5.1803,-3.7329 14.0172,1.5235 0.7619,5.1803 42.1279,9.5989 34.7383,-2.9711 51.8029,18.5118 55.4595,2.895 11.0462,-5.8659 6.7039,-2.9711 9.5988,1.4475 9.5987,17.75 2.9711,-16.2265 -9.5988,-14.7791 17.7501,7.3897 18.4357,-7.3897 41.4423,8.837 -28.8725,-25.1396 -19.1975,-5.9421 -7.3895,-8.837 -52.4885,-1.4474 -49.5936,-1.5236 -25.1396,-12.5698 -50.2793,-45.8608 -57.6687,-72.4478 -43.6515,-58.4305 -8.0752,-39.1569 1.4475,-9.675 14.0172,-9.5987 3.7328,-22.1685 21.483,-37.7095 26.053,-65.8582 c 0,0 12.5489,-7.1443 27.3848,-11.1136 692.2135,-313.4506 340.6458,-759.65703 451.1891,-951.10887 17.1901,-28.45212 38.8366,-31.39672 50.6539,-30.83046 l 72.5239,11.80803 47.3082,16.22651 19.1976,8.91307 -20.6451,-69.47671 -23.692,-22.24478 1.192,-9.71362 -25.9342,-32.98585 -17.0049,-3.16126 c -0.3526,-0.95711 -0.733,-1.92116 -1.143,-2.89473 -27.1761,-64.7049 -109.876,-68.30306 -130.1165,-68.18172 z"
         style="fill:#ff0000;stroke:none;display:inline;enable-background:new"
         sodipodi:nodetypes="ccscccccccccccccccsccccccccccccccccccscsccccscccsscccccccccccccccccccccccccccccccccccccccccccccccccccccccccccccccccccccccccccccccccccccccccccccccccccccccccccccccccccccccc" />
    </clipPath>
    <clipPath
       clipPathUnits="userSpaceOnUse"
       id="clipPath4840">
      <path
         style="color:#000000;fill:#ff0000;fill-opacity:1;fill-rule:nonzero;stroke:none;stroke-width:1;marker:none;visibility:visible;display:inline;overflow:visible;enable-background:accumulate"
         d="m 432.61234,691.04907 c 349.48556,-58.95859 680.59846,176.58071 739.56136,526.09173 58.9629,349.511 -176.55231,680.6411 -526.03787,739.5997 C 296.65028,2015.699 -34.462614,1780.1598 -93.425493,1430.6487 -152.38838,1081.1377 83.126801,750.00765 432.61234,691.04907 z"
         id="path4842"
         inkscape:connector-curvature="0" />
    </clipPath>
    <filter
       inkscape:collect="always"
       id="filter3763">
      <feBlend
         inkscape:collect="always"
         mode="multiply"
         in2="BackgroundImage"
         id="feBlend3765" />
    </filter>
    <clipPath
       clipPathUnits="userSpaceOnUse"
       id="clipPath3769">
      <path
         sodipodi:nodetypes="ccscccccccccccccccsccccccccccccccccccscsccccscccsscccccccccccccccccccccccccccccccccccccccccccccccccccccccccccccccccccccccccccccccccccccccccccccccccccccccccccccccccccccccc"
         style="fill:#ff0000;stroke:none;display:inline;enable-background:new"
         d="m 2062.4328,204.54359 c -2.8835,0.0212 -4.4821,0.15835 -4.4821,0.15835 0,0 -138.5121,32.37723 -160.4343,173.99811 -21.9222,141.62088 -104.3971,255.5369 -104.3971,255.5369 l -30.9374,41.37208 -76.5956,41.36083 -109.1403,20.81917 -110.5543,41.48523 -147.4281,75.42057 -131.0944,75.39707 -137.127,53.29847 -53.06151,29.55203 -69.23089,38.4637 -131.24567,22.2938 -95.82882,32.5759 -113.57172,3.1239 -196.13933,12.0542 c 0,0 -222.7209,-24.7405 -243.36518,-21.7616 19.29093,82.5664 432.31902,133.6389 442.64756,136.5744 10.32849,2.9349 -340.57926,105.1712 -340.57926,105.1712 0,0 -75.16162,16.3615 -69.16565,84.1981 l 710.68058,-124.9182 350.71639,78.3591 4.1274,17.6955 c 0,0 2.2745,34.6526 3.0163,37.6012 0.7416,2.9491 -13.9702,5.9457 -13.9702,5.9457 l -18.4032,40.5945 -1.3556,61.918 26.5526,27.3117 0.022,15.422 13.3442,34.6997 -9.5544,12.5486 15.5264,19.8825 16.9371,-2.9869 5.4078,9.6404 c -14.6391,11.8946 -16.9554,24.2217 -17.1948,35.6551 -0.261,12.4651 1.4012,23.6529 -8.0785,35.4135 -0.7948,0.9958 -0.6113,2.6241 0.3852,3.4183 0.9957,0.7943 2.6242,0.6113 3.418,-0.3853 10.6219,-13.1778 8.888,-26.3613 9.138,-38.3024 0.2258,-10.7813 1.6727,-20.7152 14.7697,-31.473 l 4.8744,8.73 c -1.1929,2.1255 -2.1272,4.2995 -2.8016,6.4615 -2.2919,7.3467 -1.7943,14.6453 -0.4254,21.424 1.3686,6.7792 3.5612,13.1207 4.8884,18.4539 1.327,5.3334 1.641,9.4522 0.1701,12.1551 -0.6154,1.1148 -0.1984,2.7265 0.9163,3.3415 1.1149,0.6152 2.7264,0.1225 3.3413,-0.9924 2.5023,-4.5953 1.7713,-9.9689 0.3576,-15.6503 -1.4135,-5.6814 -3.6073,-11.8842 -4.8879,-18.2263 -1.2807,-6.3417 -1.6793,-12.7985 0.2767,-19.0688 0.2922,-0.9366 0.6571,-1.8796 1.0597,-2.8125 l 30.2371,53.9723 16.9572,11.0677 16.2596,1.4203 25.1134,30.2005 2.2272,17.0142 -31.7673,-8.0836 -33.8669,11.0639 -9.5421,21.4373 25.061,-6.6451 82.5839,2.7695 0.705,14.8131 83.4005,42.6532 17.0037,-9.6724 7.3816,8.8779 3.6729,18.456 14.0251,-20.6842 -0.7795,-14.0533 -19.9191,-10.3037 -35.4159,-9.5222 -24.3377,-19.1098 115.8064,18.98 29.4985,15.4559 8.8001,-8.825 -0.7025,-13.2937 -18.4862,-17.6751 -42.0118,0.059 -36.1724,-7.3179 41.9972,-10.3915 29.5617,6.5673 5.163,-2.2105 -20.6923,-19.8749 -23.6214,3.7562 -56.0684,-1.4398 -48.6245,-2.1339 -19.9199,-11.0637 -2.2178,-10.2528 -17.7201,-13.2696 -6.7062,-14.729 14.0428,-8.1489 -3.7456,-16.2521 -43.6234,-64.8171 -0.7068,-16.1808 -11.1064,-10.3163 -27.3531,-56.0273 -28.799,-4.3655 -5.1765,-7.3619 -2.954,-47.2494 6.5875,-15.4314 30.9815,-10.3762 25.0364,-23.6624 16.1568,-17.724 25.785,-31.7167 28.7792,-9.6892 63.4324,-2.0652 c -14.1738,16.5311 -25.1044,29.3604 -25.1044,29.3604 l 8.9356,33.1105 -2.946,11.8556 -10.3153,11.7901 -2.1413,43.5341 -1.413,21.3499 55.3631,39.73 82.7066,89.1482 43.5215,46.4323 11.1094,12.5192 4.4293,16.1754 -8.0435,6.6212 -33.9669,-5.8017 -13.9759,2.223 -6.6957,-7.3597 -12.5321,2.221 -8.1108,12.5468 0.01,5.1659 9.6598,8.1154 5.1608,-3.7302 13.9808,1.4997 0.767,5.1648 42.0253,9.5127 34.6384,-3.0128 51.686,18.3874 55.3107,2.8082 11.0074,-5.8655 6.6812,-2.9722 9.5746,1.4297 9.5974,17.6879 2.9399,-16.1862 -9.5934,-14.7247 17.7117,7.3439 18.3743,-7.3952 41.3406,8.7539 -28.8285,-25.0293 -19.1528,-5.8987 -7.3818,-8.8021 -52.3458,-1.3689 -49.4591,-1.4491 -25.0881,-12.4997 -50.2054,-45.6629 -57.6125,-72.1665 -43.6139,-58.2074 -8.1084,-39.0376 1.4297,-9.65 13.9651,-9.5923 3.691,-22.1127 21.3704,-37.636 25.8878,-65.7134 c 0,0 12.5042,-7.1423 27.2935,-11.1219 689.8603,-313.5671 338.63,-758.0447 448.5971,-949.12512 17.1024,-28.39808 38.6851,-31.36531 50.4706,-30.81727 l 72.3406,11.67274 47.2008,16.11458 19.1572,8.86144 -20.6867,-69.25604 -23.6583,-22.14975 1.1752,-9.68854 -25.9097,-32.85811 -16.9624,-3.12845 c -0.3528,-0.954 -0.7337,-1.91483 -1.1439,-2.88514 -27.1929,-64.48795 -109.6699,-67.95899 -129.8542,-67.8093 z"
         id="path3771"
         inkscape:connector-curvature="0" />
    </clipPath>
    <clipPath
       clipPathUnits="userSpaceOnUse"
       id="clipPath3875">
      <path
         style="fill:#ff0000;stroke:none;display:inline;enable-background:new"
         d="m 2051.9808,206.37295 c -26.8118,8.13343 -135.2997,48.38601 -154.4817,172.30428 -21.9222,141.62087 -104.399,255.53294 -104.399,255.53294 l -30.9359,41.43785 -76.6033,41.33971 -109.1295,20.8397 -110.5607,41.42321 -147.3895,75.4445 -131.1222,75.37203 -137.0906,53.30399 -53.05387,29.58744 -69.27076,38.4212 -131.21967,22.3212 -95.83104,32.5475 -78.96371,2.1727 c 5.03564,40.6046 13.55746,81.3209 25.79717,121.8138 11.16801,36.9473 25.01306,72.3307 41.25289,106.0484 l 202.41611,-35.5566 350.73378,78.3611 4.0924,17.7202 c 0,0 2.259,34.6206 3.0008,37.5692 0.7416,2.9491 -13.9247,5.9643 -13.9247,5.9643 l -18.4104,40.6007 -1.3647,61.9182 26.5727,27.2846 0.032,15.4369 13.2882,34.6703 -9.5399,12.5729 15.5556,19.8722 16.9242,-3.0093 5.3825,9.6772 c -14.6391,11.8946 -16.9259,24.2271 -17.1653,35.6605 -0.261,12.4651 1.3584,23.6237 -8.1213,35.3843 -0.7948,0.9958 -0.5837,2.6618 0.4128,3.456 0.9957,0.7943 2.5979,0.6033 3.3917,-0.3933 10.6219,-13.1778 8.8888,-26.3485 9.1388,-38.2896 0.2258,-10.7813 1.6758,-20.7392 14.7728,-31.497 l 4.8784,8.7061 c -1.1929,2.1255 -2.1447,4.3071 -2.8191,6.4691 -2.2919,7.3467 -1.762,14.6846 -0.3931,21.4633 1.3686,6.7792 3.5328,13.0678 4.86,18.401 1.327,5.3334 1.6378,9.4635 0.1669,12.1664 -0.6154,1.1149 -0.1679,2.7499 0.9469,3.3649 1.1149,0.6152 2.7303,0.1033 3.3453,-1.0112 2.5023,-4.5953 1.7482,-9.9366 0.3345,-15.618 -1.4135,-5.6814 -3.6054,-11.9106 -4.8854,-18.2529 -1.2807,-6.3417 -1.6737,-12.7723 0.2823,-19.0426 0.2922,-0.9366 0.6344,-1.9081 1.0369,-2.841 l 30.2846,53.9665 16.9729,11.0886 16.2253,1.4147 2.9622,3.528 c 17.5189,-0.3909 35.0912,-1.3983 52.7098,-3.0837 l -5.5384,-4.1535 -6.7063,-14.7536 14.049,-8.1082 -3.729,-16.2855 -43.6069,-64.8245 -0.7547,-16.2015 -11.1067,-10.264 -27.3341,-56.052 -28.7716,-4.3627 -5.1717,-7.3536 -2.9823,-47.2641 6.5792,-15.3991 30.9747,-10.4159 25.0762,-23.6583 16.1276,-17.7236 25.7932,-31.7388 28.7424,-9.6709 63.4819,-2.0569 c -14.1738,16.5311 -25.1094,29.3555 -25.1094,29.3555 l 8.8882,33.1216 -2.9495,11.8446 -10.2624,11.8083 -2.1433,43.5474 -1.4104,21.3495 55.3288,39.7263 82.7007,89.167 27.349,29.1563 c 11.7094,-4.7836 23.1532,-9.937 34.4923,-15.2706 l -55.2614,-69.2358 -43.6447,-58.2132 -8.083,-39.0521 1.4413,-9.6334 13.9428,-9.6208 3.707,-22.1139 21.3456,-37.6263 25.9222,-65.6901 c 0,0 12.4631,-7.1367 27.2524,-11.1163 689.8602,-313.5671 338.6096,-758.0571 448.5767,-949.13751 17.1024,-28.39809 38.7101,-31.39834 50.4956,-30.8503 l 72.3427,11.69445 47.2136,16.13062 19.1828,8.87597 -20.7311,-69.28181 -23.6779,-22.12134 1.2094,-9.70375 -25.947,-32.88004 -16.9433,-3.09336 c -0.3529,-0.95399 -0.7416,-1.91129 -1.1519,-2.88159 -27.1929,-64.48795 -109.6392,-67.98148 -129.8236,-67.83179 -2.8834,0.0212 -4.5123,0.17032 -4.5123,0.17032 0,0 -2.1273,0.49846 -5.9576,1.66038 z"
         id="path3877"
         inkscape:connector-curvature="0" />
    </clipPath>
  </defs>
  <metadata
     id="metadata2907">
    <rdf:RDF>
      <cc:Work
         rdf:about="">
        <dc:format>image/svg+xml</dc:format>
        <dc:type
           rdf:resource="http://purl.org/dc/dcmitype/StillImage" />
        <dc:title />
      </cc:Work>
    </rdf:RDF>
  </metadata>
  <g
     style="display:none"
     inkscape:label="XX_SHOOT-000"
     layerid="element"
     id="g4587"
     inkscape:groupmode="layer"
     sodipodi:insensitive="true">
    <image
       
       xlink:href="../../../i/free/jpg/IMG_6054.JPG"
       width="1091.1293"
       height="1636.6936"
       id="image4589"
       x="-11.546"
       y="-15.144903" />
  </g>
  <g
     style="display:none"
     inkscape:label="XX_TELLER-000"
     layerid="element"
     id="g4643"
     inkscape:groupmode="layer">
    <image
       
       xlink:href="../../../i/free/png/Pigeon_Messengers_Harpers_Engraving_MOD.png"
       width="2417"
       height="1904"
       id="image4645"
       x="0"
       y="0"
       clip-path="url(#clipPath3769)" />
  </g>
  <g
     inkscape:groupmode="layer"
     id="g4499"
     layerid="element"
     inkscape:label="TELLER-001"
     style="display:none;filter:url(#filter3763)">
    <image
       
       xlink:href="../../../i/free/png/Pigeon_Messengers_Harpers_Engraving_MOD.png"
       transform="matrix(0.44508035,0.13453376,-0.13453376,0.44508035,7.4052877,-191.06949)"
       style="display:inline;enable-background:new"
       clip-path="url(#clipPath3875)"
       y="0"
       x="0"
       id="image4645-5"
       height="1904"
       width="2417" />
  </g>
  <g
     inkscape:groupmode="layer"
     id="g4733"
     layerid="element"
     inkscape:label="TELLER-002"
     style="display:none;filter:url(#filter4741)">
    <image
       
       xlink:href="../../../i/free/png/Pigeon_Messengers_Harpers_Engraving_MOD.png"
       style="display:inline;filter:url(#filter4771);enable-background:new"
       clip-path="url(#clipPath4701-5)"
       y="0"
       x="0"
       id="image4758-0"
       height="1904"
       width="2417"
       transform="matrix(-0.08772401,0.51999678,-0.51999678,-0.08772401,1204.3818,279.29461)" />
  </g>
  <g
     style="display:none;filter:url(#filter4771)"
     inkscape:label="TELLER-002"
     layerid="element"
     id="g4756"
     inkscape:groupmode="layer">
    <image
       
       xlink:href="../../../i/free/png/Pigeon_Messengers_Harpers_Engraving_MOD.png"
       transform="matrix(-0.08772401,0.51999678,-0.51999678,-0.08772401,1204.3818,279.29463)"
       width="2417"
       height="1904"
       id="image4758"
       x="0"
       y="0"
       clip-path="url(#clipPath4840)" />
  </g>
  <g
     style="display:inline"
     inkscape:label="SCHALE-001"
     layerid="element"
     id="g3776"
     inkscape:groupmode="layer">
    <image
       
       xlink:href="../../../i/free/jpg/IMG_6015.JPG"
       width="1091.1293"
       height="1636.6936"
       id="image3778"
       x="-6.8699117"
       y="-16.55913"
       clip-path="url(#clipPath3800)" />
  </g>
  <g
     style="display:none"
     inkscape:label="XX_INFO-000"
     layerid="element"
     id="g8895"
     inkscape:groupmode="layer">
    <g
       id="g8943"
       style="font-size:66.6787796px;font-style:normal;font-variant:normal;font-weight:normal;font-stretch:normal;line-height:125%;letter-spacing:0px;word-spacing:0px;fill:#ffffff;fill-opacity:1;stroke:none;font-family:TeX Gyre Heros;-inkscape-font-specification:TeX Gyre Heros" />
    <g
       id="g8945"
       style="font-size:66.6787796px;font-style:normal;font-variant:normal;font-weight:normal;font-stretch:normal;line-height:125%;letter-spacing:0px;word-spacing:0px;fill:#ffffff;fill-opacity:1;stroke:none;display:inline;font-family:TeX Gyre Heros;-inkscape-font-specification:TeX Gyre Heros" />
    <g
       id="g8971"
       transform="matrix(0.33716656,0,0,0.33716656,667.8505,959.6203)"
       style="display:inline">
      <g
         style="fill:#ffffff"
         transform="matrix(2.7025095,0,0,-2.7025095,801.45846,1523.6393)"
         id="g8973">
        <path
           inkscape:connector-curvature="0"
           id="path8975"
           style="fill:#ffffff;fill-opacity:1;fill-rule:nonzero;stroke:none"
           d="m 0,0 0,0.884 c -0.651,0 -1.104,-0.267 -1.104,-0.96 C -0.922,0.038 0,0 0,0" />
      </g>
      <g
         style="fill:#ffffff"
         transform="matrix(2.7025095,0,0,-2.7025095,807.63424,1530.0736)"
         id="g8977">
        <path
           inkscape:connector-curvature="0"
           id="path8979"
           style="fill:#ffffff;fill-opacity:1;fill-rule:nonzero;stroke:none"
           d="M 0,0 -0.666,0.666 C -1.144,0.188 -1.228,-0.331 -0.728,-0.836 -0.681,-0.625 0,0 0,0" />
      </g>
      <g
         style="fill:#ffffff"
         transform="matrix(2.7025095,0,0,-2.7025095,809.89868,1532.3537)"
         id="g8981">
        <path
           inkscape:connector-curvature="0"
           id="path8983"
           style="fill:#ffffff;fill-opacity:1;fill-rule:nonzero;stroke:none"
           d="M 0,0 -0.569,0.571 C -1.031,0.108 -1.227,-0.332 -0.726,-0.835 -0.68,-0.625 0,0 0,0" />
      </g>
      <g
         style="fill:#ffffff"
         transform="matrix(2.7025095,0,0,-2.7025095,802.07085,1526.9647)"
         id="g8985">
        <path
           inkscape:connector-curvature="0"
           id="path8987"
           style="fill:#ffffff;fill-opacity:1;fill-rule:nonzero;stroke:none"
           d="m 0,0 0,0.884 2.171,0 L 1.279,-0.006 0,0 z" />
      </g>
      <g
         style="fill:#ffffff"
         transform="matrix(2.7025095,0,0,-2.7025095,801.43224,1526.9647)"
         id="g8989">
        <path
           inkscape:connector-curvature="0"
           id="path8991"
           style="fill:#ffffff;fill-opacity:1;fill-rule:nonzero;stroke:none"
           d="m 0,0 0,0.884 c -0.652,0 -1.105,-0.267 -1.105,-0.961 C -0.924,0.039 0,0 0,0" />
      </g>
      <g
         style="fill:#ffffff"
         transform="matrix(2.7025095,0,0,-2.7025095,844.40841,1528.3265)"
         id="g8993">
        <path
           inkscape:connector-curvature="0"
           id="path8995"
           style="fill:#ffffff;fill-opacity:1;fill-rule:nonzero;stroke:none"
           d="m 0,0 0,0.883 2.339,0 -0.89,-0.89 L 0,0 z" />
      </g>
      <g
         style="fill:#ffffff"
         transform="matrix(2.7025095,0,0,-2.7025095,843.76431,1528.3265)"
         id="g8997">
        <path
           inkscape:connector-curvature="0"
           id="path8999"
           style="fill:#ffffff;fill-opacity:1;fill-rule:nonzero;stroke:none"
           d="m 0,0 0,0.883 c -0.652,0 -1.105,-0.266 -1.105,-0.96 C -0.923,0.038 0,0 0,0" />
      </g>
      <g
         style="fill:#ffffff"
         transform="matrix(2.7025095,0,0,-2.7025095,843.78551,1525.1754)"
         id="g9001">
        <path
           inkscape:connector-curvature="0"
           id="path9003"
           style="fill:#ffffff;fill-opacity:1;fill-rule:nonzero;stroke:none"
           d="m 0,0 0,0.883 c -0.651,0 -1.104,-0.266 -1.104,-0.961 C -0.922,0.038 0,0 0,0" />
      </g>
      <g
         style="fill:#ffffff"
         transform="matrix(2.7025095,0,0,-2.7025095,812.9944,1529.2501)"
         id="g9005">
        <path
           inkscape:connector-curvature="0"
           id="path9007"
           style="fill:#ffffff;fill-opacity:1;fill-rule:nonzero;stroke:none"
           d="m 0,0 -0.965,-0.966 -0.565,0.567 1.456,1.455 C 0.324,0.657 0.384,0.383 0,0" />
      </g>
      <g
         style="fill:#ffffff"
         transform="matrix(2.7025095,0,0,-2.7025095,852.71911,1533.6152)"
         id="g9009">
        <path
           inkscape:connector-curvature="0"
           id="path9011"
           style="fill:#ffffff;fill-opacity:1;fill-rule:nonzero;stroke:none"
           d="M 0,0 -0.571,0.571 C -1.033,0.107 -1.228,-0.332 -0.726,-0.836 -0.681,-0.625 0,0 0,0" />
      </g>
      <g
         style="fill:#ffffff"
         transform="matrix(2.7025095,0,0,-2.7025095,850.32021,1531.2191)"
         id="g9013">
        <path
           inkscape:connector-curvature="0"
           id="path9015"
           style="fill:#ffffff;fill-opacity:1;fill-rule:nonzero;stroke:none"
           d="M 0,0 -0.57,0.571 C -1.033,0.107 -1.227,-0.332 -0.727,-0.836 -0.68,-0.626 0,0 0,0" />
      </g>
      <g
         style="fill:#ffffff"
         transform="matrix(2.7025095,0,0,-2.7025095,855.81491,1530.5145)"
         id="g9017">
        <path
           inkscape:connector-curvature="0"
           id="path9019"
           style="fill:#ffffff;fill-opacity:1;fill-rule:nonzero;stroke:none"
           d="m 0,0 -0.965,-0.965 -0.564,0.567 1.455,1.455 C 0.323,0.659 0.383,0.385 0,0" />
      </g>
      <g
         style="fill:#ffffff"
         transform="matrix(2.7025095,0,0,-2.7025095,797.70576,1460.4708)"
         id="g9021">
        <path
           inkscape:connector-curvature="0"
           id="path9023"
           style="fill:#ffffff;fill-opacity:1;fill-rule:nonzero;stroke:none"
           d="m 0,0 0,-1.034 -0.76,0 0,-0.758 1.518,0 L 0.758,0 0,0 z" />
      </g>
      <g
         style="fill:#ffffff"
         transform="matrix(2.7025095,0,0,-2.7025095,792.2321,1465.5325)"
         id="g9025">
        <path
           inkscape:connector-curvature="0"
           id="path9027"
           style="fill:#ffffff;fill-opacity:1;fill-rule:nonzero;stroke:none"
           d="m 0,0 c 0,0.61 0.367,0.842 1.019,0.842 l 0,-0.761 C 0.769,0.081 0.162,0.095 0,0" />
      </g>
      <g
         style="fill:#ffffff"
         transform="matrix(2.7025095,0,0,-2.7025095,797.50495,1457.0583)"
         id="g9029">
        <path
           inkscape:connector-curvature="0"
           id="path9031"
           style="fill:#ffffff;fill-opacity:1;fill-rule:nonzero;stroke:none"
           d="m 0,0 c 0.611,0 0.842,-0.368 0.842,-1.02 l -0.762,0 C 0.08,-0.77 0.094,-0.162 0,0" />
      </g>
      <g
         style="fill:#ffffff"
         transform="matrix(2.7025095,0,0,-2.7025095,792.20561,1469.0324)"
         id="g9033">
        <path
           inkscape:connector-curvature="0"
           id="path9035"
           style="fill:#ffffff;fill-opacity:1;fill-rule:nonzero;stroke:none"
           d="M 0,0 C 0,0.611 0.232,0.919 1.028,0.919 L 1.026,0.07 C 0.777,0.07 0.162,0.095 0,0" />
      </g>
      <g
         style="fill:#ffffff"
         transform="matrix(2.7025095,0,0,-2.7025095,800.80662,1457.0082)"
         id="g9037">
        <path
           inkscape:connector-curvature="0"
           id="path9039"
           style="fill:#ffffff;fill-opacity:1;fill-rule:nonzero;stroke:none"
           d="m 0,0 c 0.61,0 0.919,-0.231 0.919,-1.027 l -0.85,0 C 0.069,-0.776 0.094,-0.162 0,0" />
      </g>
      <g
         style="fill:#ffffff"
         transform="matrix(2.7025095,0,0,-2.7025095,792.51694,1489.4701)"
         id="g9041">
        <path
           inkscape:connector-curvature="0"
           id="path9043"
           style="fill:#ffffff;fill-opacity:1;fill-rule:nonzero;stroke:none"
           d="M 0,0 C 0,0 0.445,-0.444 0.732,-0.732 0.494,-0.97 0.195,-1.269 0.195,-1.269 L 0.73,-1.804 1.803,-0.732 0.536,0.536 0,0" />
      </g>
      <g
         style="fill:#ffffff"
         transform="matrix(2.7025095,0,0,-2.7025095,792.22157,1496.9203)"
         id="g9045">
        <path
           inkscape:connector-curvature="0"
           id="path9047"
           style="fill:#ffffff;fill-opacity:1;fill-rule:nonzero;stroke:none"
           d="M 0,0 C -0.432,0.432 -0.334,0.854 0.127,1.314 L 0.664,0.777 C 0.486,0.601 0.049,0.182 0,0" />
      </g>
      <g
         style="fill:#ffffff"
         transform="matrix(2.7025095,0,0,-2.7025095,789.96225,1487.2002)"
         id="g9049">
        <path
           inkscape:connector-curvature="0"
           id="path9051"
           style="fill:#ffffff;fill-opacity:1;fill-rule:nonzero;stroke:none"
           d="M 0,0 C 0.433,0.432 0.855,0.334 1.315,-0.126 L 0.777,-0.663 C 0.602,-0.486 0.182,-0.048 0,0" />
      </g>
      <g
         style="fill:#ffffff"
         transform="matrix(2.7025095,0,0,-2.7025095,794.68111,1499.4118)"
         id="g9053">
        <path
           inkscape:connector-curvature="0"
           id="path9055"
           style="fill:#ffffff;fill-opacity:1;fill-rule:nonzero;stroke:none"
           d="m 0,0 c -0.433,0.433 -0.486,0.813 0.076,1.376 l 0.6,-0.6 C 0.5,0.6 0.047,0.182 0,0" />
      </g>
      <g
         style="fill:#ffffff"
         transform="matrix(2.7025095,0,0,-2.7025095,792.261,1484.8278)"
         id="g9057">
        <path
           inkscape:connector-curvature="0"
           id="path9059"
           style="fill:#ffffff;fill-opacity:1;fill-rule:nonzero;stroke:none"
           d="m 0,0 c 0.432,0.433 0.813,0.485 1.376,-0.078 l -0.6,-0.599 C 0.601,-0.5 0.182,-0.049 0,0" />
      </g>
      <g
         style="fill:#ffffff"
         transform="matrix(2.7025095,0,0,-2.7025095,827.95301,1460.7982)"
         id="g9061">
        <path
           inkscape:connector-curvature="0"
           id="path9063"
           style="fill:#ffffff;fill-opacity:1;fill-rule:nonzero;stroke:none"
           d="m 0,0 0.334,-0.274 c 0,0 -4.228,-1.487 -5.948,1.078 0.683,0.439 1.472,0.91 2.351,-0.183 C -2.382,-0.472 -2.063,-0.335 0,0" />
      </g>
      <g
         style="fill:#ffffff"
         transform="matrix(2.7025095,0,0,-2.7025095,845.14751,1463.6325)"
         id="g9065">
        <path
           inkscape:connector-curvature="0"
           id="path9067"
           style="fill:#ffffff;fill-opacity:1;fill-rule:nonzero;stroke:none"
           d="m 0,0 2.326,-1.957 c 0,0 0.035,-0.308 -0.158,-0.5 -0.193,-0.192 -0.539,-0.211 -0.539,-0.211 0,0 -1.168,0.987 -1.286,1.089 C -0.351,-0.991 -0.166,-0.298 0,0" />
      </g>
      <g
         style="fill:#ffffff"
         transform="matrix(2.7025095,0,0,-2.7025095,831.48171,1454.1342)"
         id="g9069">
        <path
           inkscape:connector-curvature="0"
           id="path9071"
           style="fill:#ffffff;fill-opacity:1;fill-rule:nonzero;stroke:none"
           d="M 0,0 0,-0.613 0.844,-0.02 0,0 z m 0.008,-4.061 c 1.285,-1.464 -0.449,-2.403 -0.181,-3.958 l 0.461,0.498 c 0.076,1.458 1.244,1.956 -0.061,3.702 0.22,0.19 0.291,0.634 0.233,0.769 0.729,-0.135 1.458,-0.959 1.458,-1.745 0,-0.787 -0.191,-0.998 -0.46,-1.632 0.308,0.193 0.845,0.711 0.845,1.573 0,1.862 -1.535,2.207 -2.188,2.207 0.268,-1.65 -1.996,-1.785 -2.628,-1.785 -0.059,0.288 0.038,0.807 0.134,1.114 0,0 0.191,-0.25 0.287,-0.384 1.118,0.263 1.485,0.382 1.485,1.179 0,0.677 -0.061,0.683 -0.487,0.719 -0.267,0.024 -0.844,0.038 -1.15,0 0,0 -0.115,-0.344 -0.289,-0.671 -0.076,0.192 -0.23,0.941 -0.269,1.785 -0.037,0.843 0.308,0.825 0.576,0.881 0.269,0.059 1.247,0.173 1.919,0.27 0,0 0.231,0.307 0.268,0.402 1.42,0 3.301,-0.173 3.913,-0.287 C 3.76,0.191 3.684,0.058 3.318,-0.346 c 0.02,-0.402 0.231,-0.478 0.231,-3.587 0,-3.107 -3.166,-3.97 -4.086,-6.234 -1.938,3.778 1.055,3.952 -0.346,5.64 0,0 0.7,0.237 0.891,0.466" />
      </g>
      <g
         style="fill:#ffffff"
         transform="matrix(2.7025095,0,0,-2.7025095,850.84011,1505.524)"
         id="g9073">
        <path
           inkscape:connector-curvature="0"
           id="path9075"
           style="fill:#ffffff;fill-opacity:1;fill-rule:nonzero;stroke:none"
           d="m 0,0 -3.642,3.643 c 1.295,0.068 2.829,0.611 2.829,1.913 0,1.371 -0.586,1.625 -1.411,2.114 0.02,0.178 0.177,0.294 0.412,0.393 0.235,0.098 1.724,0.705 2.723,1.096 0.999,0.393 0.822,1.117 0.725,1.489 C 1.576,10.473 1.185,10.256 0.872,10.14 0.558,10.021 -2.185,8.904 -2.537,8.768 -2.89,8.63 -2.968,8.454 -3.104,8.102 c 0,0 -0.247,0.127 -0.334,0.215 0,0.431 0.451,0.686 0.826,0.824 0.375,0.136 2.481,1.008 3.601,1.428 0.783,0.294 0.823,1 0.608,1.627 C 1.519,11.98 1.048,11.589 0.716,11.451 0.415,11.328 -1.851,10.394 -2.831,10.062 -3.812,9.728 -3.927,9.335 -4.104,8.768 c -0.588,0.802 0.333,1.372 0.785,1.528 0.449,0.156 1.644,0.588 3.348,1.273 1.704,0.686 1.665,1.626 1.665,2.351 l 0,2.548 c 0,1.056 -0.802,2.174 -1.963,2.174 -1.289,0 -1.974,-0.981 -1.974,-1.704 0,-0.882 0.588,-1.299 0.588,-1.299 l 1.939,-1.68 0,1.254 c -0.898,0.899 -1.508,1.098 -1.508,1.743 0,0.255 0.294,0.727 0.862,0.727 0.821,0 1.078,-0.805 1.078,-1.06 0,-0.333 -0.021,-2.135 -0.021,-2.977 0,-0.842 -0.645,-1.058 -0.964,-1.195 -0.316,-0.138 -2.856,-1.156 -3.306,-1.351 -0.451,-0.197 -1.724,-0.452 -1.724,-1.784 0,-2.213 3.566,-1.94 3.428,-3.682 C -1.958,4.532 -3.44,4.445 -4.407,4.408 L -6.666,6.666 C -7.509,7.47 -8.267,8.889 -8.545,9.754 -8.813,9.486 -11.028,7.27 -11.028,7.27 l 8.179,-8.188 3.498,-0.007 0,-6.562 -1.242,-1.25 0.597,-0.593 1.57,1.58 0,7.757 L 0,0 z m 0.22,-1.357 -3.269,0.003 -4.223,4.205 -3.439,-3.431 c -0.431,-0.414 -0.69,-0.664 -0.69,-1.365 0,-0.397 0.005,-1.676 0.011,-2.579 l -1.372,0 -3.709,-3.71 0.674,-0.673 c 0,0 3.172,3.172 3.429,3.429 l 1.908,0.006 c 0,0.03 -0.016,2.899 -0.016,3.527 0,0.307 0.023,0.33 0.407,0.697 l 2.795,2.788 3.836,-3.815 2.733,-0.004 0,-4.098 -1.676,0 0,-0.925 2.603,0 -0.002,5.945 z m -18.722,16.067 7.161,-7.133 0.653,0.655 -0.004,0.005 c 1.072,1.075 0.733,1.225 0.466,2.308 -0.259,1.06 0.231,1.96 0.442,2.15 l 0.409,0.031 c -1.05,-1.76 -0.12,-2.391 -0.17,-3.41 l 0.86,0.86 c -0.509,2.5 1.129,2.939 0.459,3.829 -0.159,-0.181 -0.529,-0.17 -2.119,-0.329 -2.095,-0.212 -2.4,-1.421 -2.4,-1.881 0,-0.409 0.045,-0.755 0.09,-0.949 l 1.179,-1.181 c -0.597,2.681 0.522,2.851 0.881,2.94 -0.631,-0.66 -0.75,-1.24 -0.631,-1.98 0.223,-1.363 0.212,-1.318 -0.189,-1.668 l -6.162,6.139 0,1.559 -0.926,0 0,-1.945 0.003,0 -0.002,0 z m 6.149,-8.088 c 0.354,-0.352 1.89,-1.889 2.978,-2.976 -0.912,-0.321 -1.849,-0.836 -2.741,-1.361 -1.649,-0.966 -1.66,-2.197 -1.66,-2.821 l 0,-3.119 -2.127,-2.164 -2.131,0 0,-0.885 2.51,0.01 2.596,2.639 1.068,0 0,1.887 c 0,1.036 0.063,1.156 0.822,1.915 l 3.432,3.443 c 0.003,0.002 0,0 0,0 l -4.747,4.742 -2.978,-2.98 -4.031,0 -0.002,0.002 0,-0.002 -0.004,0 0,-0.002 -1.149,-1.149 0.594,-0.595 0.791,0.79 4.141,10e-4 2.638,2.625 z m -0.335,1.665 -6.155,6.128 -0.005,-0.006 0,0.004 -1.574,0 0,-0.841 1.114,0 5.35,-5.328 -1.916,-1.918 -3.147,0 -1.076,1.076 -0.654,-0.654 1.375,-1.375 0.002,0.002 0,-0.005 3.837,0.001 2.849,2.916" />
      </g>
    </g>
    <text
       transform="matrix(0,-1,1,0,0,0)"
       xml:space="preserve"
       style="font-size:8px;font-style:normal;font-variant:normal;font-weight:normal;font-stretch:normal;text-align:center;line-height:125%;letter-spacing:0px;word-spacing:0px;text-anchor:middle;fill:#ffffff;fill-opacity:1;stroke:none;display:inline;font-family:TeX Gyre Heros;-inkscape-font-specification:TeX Gyre Heros"
       x="-202.40178"
       y="1042.5942"
       id="text9189"
       sodipodi:linespacing="125%"><tspan
         sodipodi:role="line"
         x="-202.40178"
         y="1042.5942"
         id="tspan9191"
         style="font-size:8px;font-style:normal;font-variant:normal;font-weight:normal;font-stretch:normal;font-family:TeX Gyre Heros;-inkscape-font-specification:TeX Gyre Heros">Verantwoordelijke uitgever: Peter Westenberg, Constant vzw, Fortstraat 5, 1060 Saint-Gilles</tspan></text>
    <flowRoot
       transform="translate(-548.86497,450.56233)"
       style="font-size:40px;font-style:normal;font-variant:normal;font-weight:normal;font-stretch:normal;text-align:center;line-height:125%;letter-spacing:0px;word-spacing:0px;text-anchor:middle;fill:#ff0000;fill-opacity:1;stroke:none;display:inline;font-family:TeX Gyre Heros;-inkscape-font-specification:TeX Gyre Heros"
       id="flowRoot9193"
       xml:space="preserve"><flowRegion
         id="flowRegion9195"><rect
           style="font-style:normal;font-variant:normal;font-weight:normal;font-stretch:normal;text-align:center;text-anchor:middle;fill:#ff0000;font-family:TeX Gyre Heros;-inkscape-font-specification:TeX Gyre Heros"
           y="594.6825"
           x="35.102039"
           height="99.16626"
           width="248.98135"
           id="rect9197" /></flowRegion><flowPara
         style="font-size:24px;font-style:normal;font-variant:normal;font-weight:normal;font-stretch:normal;text-align:center;text-anchor:middle;fill:#ff0000;font-family:TeX Gyre Heros;-inkscape-font-specification:TeX Gyre Heros"
         id="flowPara9199" /></flowRoot>    <g
       style="fill:#ff0000;display:inline"
       id="g9487"
       transform="translate(0,200)" />
    <g
       style="fill:#00ff00;display:inline"
       id="g9489"
       transform="translate(0,200)" />
    <g
       style="fill:#0000ff;display:inline"
       id="g9491"
       transform="translate(0,200)" />
    <flowRoot
       transform="translate(-434.33647,-41.85675)"
       style="font-size:20px;font-style:normal;font-variant:normal;font-weight:normal;font-stretch:normal;text-align:justify;line-height:125%;letter-spacing:0px;word-spacing:0px;text-anchor:start;fill:#000000;fill-opacity:1;stroke:none;display:inline;font-family:TeX Gyre Heros;-inkscape-font-specification:TeX Gyre Heros"
       id="flowRoot9513"
       xml:space="preserve"><flowRegion
         id="flowRegion9515"><rect
           style="font-size:20px;font-style:normal;font-variant:normal;font-weight:normal;font-stretch:normal;text-align:justify;text-anchor:start;fill:#000000;font-family:TeX Gyre Heros;-inkscape-font-specification:TeX Gyre Heros"
           y="594.6825"
           x="35.102039"
           height="99.16626"
           width="248.98135"
           id="rect9517" /></flowRegion><flowPara
         style="font-size:20px;font-style:normal;font-variant:normal;font-weight:normal;font-stretch:normal;text-align:justify;text-anchor:start;fill:#000000;font-family:TeX Gyre Heros;-inkscape-font-specification:TeX Gyre Heros"
         id="flowPara9519" /></flowRoot>    <g
       id="g12"
       transform="matrix(0.045282,0,0,-0.045282,961.87069,1484.4984)">
      <g
         id="g14">
        <g
           id="g16"
           clip-path="url(#clipPath18)">
          <path
             inkscape:connector-curvature="0"
             d="m 1215.04,779.531 13.34,0 -23.96,-87.699 -18.52,0 -23.69,87.699 13.34,0 19.67,-74.508 0.26,0 19.56,74.508"
             style="fill:#ffffff;fill-opacity:1;fill-rule:nonzero;stroke:none"
             id="path22" />
          <path
             inkscape:connector-curvature="0"
             d="m 1321.61,703.988 0,-12.156 -58.28,0 0,87.699 13.35,0 0,-75.543 44.93,0"
             style="fill:#ffffff;fill-opacity:1;fill-rule:nonzero;stroke:none"
             id="path24" />
          <path
             inkscape:connector-curvature="0"
             d="m 1381.95,767.246 -0.26,0 -9.58,-38.035 19.3,0 -9.46,38.035 z m -12.96,-50.195 -6.2,-25.219 -13.47,0 23.95,87.699 16.96,0 23.97,-87.699 -13.48,0 -6.34,25.219 -25.39,0"
             style="fill:#ffffff;fill-opacity:1;fill-rule:nonzero;stroke:none"
             id="path26" />
          <path
             inkscape:connector-curvature="0"
             d="m 1475.18,767.246 -0.26,0 -9.58,-38.035 19.29,0 -9.45,38.035 z m -12.95,-50.195 -6.21,-25.219 -13.47,0 23.95,87.699 16.97,0 23.95,-87.699 -13.47,0 -6.33,25.219 -25.39,0"
             style="fill:#ffffff;fill-opacity:1;fill-rule:nonzero;stroke:none"
             id="path28" />
          <path
             inkscape:connector-curvature="0"
             d="m 1578.63,779.531 20.6,0 0,-87.699 -13.33,0 0,73.082 -0.27,0 -12.04,-44.625 -10.62,0 -12.03,44.625 -0.28,0 0,-73.082 -13.33,0 0,87.699 20.59,0 10.24,-33.758 0.26,0 10.21,33.758"
             style="fill:#ffffff;fill-opacity:1;fill-rule:nonzero;stroke:none"
             id="path30" />
          <path
             inkscape:connector-curvature="0"
             d="m 1633.81,713.434 0,2.711 13.34,0 c 0.13,-8.278 5.94,-13.321 14.24,-13.321 7.52,0 14.51,3.617 14.51,12.156 0,9.575 -9.97,13.325 -19.95,17.985 -9.97,4.781 -20.07,10.351 -20.07,23.402 0,15.141 12.55,24.332 27.07,24.332 12.03,0 25.37,-8.41 25.37,-21.601 l 0,-1.684 -13.34,0 c 0.52,7.375 -5.31,11.117 -12.29,11.117 -7.01,0 -13.47,-2.715 -13.47,-10.992 0,-6.344 5.05,-9.703 10.1,-12.031 l 7.76,-3.613 c 11.92,-5.692 22.16,-11.911 22.16,-26.786 0,-15.398 -13.34,-24.445 -27.85,-24.445 -13.21,0 -27.58,8.281 -27.58,22.77"
             style="fill:#ffffff;fill-opacity:1;fill-rule:nonzero;stroke:none"
             id="path32" />
          <path
             inkscape:connector-curvature="0"
             d="m 1743.1,743.703 34.19,0 0,-12.156 -34.19,0 0,-27.559 40.78,0 0,-12.156 -54.11,0 0,87.699 52.57,0 0,-12.156 -39.24,0 0,-23.672"
             style="fill:#ffffff;fill-opacity:1;fill-rule:nonzero;stroke:none"
             id="path34" />
          <path
             inkscape:connector-curvature="0"
             d="m 1192.76,548.762 0,12.156 31.47,0 0,-42.813 c -7.77,-3.238 -16.84,-5.3 -25.26,-5.3 -26.54,0 -33.79,22.629 -33.79,45.144 0,23.547 7.77,44.879 35.09,44.879 12.83,0 23.96,-8.801 23.96,-17.715 l 0,-1.035 -13.34,0 c -1.29,5.172 -4.79,6.59 -10.62,6.59 -18.64,0 -21.75,-15 -21.75,-31.551 0,-15.406 2.2,-34.156 21.63,-34.156 3.87,0 7.37,0.777 10.74,2.07 l 0,21.731 -18.13,0"
             style="fill:#ffffff;fill-opacity:1;fill-rule:nonzero;stroke:none"
             id="path36-2" />
          <path
             inkscape:connector-curvature="0"
             d="m 1276.93,565.836 34.19,0 0,-12.16 -34.19,0 0,-27.547 40.79,0 0,-12.16 -54.13,0 0,87.691 52.58,0 0,-12.152 -39.24,0 0,-23.672"
             style="fill:#ffffff;fill-opacity:1;fill-rule:nonzero;stroke:none"
             id="path38" />
          <path
             inkscape:connector-curvature="0"
             d="m 1392.17,601.66 20.6,0 0,-87.691 -13.35,0 0,73.082 -0.26,0 -12.03,-44.629 -10.62,0 -12.04,44.629 -0.25,0 0,-73.082 -13.34,0 0,87.691 20.58,0 10.23,-33.746 0.26,0 10.22,33.746"
             style="fill:#ffffff;fill-opacity:1;fill-rule:nonzero;stroke:none"
             id="path40" />
          <path
             inkscape:connector-curvature="0"
             d="m 1463.4,565.836 34.19,0 0,-12.16 -34.19,0 0,-27.547 40.78,0 0,-12.16 -54.12,0 0,87.691 52.58,0 0,-12.152 -39.24,0 0,-23.672"
             style="fill:#ffffff;fill-opacity:1;fill-rule:nonzero;stroke:none"
             id="path42" />
          <path
             inkscape:connector-curvature="0"
             d="m 1556.62,565.836 34.19,0 0,-12.16 -34.19,0 0,-27.547 40.8,0 0,-12.16 -54.13,0 0,87.691 52.58,0 0,-12.152 -39.25,0 0,-23.672"
             style="fill:#ffffff;fill-opacity:1;fill-rule:nonzero;stroke:none"
             id="path44" />
          <path
             inkscape:connector-curvature="0"
             d="m 1678.48,601.66 12.17,0 0,-87.691 -14.5,0 -31.34,66.355 -0.26,0 0,-66.355 -12.17,0 0,87.691 15.53,0 30.31,-63.637 0.26,0 0,63.637"
             style="fill:#ffffff;fill-opacity:1;fill-rule:nonzero;stroke:none"
             id="path46" />
          <path
             inkscape:connector-curvature="0"
             d="m 1727.05,535.562 0,2.719 13.33,0 c 0.13,-8.277 5.96,-13.32 14.23,-13.32 7.54,0 14.51,3.625 14.51,12.164 0,9.559 -9.97,13.32 -19.93,17.973 -9.97,4.797 -20.07,10.351 -20.07,23.414 0,15.136 12.56,24.316 27.05,24.316 12.03,0 25.37,-8.402 25.37,-21.601 l 0,-1.676 -13.34,0 c 0.55,7.375 -5.29,11.117 -12.28,11.117 -6.99,0 -13.48,-2.715 -13.48,-10.996 0,-6.332 5.06,-9.695 10.11,-12.024 l 7.76,-3.625 c 11.92,-5.691 22.15,-11.898 22.15,-26.773 0,-15.395 -13.34,-24.445 -27.85,-24.445 -13.19,0 -27.56,8.273 -27.56,22.757"
             style="fill:#ffffff;fill-opacity:1;fill-rule:nonzero;stroke:none"
             id="path48" />
          <path
             inkscape:connector-curvature="0"
             d="m 1209.46,404.016 c -0.38,5.3 -5.3,8.796 -10.87,8.796 -14.12,0 -16.31,-22.128 -16.31,-32.468 0,-10.481 1.94,-33.254 16.31,-33.254 5.57,0 10.49,3.887 10.87,9.57 l 13.34,0 c 0,-13.055 -11.26,-21.719 -23.69,-21.719 -23.7,0 -30.17,25.606 -30.17,44.747 0,20.187 6.47,45.273 30.17,45.273 12.43,0 23.69,-8.399 23.69,-20.945 l -13.34,0"
             style="fill:#ffffff;fill-opacity:1;fill-rule:nonzero;stroke:none"
             id="path50" />
          <path
             inkscape:connector-curvature="0"
             d="m 1273.96,375.559 0,-39.465 -13.34,0 0,87.715 13.34,0 0,-36.094 29.25,0 0,36.094 13.34,0 0,-87.715 -13.34,0 0,39.465 -29.25,0"
             style="fill:#ffffff;fill-opacity:1;fill-rule:nonzero;stroke:none"
             id="path52" />
          <path
             inkscape:connector-curvature="0"
             d="m 1381.95,411.523 -0.26,0 -9.58,-38.027 19.3,0 -9.46,38.027 z m -12.96,-50.195 -6.2,-25.234 -13.47,0 23.95,87.715 16.96,0 23.97,-87.715 -13.48,0 -6.34,25.234 -25.39,0"
             style="fill:#ffffff;fill-opacity:1;fill-rule:nonzero;stroke:none"
             id="path54-8" />
          <path
             inkscape:connector-curvature="0"
             d="m 1477.64,384.473 c 9.2,0 17.09,2.851 17.09,13.457 0,11.515 -6.98,13.711 -16.96,13.711 l -15.79,0 0,-27.168 15.66,0 z m -29.01,39.336 29.66,0 c 17.48,0 29.78,-7.891 29.78,-26.133 0,-18.242 -14.38,-25.352 -30.69,-25.352 l -15.4,0 0,-36.23 -13.35,0 0,87.715"
             style="fill:#ffffff;fill-opacity:1;fill-rule:nonzero;stroke:none"
             id="path56" />
          <path
             inkscape:connector-curvature="0"
             d="m 1540.57,357.695 0,2.735 13.34,0 c 0.13,-8.301 5.95,-13.34 14.25,-13.34 7.5,0 14.5,3.633 14.5,12.168 0,9.57 -9.96,13.32 -19.95,17.98 -9.97,4.785 -20.07,10.34 -20.07,23.418 0,15.125 12.57,24.305 27.07,24.305 12.05,0 25.38,-8.399 25.38,-21.602 l 0,-1.679 -13.33,0 c 0.51,7.382 -5.31,11.132 -12.31,11.132 -6.99,0 -13.46,-2.722 -13.46,-10.996 0,-6.328 5.05,-9.707 10.09,-12.031 l 7.78,-3.613 c 11.9,-5.703 22.13,-11.914 22.13,-26.785 0,-15.391 -13.33,-24.446 -27.83,-24.446 -13.22,0 -27.59,8.274 -27.59,22.754"
             style="fill:#ffffff;fill-opacity:1;fill-rule:nonzero;stroke:none"
             id="path58" />
          <path
             inkscape:connector-curvature="0"
             d="m 1675.64,404.016 c -0.4,5.3 -5.32,8.796 -10.89,8.796 -14.11,0 -16.32,-22.128 -16.32,-32.468 0,-10.481 1.94,-33.254 16.32,-33.254 5.57,0 10.49,3.887 10.89,9.57 l 13.33,0 c 0,-13.055 -11.26,-21.719 -23.71,-21.719 -23.69,0 -30.16,25.606 -30.16,44.747 0,20.187 6.47,45.273 30.16,45.273 12.45,0 23.71,-8.399 23.71,-20.945 l -13.33,0"
             style="fill:#ffffff;fill-opacity:1;fill-rule:nonzero;stroke:none"
             id="path60" />
          <path
             inkscape:connector-curvature="0"
             d="m 1737.01,379.434 c 0,-10.996 2.46,-32.344 17.75,-32.344 15.14,0 17.72,21.348 17.72,32.344 0,11.25 -2.32,33.378 -17.72,33.378 -15.54,0 -17.75,-22.128 -17.75,-33.378 z m 48.81,0.644 c 0,-19.277 -8.65,-45.137 -31.06,-45.137 -22.42,0 -31.09,25.86 -31.09,45.137 0,17.727 8.81,44.883 31.09,44.883 22.26,0 31.06,-27.156 31.06,-44.883"
             style="fill:#ffffff;fill-opacity:1;fill-rule:nonzero;stroke:none"
             id="path62" />
          <path
             inkscape:connector-curvature="0"
             d="m 1205.71,245.938 20.59,0 0,-87.696 -13.33,0 0,73.086 -0.26,0 -12.05,-44.629 -10.61,0 -12.05,44.629 -0.26,0 0,-73.086 -13.34,0 0,87.696 20.6,0 10.22,-33.75 0.26,0 10.23,33.75"
             style="fill:#ffffff;fill-opacity:1;fill-rule:nonzero;stroke:none"
             id="path64" />
          <path
             inkscape:connector-curvature="0"
             d="m 1298.95,245.938 20.59,0 0,-87.696 -13.34,0 0,73.086 -0.26,0 -12.04,-44.629 -10.63,0 -12.03,44.629 -0.26,0 0,-73.086 -13.34,0 0,87.696 20.58,0 10.24,-33.75 0.26,0 10.23,33.75"
             style="fill:#ffffff;fill-opacity:1;fill-rule:nonzero;stroke:none"
             id="path66" />
          <path
             inkscape:connector-curvature="0"
             d="m 1388.42,170.391 15.8,0 0,-12.149 -44.92,0 0,12.149 15.78,0 0,63.398 -13.2,0 0,12.149 39.62,0 0,-12.149 -13.08,0 0,-63.398"
             style="fill:#ffffff;fill-opacity:1;fill-rule:nonzero;stroke:none"
             id="path68" />
          <path
             inkscape:connector-curvature="0"
             d="m 1447.34,179.836 0,2.734 13.34,0 c 0.12,-8.293 5.96,-13.332 14.24,-13.332 7.51,0 14.51,3.625 14.51,12.149 0,9.57 -9.98,13.32 -19.94,17.98 -9.98,4.793 -20.08,10.371 -20.08,23.418 0,15.125 12.57,24.324 27.06,24.324 12.05,0 25.39,-8.406 25.39,-21.609 l 0,-1.672 -13.34,0 c 0.52,7.375 -5.32,11.125 -12.31,11.125 -6.99,0 -13.46,-2.715 -13.46,-10.996 0,-6.34 5.04,-9.707 10.1,-12.043 l 7.77,-3.613 c 11.91,-5.692 22.14,-11.895 22.14,-26.778 0,-15.398 -13.33,-24.441 -27.84,-24.441 -13.22,0 -27.58,8.281 -27.58,22.754"
             style="fill:#ffffff;fill-opacity:1;fill-rule:nonzero;stroke:none"
             id="path70" />
          <path
             inkscape:connector-curvature="0"
             d="m 1540.57,179.836 0,2.734 13.34,0 c 0.13,-8.293 5.95,-13.332 14.25,-13.332 7.5,0 14.5,3.625 14.5,12.149 0,9.57 -9.96,13.32 -19.95,17.98 -9.97,4.793 -20.07,10.371 -20.07,23.418 0,15.125 12.57,24.324 27.07,24.324 12.05,0 25.38,-8.406 25.38,-21.609 l 0,-1.672 -13.33,0 c 0.51,7.375 -5.31,11.125 -12.31,11.125 -6.99,0 -13.46,-2.715 -13.46,-10.996 0,-6.34 5.05,-9.707 10.09,-12.043 l 7.78,-3.613 c 11.9,-5.692 22.13,-11.895 22.13,-26.778 0,-15.398 -13.33,-24.441 -27.83,-24.441 -13.22,0 -27.59,8.281 -27.59,22.754"
             style="fill:#ffffff;fill-opacity:1;fill-rule:nonzero;stroke:none"
             id="path72" />
          <path
             inkscape:connector-curvature="0"
             d="m 1668.13,170.391 15.79,0 0,-12.149 -44.94,0 0,12.149 15.81,0 0,63.398 -13.22,0 0,12.149 39.63,0 0,-12.149 -13.07,0 0,-63.398"
             style="fill:#ffffff;fill-opacity:1;fill-rule:nonzero;stroke:none"
             id="path74" />
          <path
             inkscape:connector-curvature="0"
             d="m 1743.1,210.109 34.19,0 0,-12.16 -34.19,0 0,-27.558 40.78,0 0,-12.149 -54.11,0 0,87.696 52.57,0 0,-12.149 -39.24,0 0,-23.68"
             style="fill:#ffffff;fill-opacity:1;fill-rule:nonzero;stroke:none"
             id="path76" />
          <path
             inkscape:connector-curvature="0"
             d="M 581.078,164.562 C 455.531,181.25 320.328,310.273 320.328,490.113 l 0,132.739 521.488,0 0,-132.739 c 0,-179.84 -135.211,-308.863 -260.738,-325.551 l 0,0"
             style="fill:#fcd006;fill-opacity:1;fill-rule:nonzero;stroke:none"
             id="path78" />
          <path
             inkscape:connector-curvature="0"
             d="m 841.816,622.852 -521.488,0 0,148.109 521.488,0 0,-148.109"
             style="fill:#2b4c93;fill-opacity:1;fill-rule:nonzero;stroke:none"
             id="path80" />
          <path
             inkscape:connector-curvature="0"
             d="m 581.133,166.875 -0.375,0.078 C 456.645,183.887 322.672,312.207 322.672,490.16 l 0,278.477 516.898,0 0,-278.477 c 0,-178 -134.023,-306.32 -258.105,-323.207 l -0.332,-0.078 0,0 z m -269.317,612.652 0,-289.367 c 0,-184.808 139.575,-317.367 268.848,-334.25 l 0.863,0 c 129.285,16.824 268.868,149.442 268.868,334.25 l 0,289.367 -538.579,0"
             style="fill:#ffffff;fill-opacity:1;fill-rule:nonzero;stroke:none"
             id="path82" />
          <path
             inkscape:connector-curvature="0"
             d="m 460.723,432.676 c -1.071,-5.235 2.523,-21.668 16.332,-20.781 8.101,0.527 10.789,4.121 13.117,6.222 7.562,17.371 1.957,29.891 8.449,43.047 2.645,5.383 14.195,17.231 23.18,13.504 -8.856,-2.555 -15.641,-10.32 -18.278,-14.461 -7.394,-11.594 1.774,-38.027 -16.527,-53.371 8.938,-0.469 18.641,11.973 19.938,17.226 -4.996,7.11 -4.782,13.684 -4.215,19.219 0.539,4.883 8.515,23.512 22.855,21.641 -7.492,-2.891 -18.312,-14.668 -18.312,-25.742 0,-6.27 4.093,-20 15.937,-21.172 -7.293,5.539 -9.961,10.051 -9.961,15.793 0,5.691 5.09,10.594 12.465,10.801 1.262,0.046 3.707,-2.024 3.652,-3.899 -0.101,-2.988 -2.988,-6.902 -2.988,-9.57 -0.043,-1.746 0.598,-2.676 2.09,-3.145 -0.922,1.621 -0.625,3.789 -0.348,4.434 0.621,2.422 5.371,5.683 6.914,10.547 1.52,4.765 -0.359,10.285 0.84,14.004 1.871,5.582 5.692,7.129 10.422,6.586 -4.473,-6.809 1.074,-10.383 1.203,-17.289 0.086,-6.739 -7.449,-9.883 -7.367,-16.836 0,-2.227 0.594,-3.75 1.738,-4.317 -1.144,1.457 -1.047,2.891 -0.929,5.293 0.101,5.176 8.418,7.656 9.882,11.172 1.422,3.516 0,8.301 0.372,11.816 0.363,3.469 4.789,7.012 8.449,7.012 -1.473,-2.754 -0.903,-7.93 1.48,-9.961 3.461,-3.008 23.246,-2.011 26.176,-11.914 0.762,0.645 0.813,3.098 -0.887,5.957 -2.843,4.895 -12.664,5.391 -14.324,14.18 -0.793,4.156 2.649,7.699 6.922,8.918 -0.723,-11.543 13.117,-10.949 15.527,-13.391 -0.597,3.711 -11.558,6.164 -11.183,13.121 0.261,3.891 1.718,5.289 4.707,6.434 3.574,-6.453 14.015,-11.742 21.906,-7.856 7.836,3.891 11.84,9.504 12.633,12.575 -4.207,-2.778 -14.199,-1.871 -18.344,11.589 4.227,0.274 12.484,6.012 11.875,14.02 -1.824,-3.219 -10.207,-4.789 -10.207,2.75 3.012,-1.402 10.688,-0.957 12.57,6.758 -1.652,-1.82 -3.101,-1.352 -5.238,0.32 -4.531,3.746 0.094,15.758 -2.234,18.957 4.449,2.098 10.914,9.801 8.047,20.496 -5.075,-5.578 -8.704,-6.804 -12.848,-4.285 11.762,4.512 17.328,15.414 13.246,23.891 -4.723,-5.332 -17.391,-2.793 -20.805,-10.942 -4.125,4.262 5.301,7.895 5.301,12.614 0,3.621 -1.887,6.742 -3.129,7.929 -0.14,-4.992 -5.613,-7.804 -13.656,-8.683 -6.145,-0.739 -12.969,4.144 -26.273,-0.164 -5.235,-1.7 -6.786,-7.711 -8.583,-10.106 -1.882,-2.519 -8.402,-7.055 -21.882,-7.055 -1.207,-0.429 -3.977,-3.667 -2.188,-8.777 -2.668,-1.601 -4.078,-11.75 -3.832,-15.027 3.699,-0.461 2.285,-8.899 5.86,-11.414 0.8,2.515 3.738,7.832 10.761,8.027 5.625,0.199 9.528,-4.086 9.399,-10.777 -0.125,-6.602 -5.453,-12.836 -11.375,-12.516 -5.903,0.477 -6.899,4.192 -7.832,6.539 -1.297,-0.972 -2.239,-5.215 -2.352,-6.539 -0.711,0.098 -1.336,0.098 -1.84,-0.476 -1.023,-1.149 -3.832,-11.301 3.239,-19.008 0.898,3.293 1.019,5.594 6.71,6.312 4.208,0.485 7.821,-1.215 10.719,-1.215 2.86,0 4.551,0.77 5.836,1.938 0.18,-2.621 -5.191,-9.496 -10.64,-10.547 -2.977,-0.527 -4.172,-0.324 -18.692,-0.324 -14.141,0 -29.457,-5.754 -41.391,-44.789 -3.578,-11.375 -9.484,-13.348 -13.128,-13.301 -6.391,0.078 -7.45,4.492 -8.961,8.008"
             style="fill:#231f20;fill-opacity:1;fill-rule:nonzero;stroke:none"
             id="path84" />
          <path
             inkscape:connector-curvature="0"
             d="m 477.895,441.535 c 7.554,21.293 16.695,35.164 27.199,41.719 -29.567,21.406 -21.481,45.519 -19.938,51.711 0.453,1.543 10.215,4.715 9.324,11.219 -0.746,5.179 -6.203,3.168 -10.339,4.539 -6.168,1.996 -4.801,5.132 -7.309,6.109 -2.535,0.898 -5.918,-1.793 -6.305,-3.422 -0.355,-1.535 1.778,-4.558 -0.355,-5.527 -2.242,-1.074 -3.938,2.168 -3.938,3.992 0,1.82 3.539,5.703 1.696,9 -1.696,2.918 -6.817,-0.098 -10.231,-0.543 -3.426,-0.352 -10.976,2.043 -11.758,-2.227 -0.648,-3.417 3.524,-4.793 4.446,-6.503 0.929,-1.649 0.929,-5.043 -1.719,-5.418 -2.613,-0.426 0,5.418 -2.844,6.332 -2.879,0.894 -5.238,-4.633 -7.226,-6.078 -1.973,-1.422 -8.102,-0.926 -7.828,-5.848 0.418,-7.402 12,-4.828 11.886,-9.922 -0.117,-4.941 -6.078,-1.348 -7.711,-3.758 -2.738,-4.191 1.633,-7.418 2.614,-10.137 1.984,-4.957 -0.735,-9.593 3.503,-11.171 3.297,-1.149 6.262,5.785 8.032,3.867 1.66,-1.793 2.117,-7.832 -0.578,-9.879 -2.575,-2.047 -6.114,-0.621 -8.067,1.855 -0.273,-7.816 9.668,-12.773 15.668,-12.324 0.93,-6.312 -5.363,-7.914 -11.758,-5.742 3.239,-14.414 15.293,-13.649 18.676,-13.266 0.203,-4.535 -5.5,-8.199 -13.539,-3.996 4.266,-14.211 15.676,-13.566 23.906,-9.144 1.711,-4.746 -7.09,-9.063 -11.644,-7.411 0.652,-5.578 10.14,-10.558 16.137,-8.027"
             style="fill:#231f20;fill-opacity:1;fill-rule:nonzero;stroke:none"
             id="path86" />
          <path
             inkscape:connector-curvature="0"
             d="m 511.234,417.539 c -9.382,-22.832 -32.64,-28.914 -42.933,-25.625 -2.184,0.676 1.25,4.492 -0.789,7.422 -2.469,3.555 -8.235,-1.953 -10.574,-2.93 -2.336,-1.015 -10.833,-0.39 -11.223,-4.043 -0.344,-3.738 4.769,-5.332 3.172,-7.226 -2.535,-3.114 -3.688,3.066 -7.649,1.152 -2.652,-1.355 -1.765,-5.469 -1.976,-8.379 -0.168,-2.898 -1.821,-10.976 1.187,-12.156 4.141,-1.496 6.922,5.984 8.645,0.801 1.824,-5.481 -6.555,-1.692 -9.254,-5.266 -2.11,-2.762 1.222,-4.043 5.875,-7.949 7.062,-6.035 2.582,-8.887 8.262,-9.004 4.984,-0.047 1.664,12.285 7.492,11.894 3.469,-0.195 -1.59,-4.941 0,-8.378 1.543,-3.516 6.258,-0.196 9.398,0.214 3.11,0.352 9.246,-0.82 10.406,2.481 1.129,3.359 -4.179,7.09 -0.418,8.605 5.743,2.391 3.563,-4.316 4.754,-7.238 1.137,-2.891 4.121,-3.496 5.27,-7.578 5.66,1.016 2.953,13.066 4.863,16.602 7.516,4.121 2.262,-9.219 6.11,-12.286 0.613,5.254 6.925,5.078 8.652,12.012 1.422,5.891 -0.344,7.715 -1.301,10.645 6.465,3.429 3.32,-5.723 9.508,-7.618 4.426,-1.296 8.652,1.172 9.984,2.864 -10.746,4.832 -1.73,11.55 -5.234,14.941 7.121,0.984 4.863,-5.734 7.609,-7.863 2.45,-1.914 6.489,-2.949 9.246,-1.035 -6.632,3.886 1.543,12.539 0,18.125 5.469,-7.43 10.614,-11.348 17.618,-6.778 -5.961,3.164 -2.106,12.774 -9.493,15.567 11.114,3.672 7.129,-7.246 13.121,-10.157 3.063,-1.445 5.493,-0.878 6.805,1.192 -4.055,1.543 -2.691,10.383 2.348,10.383 4.328,0 5.453,-3.528 5.933,-7.09 0.438,-2.91 -1.527,-5.742 -1.921,-7.805 -8.063,-1.445 -29.516,-17.988 -36.004,-20.058 -11.426,-3.614 -40.594,-32.598 -43.547,-34.727 -2.91,-2.137 -8.805,-2.977 -13.321,0 1.254,-18.418 25.079,-17.324 35.707,-10.906 1.149,-4.27 5.637,-5.617 5.899,-9.563 0.156,-3.855 4.074,-7.371 9.211,-7.371 -2.402,-16.621 -19.762,-21.66 -25.914,-17.805 -2.84,1.887 2.972,5.704 -1.567,8.79 -4.468,3.144 -7.863,-4.493 -10.98,-6.024 -3.156,-1.582 -9.699,-4.316 -9.055,-7.824 0.485,-2.442 8.274,-2.442 4.371,-7.149 -2.531,-3.066 -7.125,3.907 -10.617,1.524 -3.574,-2.371 -0.84,-7.012 -0.203,-10.098 0.633,-3.203 -1.406,-9.98 1.754,-11.328 3.152,-1.426 10,5.039 11.613,1.152 1.559,-3.925 -5.914,-2.578 -5.476,-7.636 0.351,-5.059 3.48,-2.489 5.476,-4.844 1.91,-2.402 7.278,-9.004 10.16,-6.211 4.774,4.543 -1.632,13.801 6.457,11.477 6.563,-1.887 -1.933,-6.086 0,-9.954 1.989,-3.906 2.348,-1.746 8.871,-0.593 6.469,1.218 8.489,0.847 8.739,4.343 0.152,3.555 -5.992,4.114 -2.395,8.235 1.574,1.66 4.551,1.433 5.449,-1.027 2.801,-8.055 4.75,-5.145 6.387,-13.692 2.981,4.316 -3.508,14.434 1.719,22.559 1.762,-9.571 6.57,-14.727 10.113,-15.137 -4.777,9.484 1.602,18.586 1.082,22.578 -0.629,4.531 -2.75,6.719 -4.129,8.313 8.457,2.859 7.723,-6.633 9.539,-8.985 2.301,-3.144 7.047,-5.168 9.961,-4.015 -12.765,7.207 -0.519,19.296 -5.492,27.98 9.68,4.441 0.547,-17.766 17.25,-17.434 -2.902,1.926 -6.859,10.176 -2.164,14.844 4.723,4.68 5.484,16.778 2.016,22.383 -6.731,10.996 -17.575,5.273 -19.043,22.637 -0.524,6.23 8.031,11.015 13.379,11.32 9.613,0.672 17.64,-8.488 29.574,-3.918 -1.387,14.024 6.426,32.727 12.578,38.438 2.293,7.421 0.879,13.867 -3.457,18.183 5.316,1.504 8.637,-3.301 9.258,-6.211 0.558,-2.949 0.492,-11.113 -1.324,-14.863 -3.891,-3.574 -11.801,-16.856 -11.434,-34.492 0.144,-11.114 7.055,-25.996 2.609,-33.77 -4.507,-7.929 -9.765,-5.437 -13.484,-3.515 1.375,-8.848 20.758,-13.602 27.953,-5.469 0.879,1.055 -0.629,1.269 1.641,3.887 1.097,1.308 3.332,-0.196 6.433,0 3.157,0.253 3.157,0.449 4.344,2.148 1.742,-5.41 11.762,-9.57 16.84,-6.629 8.277,-8.488 9.941,-26.887 -3.313,-32.129 -11.171,-4.465 -8.023,5.887 -12.328,6.961 -4.343,1.172 -4.824,-4.551 -7.203,-6.64 -2.348,-2.149 -7.937,-4.864 -6.551,-8.555 1.364,-3.692 8.414,-1.172 6.043,-6.68 -2.285,-5.242 -6.722,3.789 -10.73,0.645 -5.121,-3.934 -0.231,-6.836 1.191,-11.543 1.367,-4.637 0.524,-12.774 5.274,-12.215 6.207,0.672 6.656,11.465 11.133,7.93 4.878,-3.704 -3.5,-4.844 -3.129,-9.504 0.418,-4.715 3.539,-1.973 7.656,-3.653 4.125,-1.836 7.238,-5.722 10.433,-2.039 3.122,3.719 -5.078,9.598 0.954,12.5 4.929,2.344 1.796,-5.586 5.296,-7.226 4.266,-1.934 5.5,1.035 8.821,1.992 3.328,0.918 9.812,-0.078 9.812,4.246 0,4.309 -7.828,5.293 -8.258,11.406 -0.265,3.899 3.59,5.821 6.422,7.012 2.715,-4.52 0.098,-4.715 0.582,-7.305 0.848,-4.617 6.664,-4.883 7.133,-9.355 3.344,4.113 -0.597,6.386 -0.383,11.094 0.239,4.64 2.832,5.695 3.532,13.574 0.273,3.086 -0.473,4.14 -3.262,5.625 1.574,3.476 4.367,4.14 6.699,1.554 2.555,-2.941 -1.172,-8 0.586,-10.898 1.742,-2.91 3.867,-4.367 4.801,-7.531 3.375,2.363 -0.586,5.508 -0.934,10.918 -0.394,5.519 3.571,9.258 2.578,13.945 -0.504,2.922 -1.761,3.848 -4.371,4.414 1.364,2.539 3.289,3.516 6.25,0.852 4.977,-4.485 3.242,-13.469 10.2,-12.129 -6.376,6.492 -2.622,14.082 -5.383,22.683 -2.035,6.485 -3.047,7.032 -4.965,8.516 2.93,3.73 6.68,3.555 8.59,-0.195 2.328,-4.707 -1.95,-7.157 1.183,-11.426 3.157,-4.317 6.317,-4.551 10.168,-3.613 -6.914,6.64 1.426,8.683 -1.148,21.25 -1.309,6.613 -5.688,13.066 -11.184,14.394 -5.461,1.399 -10.789,0.274 -13.332,-2.918 -3.625,2.801 -0.113,9.11 -8.047,12.129 -5.511,2.137 -7.851,2.012 -10.75,1.395 -3.386,6.191 -13.386,9.921 -18.468,9.152 3.027,3.887 7.191,20.594 7.464,26.727 16.59,-20.02 39.496,-21.668 45.297,-24.239 9.078,-3.847 10.153,-24.785 21.383,-30.742 -6.949,13.457 2.848,33.75 -11.758,42.695 9.602,3.262 16.36,15.782 15.114,27.539 -2.168,19.59 -19.184,16.973 -23.36,38.352 -1.164,6.004 3.664,11.504 7.988,12.625 3.555,0.937 9.86,-3.047 11.071,-5.195 4.054,5.664 -2.84,17.636 -10.27,18.164 -12.332,0.695 -18.867,-9.317 -20.191,-15.117 -7.594,7.89 -3.125,21.718 4.336,25.39 11.008,5.461 17.871,-1.375 19.039,-6.426 3.453,12.305 -5.895,19.77 -13.942,20.297 -9.648,0.617 -19.468,-6.039 -24.914,-16.371 -2.168,1.574 -2.058,5.969 1.36,10.684 19.797,26.879 60.019,44.289 42.843,78.539 0.372,-20.36 -25.542,-49.692 -43.57,-54.922 8.996,21.023 32.555,47.062 31.531,67.633 -1.246,26.152 -20.312,40.461 -39.988,40.586 -26.773,0.175 -44.93,-17.953 -46.871,-38.602 -1.578,-16.047 7.813,-35.808 -11.016,-62.707 12.661,4.043 18.516,20.176 18.829,28.707 0.445,13.344 -4.793,17.828 -3.055,33.715 0.961,8.457 9.594,21.879 20.512,20.551 -7.262,-2.762 -15.211,-12.774 -15.579,-20.422 -0.878,-17.11 3.711,-24.172 3.961,-32.473 0.625,-16.683 -10.718,-23.344 -10.168,-34.668 0.946,-19.105 13.864,-27.695 12.383,-42.273 9.094,9.648 -0.207,31.594 -0.422,39.953 -0.14,8.398 10.536,21.789 7.801,32.227 -2.484,9.421 -6.844,13.667 -7.195,29.109 -0.184,9.621 5.785,19.945 15.121,19.551 -5.609,-2.848 -10.344,-12.5 -10.199,-19.102 0.39,-20.508 9.801,-29.191 10.957,-39.082 0.414,-3.406 -1.465,-13.476 -6.09,-19.215 13.988,8.184 13.594,32.77 10.516,41.977 -2.848,8.605 -9.532,10.676 -10.016,17.281 -0.5,7.383 4.832,18.141 13.215,17.07 -5.438,-3.695 -9.121,-9.308 -8.09,-16.093 0.625,-4.387 4.719,-9.75 10.383,-10.153 5.691,-0.351 10.101,4.313 10.906,11.379 -3.367,-4.492 -10.039,-4.121 -11.426,0.176 -1.347,4.266 4.668,14.066 12.949,13.039 7.852,-0.957 12.188,-5.512 13.172,-13.039 4.325,-31.875 -40.453,-68.898 -36.457,-99.074 4.949,-37.832 37.77,-43.301 47.438,-69.961 3.726,-10.332 0.801,-17.363 -7.028,-21.68 -12.488,-6.824 -30.125,15.098 -31.574,20.41 -3.676,13.801 -32.461,70.332 -52.125,85.348 -10.039,-5.688 -19.949,-0.852 -23.992,2.84 0.781,-3.367 9.859,-4.953 10.777,-12.094 0.434,-3.418 -1.34,-4.734 -3.902,-5.684 -1.957,4.141 -13.711,5.684 -17.402,9.2 4.121,-5.313 12.187,-6.981 13.625,-14.258 0.812,-4.043 -2.317,-10.606 -7.578,-11.211 0.527,4.316 -1.926,7.422 -5.309,9.738 -3.297,2.285 -19.582,1.473 -23.516,8.652 -0.371,-1.25 0.477,-5.968 -0.758,-9.257 -2.242,-5.735 -9.027,-7.559 -9.605,-11.075 -0.605,-3.546 1.344,-6.281 3.91,-8.156 -7.844,-3.066 -15.148,1.106 -13.929,9.434 1.148,8.027 7.109,11.027 7.265,16.457 0.098,3.601 -1.281,3.484 -2.367,7.781 -0.867,-1.348 -0.063,-5.234 -0.957,-11.074 -0.781,-5.137 -6.715,-9.344 -7.172,-11.817 -0.871,-4.55 1.023,-5.906 2.566,-7.187 -5.546,-3.738 -11.988,0.625 -12.734,5.344 -0.648,3.758 3.063,8.953 2.406,9.648 -0.828,0.801 -6.613,-0.305 -6.257,-5.461 0.871,-12.742 11.312,-15.722 15.792,-17.586 -5.906,-5.011 -17.21,-3.965 -22.996,0.926"
             style="fill:#231f20;fill-opacity:1;fill-rule:nonzero;stroke:none"
             id="path88" />
          <path
             inkscape:connector-curvature="0"
             d="m 536.836,510.172 c -3.707,6.207 -6.516,7.449 -14.684,7.797 -10.468,0.883 -23.351,-9.121 -30.672,3.902 -1.019,4.156 -1.019,7.699 2.231,10.953 1.66,0.715 4.719,0.715 5.992,-0.789 2.516,-1.687 4.445,-4.055 4.527,-7.051 16.606,0.547 26.817,-1.941 32.606,-14.812"
             style="fill:#ef2e31;fill-opacity:1;fill-rule:nonzero;stroke:none"
             id="path90" />
          <path
             inkscape:connector-curvature="0"
             d="m 480.586,574.543 c 4.437,-0.656 10.894,-13.445 10.976,-15.637 0.176,-2.203 -0.863,-4.668 -1.832,-5.316 -0.906,-0.645 -6.617,-0.723 -8.457,2.07 -2.503,3.66 2.707,12.074 -0.687,18.883"
             style="fill:#ef2e31;fill-opacity:1;fill-rule:nonzero;stroke:none"
             id="path92" />
          <path
             inkscape:connector-curvature="0"
             d="m 447.402,578.938 c 13.465,0.644 15.188,-8.059 14.864,-12.129 -0.176,-3.016 -8.434,-3.664 -10.289,-2.196 -1.993,1.551 1.64,10.028 -4.575,14.325"
             style="fill:#ef2e31;fill-opacity:1;fill-rule:nonzero;stroke:none"
             id="path94" />
          <path
             inkscape:connector-curvature="0"
             d="m 425.648,561.547 c 7.082,1.277 13.059,-4.715 13.895,-7.211 0.906,-2.734 -4.293,-8.949 -7.516,-7.254 -3.121,1.672 -1.386,11.445 -6.379,14.465"
             style="fill:#ef2e31;fill-opacity:1;fill-rule:nonzero;stroke:none"
             id="path96" />
          <path
             inkscape:connector-curvature="0"
             d="m 419.391,525.883 c -0.996,-9.973 7.855,-17.707 14.554,-16.27 2.293,0.528 0.176,7.16 -1.039,8.68 -2.41,3.051 -7.617,0 -13.515,7.59"
             style="fill:#ef2e31;fill-opacity:1;fill-rule:nonzero;stroke:none"
             id="path98" />
          <path
             inkscape:connector-curvature="0"
             d="m 439.84,408.906 c 8.457,-0.176 7.484,-8.457 9.398,-9.949 2.039,-1.574 7.633,-0.098 8.461,2.715 1.578,5.469 -11.172,11.902 -17.859,7.234"
             style="fill:#ef2e31;fill-opacity:1;fill-rule:nonzero;stroke:none"
             id="path100" />
          <path
             inkscape:connector-curvature="0"
             d="m 420.258,367.578 c 2.121,5.234 11.543,2.492 14.105,4.836 2.528,2.324 1.727,9.785 -2.968,10.379 -3.485,0.402 -11.344,-9.629 -11.137,-15.215"
             style="fill:#ef2e31;fill-opacity:1;fill-rule:nonzero;stroke:none"
             id="path102" />
          <path
             inkscape:connector-curvature="0"
             d="m 436.68,332.852 c 0,4.882 8.109,8.73 7.679,13.261 -0.371,4.434 -5.652,6.008 -7.781,4.055 -2.215,-1.914 -3.574,-15.41 0.102,-17.316"
             style="fill:#ef2e31;fill-opacity:1;fill-rule:nonzero;stroke:none"
             id="path104" />
          <path
             inkscape:connector-curvature="0"
             d="m 459.652,331.543 c 7.25,6.191 4.52,7.871 5.118,10.441 0.566,2.567 8.824,4.129 10.23,0.801 2.191,-5.363 -7.488,-13.449 -15.348,-11.242"
             style="fill:#ef2e31;fill-opacity:1;fill-rule:nonzero;stroke:none"
             id="path106" />
          <path
             inkscape:connector-curvature="0"
             d="m 479.457,302.656 c 4.754,-1.269 5.93,-11.347 9.082,-12.285 3.133,-1.016 8.602,4.024 8,7.344 -0.531,3.34 -11.539,7.637 -17.082,4.941"
             style="fill:#ef2e31;fill-opacity:1;fill-rule:nonzero;stroke:none"
             id="path108" />
          <path
             inkscape:connector-curvature="0"
             d="m 462.234,253.262 c 2.746,4.55 9.993,3.906 12.321,5.117 2.402,1.105 2.179,11.23 -1.332,11.699 -3.539,0.332 -13.172,-8.457 -10.989,-16.816"
             style="fill:#ef2e31;fill-opacity:1;fill-rule:nonzero;stroke:none"
             id="path110" />
          <path
             inkscape:connector-curvature="0"
             d="m 494.355,221.699 c -2.683,2.766 0.235,10.332 -0.371,13.496 -0.554,3.086 -7.238,6.758 -9.773,4.18 -2.551,-2.488 0.789,-16.727 10.144,-17.676"
             style="fill:#ef2e31;fill-opacity:1;fill-rule:nonzero;stroke:none"
             id="path112" />
          <path
             inkscape:connector-curvature="0"
             d="m 504.68,222.07 c 5.601,1.36 6.359,8.047 7.863,9.7 1.551,1.582 10.547,4.921 12.152,2.207 1.672,-2.696 -7.754,-17.168 -20.015,-11.907"
             style="fill:#ef2e31;fill-opacity:1;fill-rule:nonzero;stroke:none"
             id="path114" />
          <path
             inkscape:connector-curvature="0"
             d="m 609.957,269.883 c 4.691,1.125 7.836,-4.512 10.391,-5.488 2.547,-0.946 8.207,4.718 6.871,7.988 -1.367,3.359 -13.176,3.359 -17.262,-2.5"
             style="fill:#ef2e31;fill-opacity:1;fill-rule:nonzero;stroke:none"
             id="path116" />
          <path
             inkscape:connector-curvature="0"
             d="m 605.469,221.875 c 0.183,5.266 8,6.281 9.992,8.047 1.961,1.719 -1.832,11.094 -5.106,10.656 -3.339,-0.351 -9.664,-12.266 -4.886,-18.703"
             style="fill:#ef2e31;fill-opacity:1;fill-rule:nonzero;stroke:none"
             id="path118" />
          <path
             inkscape:connector-curvature="0"
             d="m 640.969,199.082 c -1.422,4.094 1.109,10.168 1.761,13.098 0.575,2.937 -8.878,5.859 -10.839,3.886 -1.953,-1.972 3.129,-15.039 9.078,-16.984"
             style="fill:#ef2e31;fill-opacity:1;fill-rule:nonzero;stroke:none"
             id="path120" />
          <path
             inkscape:connector-curvature="0"
             d="m 653.695,207.031 c 3.723,1.367 5.84,8.938 6.731,10.93 0.929,1.894 10.316,6.016 12.277,3.086 1.969,-2.785 -13.484,-17.785 -19.008,-14.016"
             style="fill:#ef2e31;fill-opacity:1;fill-rule:nonzero;stroke:none"
             id="path122" />
          <path
             inkscape:connector-curvature="0"
             d="m 560.098,550.801 c 0.254,-7.879 5.882,-7.637 15.172,-3.992 -0.629,1.699 -5.297,6.007 -6.903,6.601 -2.113,0 -6.558,-0.465 -8.269,-2.609"
             style="fill:#ffffff;fill-opacity:1;fill-rule:nonzero;stroke:none"
             id="path124" />
          <path
             inkscape:connector-curvature="0"
             d="m 591.309,758.652 0,0 c -3.766,-0.164 -7.09,-1.757 -9.782,-4.808 -1.715,-1.969 -3.183,-4.512 -4.363,-7.656 -0.379,1.292 -0.809,2.292 -1.598,3.113 -0.175,0.207 -0.386,0.332 -0.55,0.402 l -2.539,1.117 c -0.243,0.063 -0.415,0.11 -0.731,0.11 -2.875,0 -5.492,-1.629 -7.297,-4.539 -1.914,-3.145 -2.98,-8.11 -2.98,-14.024 0,-4.562 0.875,-9.679 2.183,-14.906 -0.933,0.172 -1.82,0.57 -2.769,0.57 -6.953,0 -15.574,-6.215 -15.574,-11.332 0,0 0.101,-0.316 0.179,-0.41 -10.55,-1.805 -18.793,-10.234 -18.793,-16.863 0,-7.707 4.864,-12.649 12.36,-12.649 4.711,0 8.367,2.914 11.633,5.469 2.382,1.84 4.624,3.664 6.425,3.664 0.875,0 1.864,-3.566 2.969,-10.586 1.117,-7.082 2.531,-15.758 8.629,-18.828 -0.027,-0.242 -0.102,-1.715 -0.102,-1.715 0,-12.355 5.192,-20.058 9.633,-22.871 2.965,-1.871 6.168,-2.094 8.774,-0.492 0.179,0.109 0.328,0.266 0.406,0.394 l 2.289,2.891 c 0.094,0.223 0.191,0.496 0.223,0.723 0.718,2.867 -0.954,5.113 -2.372,7.226 -0.515,0.703 -1.621,2.325 -1.621,2.875 0,5.739 4.954,16.661 12.711,16.661 2.93,0 4.118,-0.821 6.059,-2.243 2.191,-1.644 4.934,-3.691 9.738,-3.691 6.524,0 10.321,3.488 10.321,9.598 0,6.293 -8.657,13.117 -20.192,13.117 -2.027,0 -3.723,-0.321 -5.531,-0.625 4.348,1.922 9.055,2.988 14.066,3.172 11.09,0.246 14.77,-3.844 18.231,-7.754 2.926,-3.317 6.609,-7.434 13.75,-6.317 l 0.992,0.153 c 3.719,0.5 9.898,1.398 9.898,11 0,4.316 -2.375,9.175 -6.328,12.964 -4.312,4.063 -12.375,8.907 -26.566,8.286 -3.731,-0.098 -8.402,-0.926 -13.5,-2.219 -0.524,2.246 -1.543,4.387 -3.406,5.957 -1.079,0.898 -2.434,1.582 -4.067,2.121 7.176,6.813 14.785,16.168 14.785,25.496 0,8.828 -3.964,11.848 -6.238,12.715 -1.211,0.57 -2.476,0.598 -3.687,0.449 -0.317,2.821 -1.004,5.188 -2.387,6.613 -0.535,0.543 -2.039,1.551 -4.094,1.79 l 0,0 c 0,0.125 -0.105,0.257 -0.223,0.527 l -1.226,2.672 c -0.102,0.222 -0.235,0.363 -0.395,0.496 -1.156,1.148 -3.332,2.367 -7.343,2.187"
             style="fill:#ffffff;fill-opacity:1;fill-rule:nonzero;stroke:none"
             id="path126" />
          <path
             inkscape:connector-curvature="0"
             d="m 579.105,672.383 c -8.265,9.176 11.27,15.918 20.95,17.984 -8.239,-3.515 -16.266,-9.144 -20.95,-17.984 z m 44.157,23.32 c -4.262,-0.195 -11.082,-1.039 -18.207,-3.418 2.722,5.465 -1.981,12.051 -12.899,10.406 6.656,5.02 20.555,17.633 20.555,28.512 0,9.149 -5.031,10.52 -7.484,8.106 -1.387,-1.403 7.484,-14.59 -17.805,-35.645 15.308,17.953 22.566,54.75 6.871,43.094 1.746,-11.844 -2.137,-30.449 -13.184,-48.305 3.973,53.051 15.141,52.367 15.141,54.121 0,0.778 -1.324,2.098 -4.703,1.938 -15.192,-0.668 -15.039,-35.684 -13.699,-51.52 -8.356,14.883 -1.34,43.766 -6.102,43.766 -7.453,0 -8.937,-22.52 0.512,-41.051 -2.418,2.469 -4.426,8.137 -11.375,8.137 -6.996,0 -13.656,-7.758 -10.602,-7.758 11.887,0 20.063,-5.168 20.063,-20.852 0,-10.882 1.609,-16.062 5.402,-17.054 -1.074,-0.93 -1.25,-2.532 -1.699,-3.403 -2.902,0 -6.332,6.914 -6.332,14.594 0,7.606 -2.438,23.32 -18.258,23.32 -10.402,0 -18.543,-8.421 -18.543,-13.265 0,-4.844 2.41,-8.43 8.141,-8.43 6.476,0 11.558,9.02 18.058,9.02 10.297,0 3.77,-29.778 16,-30.582 -1.968,-16.801 7.129,-27.204 11.684,-24.489 3.609,2.196 -3.051,6.266 -3.051,10.582 0,7.434 6.246,20.844 16.906,20.844 8.364,0 8.688,-5.926 15.797,-5.926 4.735,0 6.047,2.059 6.047,5.407 0,3.46 -6.512,8.98 -15.918,8.98 -28.566,0 -26.195,-28.937 -26.73,-26.57 -4.532,17.668 10.547,36.742 35.156,37.422 22.808,0.543 20.055,-15.887 31.383,-14.102 4.25,0.703 7.406,0.508 7.406,7.016 0,6.406 -7.945,17.957 -28.531,17.105"
             style="fill:#fff200;fill-opacity:1;fill-rule:nonzero;stroke:none"
             id="path128" />
        </g>
      </g>
    </g>
    <text
       xml:space="preserve"
       style="font-size:20px;font-style:normal;font-variant:normal;font-weight:normal;font-stretch:normal;text-align:center;line-height:125%;letter-spacing:0px;word-spacing:0px;text-anchor:middle;fill:#ffffff;fill-opacity:1;stroke:none;display:inline;font-family:TeX Gyre Heros;-inkscape-font-specification:TeX Gyre Heros"
       x="461.96927"
       y="1289.3655"
       id="text8911"
       sodipodi:linespacing="125%"><tspan
         style="font-style:normal;font-variant:normal;font-weight:normal;font-stretch:normal;fill:#ffffff;stroke:none;font-family:TeX Gyre Heros;-inkscape-font-specification:TeX Gyre Heros"
         id="tspan8913"
         sodipodi:role="line"
         x="461.96927"
         y="1289.3655">Recyclart, Constant Variable, La Poissonerie, et al.</tspan></text>
    <flowRoot
       transform="translate(-114.68103,485.45836)"
       style="font-size:40px;font-style:normal;font-variant:normal;font-weight:bold;font-stretch:normal;text-align:center;line-height:125%;letter-spacing:0px;word-spacing:0px;text-anchor:middle;fill:#ffffff;fill-opacity:1;stroke:none;display:inline;font-family:TeX Gyre Heros;-inkscape-font-specification:TeX Gyre Termes Bold"
       id="flowRoot8915"
       xml:space="preserve"><flowRegion
         id="flowRegion8917"><rect
           style="font-weight:bold;text-align:center;text-anchor:middle;fill:#ffffff;-inkscape-font-specification:TeX Gyre Termes Bold"
           y="594.6825"
           x="35.102039"
           height="803.41412"
           width="1082.6429"
           id="rect8919" /></flowRegion><flowPara
         id="flowPara8921"
         style="font-size:20px;font-style:normal;font-variant:normal;font-weight:bold;font-stretch:normal;text-align:center;text-anchor:middle;fill:#ffffff;font-family:TeX Gyre Heros;-inkscape-font-specification:TeX Gyre Heros Bold">A feminist review of experimental servertechnologies</flowPara><flowPara
         style="font-size:20px;font-style:normal;font-variant:normal;font-weight:bold;font-stretch:normal;text-align:center;text-anchor:middle;fill:#ffffff;font-family:TeX Gyre Heros;-inkscape-font-specification:TeX Gyre Heros Bold"
         id="flowPara8923">Een feministische kijk op experimentele servertechnologie </flowPara><flowPara
         style="font-size:20px;font-style:normal;font-variant:normal;font-weight:bold;font-stretch:normal;text-align:center;text-anchor:middle;fill:#ffffff;font-family:TeX Gyre Heros;-inkscape-font-specification:TeX Gyre Heros Bold"
         id="flowPara8925">Un regard feministe sur la technologie exprimentale du serveur</flowPara><flowPara
         style="font-size:20px;font-style:normal;font-variant:normal;font-weight:bold;font-stretch:normal;text-align:center;text-anchor:middle;fill:#ffffff;font-family:TeX Gyre Heros;-inkscape-font-specification:TeX Gyre Heros Bold"
         id="flowPara8927" /></flowRoot>    <flowRoot
       transform="translate(-114.06122,591.18453)"
       style="font-size:16px;font-style:normal;font-variant:normal;font-weight:normal;font-stretch:normal;text-align:center;line-height:125%;letter-spacing:0px;word-spacing:0px;text-anchor:middle;fill:#ffffff;fill-opacity:1;stroke:none;display:inline;font-family:TeX Gyre Heros;-inkscape-font-specification:TeX Gyre Heros"
       id="flowRoot8929"
       xml:space="preserve"><flowRegion
         id="flowRegion8931"><rect
           style="font-size:16px;text-align:center;text-anchor:middle;fill:#ffffff"
           y="594.6825"
           x="35.102039"
           height="803.41412"
           width="1082.6429"
           id="rect8933" /></flowRegion><flowPara
         id="flowPara8935"
         style="font-size:16px;font-style:normal;font-variant:normal;font-weight:normal;font-stretch:normal;text-align:center;text-anchor:middle;fill:#ffffff;font-family:TeX Gyre Heros;-inkscape-font-specification:TeX Gyre Heros">Lectures, screenings, portable exhibition, performances, discussions, workshops</flowPara><flowPara
         style="font-size:16px;font-style:normal;font-variant:normal;font-weight:normal;font-stretch:normal;text-align:center;text-anchor:middle;fill:#ffffff;font-family:TeX Gyre Heros;-inkscape-font-specification:TeX Gyre Heros"
         id="flowPara8937">Filmvertoningen, werksessies, draagbare expo, performances, discussies, lezingen</flowPara><flowPara
         style="font-size:16px;font-style:normal;font-variant:normal;font-weight:normal;font-stretch:normal;text-align:center;text-anchor:middle;fill:#ffffff;font-family:TeX Gyre Heros;-inkscape-font-specification:TeX Gyre Heros"
         id="flowPara8939">Sessions de travail, expo portable, films, ateliers, performances, confrences, dbats.</flowPara><flowPara
         style="font-size:16px;font-style:normal;font-variant:normal;font-weight:normal;font-stretch:normal;text-align:center;text-anchor:middle;fill:#ffffff;font-family:TeX Gyre Heros;-inkscape-font-specification:TeX Gyre Heros"
         id="flowPara8941" /></flowRoot>    <flowRoot
       transform="translate(-2.20587,389.81369)"
       style="font-size:40px;font-style:normal;font-variant:normal;font-weight:normal;font-stretch:normal;line-height:125%;letter-spacing:0px;word-spacing:0px;fill:#ffffff;fill-opacity:1;stroke:none;font-family:TeX Gyre Heros;-inkscape-font-specification:TeX Gyre Heros"
       id="flowRoot8947"
       xml:space="preserve"><flowRegion
         id="flowRegion8949"><rect
           style="fill:#ffffff"
           y="594.6825"
           x="35.102039"
           height="110.32858"
           width="860.11237"
           id="rect8951" /></flowRegion><flowPara
         id="flowPara8953"
         style="font-size:36px;font-style:normal;font-variant:normal;font-weight:bold;font-stretch:normal;text-align:center;text-anchor:middle;fill:#ffffff;font-family:TeX Gyre Heros;-inkscape-font-specification:TeX Gyre Heros Bold">Verbindingen | Jonctions 14</flowPara><flowPara
         style="font-size:36px;text-align:center;text-anchor:middle;fill:#ffffff"
         id="flowPara8957">12.12.15.12.2013</flowPara><flowPara
         style="font-size:36px;text-align:center;text-anchor:middle;fill:#ffffff"
         id="flowPara8959" /><flowPara
         style="font-size:36px;text-align:center;text-anchor:middle;fill:#ffffff"
         id="flowPara8961" /><flowPara
         style="font-size:36px;text-align:center;text-anchor:middle;fill:#ffffff"
         id="flowPara8963" /><flowPara
         style="font-size:36px;text-align:center;text-anchor:middle;fill:#ffffff"
         id="flowPara8965" /></flowRoot>    <text
       xml:space="preserve"
       style="font-size:34px;font-style:normal;font-variant:normal;font-weight:bold;font-stretch:normal;text-align:center;line-height:125%;letter-spacing:0px;word-spacing:0px;text-anchor:middle;fill:#ffffff;fill-opacity:1;stroke:none;display:inline;font-family:TeX Gyre Heros;-inkscape-font-specification:TeX Gyre Heros Bold"
       x="462.09241"
       y="1373.3655"
       id="text8967"
       sodipodi:linespacing="125%"><tspan
         dx="0 1.0559282 1.0559282 1.0559282 1.0559282 1.0559282 2.1118565 2.1118565 0 0 0 1.0559282 1.0559282 0 0 0 0 0 0 0 0 0 0 1.0559282 1.0559282"
         sodipodi:role="line"
         id="tspan8969"
         x="462.09241"
         y="1373.3655"
         style="font-size:34px;text-align:center;text-anchor:middle">http://vj14.constantvzw.org</tspan></text>
    <text
       xml:space="preserve"
       style="font-size:20px;font-style:normal;font-variant:normal;font-weight:bold;font-stretch:normal;text-align:center;line-height:125%;letter-spacing:0px;word-spacing:0px;text-anchor:middle;fill:#ffffff;fill-opacity:1;stroke:none;display:inline;font-family:TeX Gyre Heros;-inkscape-font-specification:TeX Gyre Heros Bold"
       x="461.58224"
       y="1315.3655"
       id="text9201"
       sodipodi:linespacing="125%"><tspan
         sodipodi:role="line"
         id="tspan9203"
         x="461.58224"
         y="1315.3655">Brussel | Bruxelles</tspan></text>
    <g
       id="g9933"
       transform="translate(61.285569,-30.742)">
      <text
         xml:space="preserve"
         style="font-size:28px;font-style:normal;font-variant:normal;font-weight:normal;font-stretch:normal;line-height:125%;letter-spacing:0px;word-spacing:0px;fill:#ffffff;fill-opacity:1;stroke:none;display:inline;font-family:TeX Gyre Heros;-inkscape-font-specification:TeX Gyre Heros"
         x="234.77628"
         y="910.45197"
         id="text9611-3-9"
         sodipodi:linespacing="125%"><tspan
           sodipodi:role="line"
           id="tspan9613-4-9"
           x="234.77628"
           y="910.45197"
           dx="0 0 0 0 0 0 0 0 0 0 0 0 0 0 0 0 0 0 0 0"
           style="font-size:28px;font-weight:normal;fill:#ffffff;-inkscape-font-specification:TeX Gyre Heros">Are you being served</tspan><tspan
           sodipodi:role="line"
           x="234.77628"
           y="945.45197"
           id="tspan9615-4-4"
           dx="0 0 0 0 0 3.1677847 2.1118565 4.2237129 -0.43737984 0 6.3355694 3.5555971e-08 0 0 0 0 0 0 0"
           dy="-4.2237129"
           style="font-size:28px;font-weight:normal;fill:#ffffff;-inkscape-font-specification:TeX Gyre Heros">Wordt u al geholpen</tspan><tspan
           sodipodi:role="line"
           x="234.77628"
           y="980.45197"
           id="tspan9617-6-5"
           dx="0 0 1.0559282 1.0559282 0 0 0 0 0 0 0 1.5838923 0.52796412 0 1.0559282 -1.0559282 0 0 0"
           dy="-10.687387"
           style="font-size:28px;font-weight:normal;fill:#ffffff;-inkscape-font-specification:TeX Gyre Heros">On s'occupe de vous</tspan></text>
      <path
         sodipodi:nodetypes="ccccc"
         inkscape:connector-curvature="0"
         id="rect9630-8-0"
         d="m 575.99051,985.05207 -353.03446,0 0,-104.53156 353.03446,0 z"
         style="color:#000000;fill:none;stroke:#ffffff;stroke-width:2;marker:none;visibility:visible;display:inline;overflow:visible;enable-background:accumulate" />
      <text
         sodipodi:linespacing="125%"
         id="text9893-3"
         y="968.6806"
         x="510.90381"
         style="font-size:96.42729187px;font-style:normal;font-variant:normal;font-weight:normal;font-stretch:normal;line-height:125%;letter-spacing:0px;word-spacing:0px;fill:#ffffff;fill-opacity:1;stroke:none;display:inline;font-family:TeX Gyre Heros;-inkscape-font-specification:TeX Gyre Heros"
         xml:space="preserve"><tspan
           y="968.6806"
           x="510.90381"
           id="tspan9895-5"
           sodipodi:role="line">?</tspan></text>
    </g>
  </g>
  <g
     inkscape:groupmode="layer"
     id="g4728"
     layerid="element"
     inkscape:label="XX_DECKELTELLER-000"
     style="display:none">
    <path
       style="color:#000000;fill:#ff0000;fill-opacity:1;fill-rule:nonzero;stroke:none;stroke-width:1;marker:none;visibility:visible;display:inline;overflow:visible;enable-background:accumulate"
       d="m 807.08802,443.63008 c 0,186.90345 -151.52623,338.41865 -338.4433,338.41865 -186.91706,0 -338.44328,-151.5152 -338.44328,-338.41865 0,-186.90344 151.52622,-338.41863 338.44328,-338.41863 186.91707,0 338.4433,151.51519 338.4433,338.41863 z"
       id="path3861-5"
       inkscape:connector-curvature="0" />
  </g>
  <g
     style="display:none"
     inkscape:label="XX_DECKELSCHALE-000"
     layerid="element"
     id="g3782"
     inkscape:groupmode="layer">
    <path
       inkscape:connector-curvature="0"
       id="path3784"
       d="m 1363.8782,896.32002 c 0,168.31768 -137.1071,304.76608 -306.2375,304.76608 -68.45924,0 -127.46229,-19.2206 -177.34253,-54.2809 -81.4883,-57.2775 -129.38288,-147.56379 -128.89485,-250.48518 0.35652,-75.18714 28.36532,-147.3688 75.73776,-202.82147 53.24275,-62.32428 139.43365,-106.08073 230.49962,-106.79377 169.1252,-1.32424 306.2375,141.29761 306.2375,309.61524 z"
       style="color:#000000;fill:#ff0000;fill-opacity:1;fill-rule:nonzero;stroke:none;stroke-width:1;marker:none;visibility:visible;display:inline;overflow:visible;enable-background:accumulate"
       sodipodi:nodetypes="sssssss" />
  </g>
  <g
     inkscape:groupmode="layer"
     id="g3697"
     layerid="element"
     inkscape:label="XX_RAHMEN-001"
     style="display:inline"
     sodipodi:insensitive="true">
    <path
       style="color:#000000;fill:#ffffff;stroke:none;stroke-width:1;marker:none;visibility:visible;display:inline;overflow:visible;enable-background:accumulate"
       d="m -325.78125,-365.93841 0,2241.31251 1725.18745,0 0,-2241.31251 z M 10.625,10.624088 l 1052.375,0 0,1488.187512 -1052.375,0 z"
       id="rect4724-9-1"
       inkscape:connector-curvature="0"
       sodipodi:nodetypes="cccccccccc" />
    <path
       style="color:#000000;fill:none;stroke:#ff0000;stroke-width:1;stroke-miterlimit:4;stroke-dasharray:none;marker:none;visibility:visible;display:inline;overflow:visible;enable-background:accumulate"
       d="m 11.12991,11.128965 1051.36229,0 0,1487.188935 -1051.36229,0 z"
       id="rect4724-9"
       inkscape:connector-curvature="0" />
  </g>
</svg>
